GeoramaExtraExtended-ThinItalic.ufo
<glyph name="exclam" format="2">
  <advance width="325"/>
  <unicode hex="0021"/>
  <outline>
    <contour>
      <point x="151" y="264" type="line"/>
      <point x="169" y="264" type="line"/>
      <point x="244" y="740" type="line"/>
      <point x="226" y="740" type="line"/>
    </contour>
    <contour>
      <point x="104" y="10" type="curve" smooth="yes"/>
      <point x="103" y="1"/>
      <point x="107" y="0"/>
      <point x="117" y="0" type="curve" smooth="yes"/>
      <point x="135" y="0"/>
      <point x="136" y="1"/>
      <point x="139" y="24" type="curve" smooth="yes"/>
      <point x="140" y="33"/>
      <point x="136" y="34"/>
      <point x="126" y="34" type="curve" smooth="yes"/>
      <point x="108" y="34"/>
      <point x="107" y="33"/>
    </contour>
  </outline>
</glyph>
<glyph name="numbersign" format="2">
  <advance width="1034"/>
  <unicode hex="0023"/>
  <outline>
    <contour>
      <point x="248" y="476" type="line"/>
      <point x="421" y="476" type="line"/>
      <point x="312" y="208" type="line"/>
      <point x="149" y="208" type="line"/>
      <point x="147" y="191" type="line"/>
      <point x="305" y="191" type="line"/>
      <point x="228" y="0" type="line"/>
      <point x="248" y="0" type="line"/>
      <point x="324" y="191" type="line"/>
      <point x="610" y="191" type="line"/>
      <point x="534" y="0" type="line"/>
      <point x="554" y="0" type="line"/>
      <point x="630" y="191" type="line"/>
      <point x="805" y="191" type="line"/>
      <point x="807" y="208" type="line"/>
      <point x="638" y="208" type="line"/>
      <point x="746" y="476" type="line"/>
      <point x="906" y="476" type="line"/>
      <point x="909" y="493" type="line"/>
      <point x="754" y="493" type="line"/>
      <point x="838" y="700" type="line"/>
      <point x="818" y="700" type="line"/>
      <point x="734" y="493" type="line"/>
      <point x="448" y="493" type="line"/>
      <point x="532" y="700" type="line"/>
      <point x="512" y="700" type="line"/>
      <point x="428" y="493" type="line"/>
      <point x="251" y="493" type="line"/>
    </contour>
    <contour>
      <point x="441" y="476" type="line"/>
      <point x="727" y="476" type="line"/>
      <point x="618" y="208" type="line"/>
      <point x="332" y="208" type="line"/>
    </contour>
  </outline>
</glyph>
<glyph name="dollar" format="2">
  <advance width="1034"/>
  <unicode hex="0024"/>
  <outline>
    <contour>
      <point x="905" y="661" type="line"/>
      <point x="865" y="674"/>
      <point x="760" y="708"/>
      <point x="616" y="710" type="curve"/>
      <point x="632" y="805" type="line"/>
      <point x="614" y="805" type="line"/>
      <point x="599" y="710" type="line"/>
      <point x="449" y="709"/>
      <point x="203" y="683"/>
      <point x="203" y="501" type="curve" smooth="yes"/>
      <point x="203" y="254"/>
      <point x="870" y="418"/>
      <point x="870" y="195" type="curve" smooth="yes"/>
      <point x="870" y="29"/>
      <point x="602" y="9"/>
      <point x="482" y="9" type="curve" smooth="yes"/>
      <point x="329" y="9"/>
      <point x="145" y="63"/>
      <point x="103" y="78" type="curve"/>
      <point x="95" y="58" type="line"/>
      <point x="162" y="38"/>
      <point x="316" y="-8"/>
      <point x="482" y="-10" type="curve"/>
      <point x="467" y="-105" type="line"/>
      <point x="485" y="-105" type="line"/>
      <point x="500" y="-10" type="line"/>
      <point x="654" y="-9"/>
      <point x="890" y="18"/>
      <point x="890" y="198" type="curve" smooth="yes"/>
      <point x="890" y="441"/>
      <point x="222" y="279"/>
      <point x="222" y="505" type="curve" smooth="yes"/>
      <point x="222" y="673"/>
      <point x="487" y="691"/>
      <point x="600" y="691" type="curve" smooth="yes"/>
      <point x="744" y="691"/>
      <point x="838" y="662"/>
      <point x="897" y="641" type="curve"/>
    </contour>
  </outline>
</glyph>
<glyph name="quotesingle" format="2">
  <advance width="181"/>
  <unicode hex="0027"/>
  <outline>
    <contour>
      <point x="108" y="427" type="line"/>
      <point x="121" y="427" type="line"/>
      <point x="168" y="700" type="line"/>
      <point x="147" y="700" type="line"/>
    </contour>
  </outline>
</glyph>
<glyph name="parenleft" format="2">
  <advance width="460"/>
  <unicode hex="0028"/>
  <outline>
    <contour>
      <point x="142" y="123" type="curve" smooth="yes"/>
      <point x="142" y="-44"/>
      <point x="198" y="-188"/>
      <point x="341" y="-220" type="curve"/>
      <point x="344" y="-202" type="line"/>
      <point x="225" y="-176"/>
      <point x="161" y="-47"/>
      <point x="161" y="130" type="curve" smooth="yes"/>
      <point x="161" y="423"/>
      <point x="298" y="697"/>
      <point x="491" y="732" type="curve"/>
      <point x="494" y="750" type="line"/>
      <point x="231" y="696"/>
      <point x="142" y="354"/>
    </contour>
  </outline>
</glyph>
<glyph name="parenright" format="2">
  <advance width="460"/>
  <unicode hex="0029"/>
  <outline>
    <contour>
      <point x="315" y="405" type="curve" smooth="yes"/>
      <point x="315" y="578"/>
      <point x="257" y="718"/>
      <point x="113" y="750" type="curve"/>
      <point x="110" y="730" type="line"/>
      <point x="239" y="702"/>
      <point x="296" y="566"/>
      <point x="296" y="398" type="curve" smooth="yes"/>
      <point x="296" y="130"/>
      <point x="166" y="-159"/>
      <point x="-36" y="-200" type="curve"/>
      <point x="-39" y="-220" type="line"/>
      <point x="187" y="-173"/>
      <point x="315" y="125"/>
    </contour>
  </outline>
</glyph>
<glyph name="asterisk" format="2">
  <advance width="460"/>
  <unicode hex="002A"/>
  <outline>
    <contour>
      <point x="121" y="311" type="line"/>
      <point x="264" y="487" type="line"/>
      <point x="349" y="311" type="line"/>
      <point x="362" y="319" type="line"/>
      <point x="278" y="499" type="line"/>
      <point x="472" y="563" type="line"/>
      <point x="469" y="578" type="line"/>
      <point x="278" y="516" type="line"/>
      <point x="312" y="730" type="line"/>
      <point x="294" y="730" type="line"/>
      <point x="260" y="516" type="line"/>
      <point x="86" y="578" type="line"/>
      <point x="80" y="563" type="line"/>
      <point x="253" y="499" type="line"/>
      <point x="109" y="321" type="line"/>
    </contour>
  </outline>
</glyph>
<glyph name="period" format="2">
  <advance width="215"/>
  <unicode hex="002E"/>
  <outline>
    <contour>
      <point x="49" y="10" type="curve" smooth="yes"/>
      <point x="48" y="1"/>
      <point x="52" y="0"/>
      <point x="62" y="0" type="curve" smooth="yes"/>
      <point x="80" y="0"/>
      <point x="81" y="1"/>
      <point x="84" y="24" type="curve" smooth="yes"/>
      <point x="85" y="33"/>
      <point x="81" y="34"/>
      <point x="71" y="34" type="curve" smooth="yes"/>
      <point x="53" y="34"/>
      <point x="52" y="33"/>
    </contour>
  </outline>
</glyph>
<glyph name="one" format="2">
  <advance width="1034"/>
  <unicode hex="0031"/>
  <outline>
    <contour>
      <point x="96" y="0" type="line"/>
      <point x="914" y="0" type="line"/>
      <point x="917" y="19" type="line"/>
      <point x="559" y="19" type="line"/>
      <point x="669" y="710" type="line"/>
      <point x="658" y="710" type="line"/>
      <point x="170" y="499" type="line"/>
      <point x="174" y="481" type="line"/>
      <point x="647" y="685" type="line"/>
      <point x="541" y="19" type="line"/>
      <point x="99" y="19" type="line"/>
    </contour>
  </outline>
</glyph>
<glyph name="two" format="2">
  <advance width="1034"/>
  <unicode hex="0032"/>
  <outline>
    <contour>
      <point x="119" y="17" type="curve"/>
      <point x="119" y="0" type="line"/>
      <point x="887" y="0" type="line"/>
      <point x="887" y="19" type="line"/>
      <point x="167" y="19" type="line"/>
      <point x="709" y="257"/>
      <point x="799" y="349"/>
      <point x="799" y="502" type="curve" smooth="yes"/>
      <point x="799" y="651"/>
      <point x="663" y="710"/>
      <point x="498" y="710" type="curve" smooth="yes"/>
      <point x="404" y="710"/>
      <point x="287" y="683"/>
      <point x="208" y="645" type="curve"/>
      <point x="213" y="627" type="line"/>
      <point x="289" y="663"/>
      <point x="404" y="693"/>
      <point x="496" y="693" type="curve" smooth="yes"/>
      <point x="650" y="693"/>
      <point x="780" y="637"/>
      <point x="780" y="498" type="curve" smooth="yes"/>
      <point x="780" y="358"/>
      <point x="684" y="264"/>
    </contour>
  </outline>
</glyph>
<glyph name="three" format="2">
  <advance width="1034"/>
  <unicode hex="0033"/>
  <outline>
    <contour>
      <point x="44" y="87" type="line"/>
      <point x="163" y="23"/>
      <point x="300" y="-10"/>
      <point x="486" y="-10" type="curve" smooth="yes"/>
      <point x="772" y="-10"/>
      <point x="903" y="79"/>
      <point x="903" y="213" type="curve" smooth="yes"/>
      <point x="903" y="305"/>
      <point x="813" y="359"/>
      <point x="676" y="371" type="curve"/>
      <point x="779" y="385"/>
      <point x="881" y="441"/>
      <point x="881" y="548" type="curve" smooth="yes"/>
      <point x="881" y="653"/>
      <point x="760" y="710"/>
      <point x="542" y="710" type="curve" smooth="yes"/>
      <point x="451" y="710"/>
      <point x="312" y="693"/>
      <point x="207" y="668" type="curve"/>
      <point x="212" y="650" type="line"/>
      <point x="314" y="674"/>
      <point x="450" y="692"/>
      <point x="539" y="692" type="curve" smooth="yes"/>
      <point x="743" y="692"/>
      <point x="861" y="639"/>
      <point x="861" y="546" type="curve" smooth="yes"/>
      <point x="861" y="432"/>
      <point x="725" y="379"/>
      <point x="589" y="379" type="curve" smooth="yes"/>
      <point x="325" y="379" type="line"/>
      <point x="322" y="359" type="line"/>
      <point x="568" y="359" type="line" smooth="yes"/>
      <point x="772" y="359"/>
      <point x="882" y="308"/>
      <point x="882" y="208" type="curve" smooth="yes"/>
      <point x="882" y="85"/>
      <point x="739" y="8"/>
      <point x="492" y="8" type="curve" smooth="yes"/>
      <point x="303" y="8"/>
      <point x="176" y="40"/>
      <point x="56" y="105" type="curve"/>
    </contour>
  </outline>
</glyph>
<glyph name="five" format="2">
  <advance width="1034"/>
  <unicode hex="0035"/>
  <outline>
    <contour>
      <point x="77" y="87" type="line"/>
      <point x="171" y="27"/>
      <point x="283" y="-10"/>
      <point x="469" y="-10" type="curve" smooth="yes"/>
      <point x="780" y="-10"/>
      <point x="905" y="90"/>
      <point x="905" y="231" type="curve" smooth="yes"/>
      <point x="905" y="354"/>
      <point x="811" y="413"/>
      <point x="616" y="413" type="curve" smooth="yes"/>
      <point x="202" y="413" type="line"/>
      <point x="292" y="681" type="line"/>
      <point x="908" y="681" type="line"/>
      <point x="912" y="700" type="line"/>
      <point x="279" y="700" type="line"/>
      <point x="179" y="404" type="line"/>
      <point x="186" y="394" type="line"/>
      <point x="600" y="394" type="line" smooth="yes"/>
      <point x="794" y="394"/>
      <point x="884" y="346"/>
      <point x="884" y="225" type="curve" smooth="yes"/>
      <point x="884" y="89"/>
      <point x="728" y="9"/>
      <point x="473" y="9" type="curve" smooth="yes"/>
      <point x="291" y="9"/>
      <point x="181" y="47"/>
      <point x="88" y="105" type="curve"/>
    </contour>
  </outline>
</glyph>
<glyph name="six" format="2">
  <advance width="1034"/>
  <unicode hex="0036"/>
  <note>
14
</note>
  <outline>
    <contour>
      <point x="499" y="-10" type="curve" smooth="yes"/>
      <point x="794" y="-10"/>
      <point x="954" y="77"/>
      <point x="954" y="232" type="curve" smooth="yes"/>
      <point x="954" y="371"/>
      <point x="837" y="442"/>
      <point x="612" y="442" type="curve" smooth="yes"/>
      <point x="450" y="442"/>
      <point x="251" y="396"/>
      <point x="127" y="330" type="curve"/>
      <point x="126" y="304" type="line"/>
      <point x="243" y="375"/>
      <point x="439" y="423"/>
      <point x="610" y="423" type="curve" smooth="yes"/>
      <point x="821" y="423"/>
      <point x="934" y="357"/>
      <point x="934" y="234" type="curve" smooth="yes"/>
      <point x="934" y="89"/>
      <point x="783" y="9"/>
      <point x="510" y="9" type="curve" smooth="yes"/>
      <point x="245" y="9"/>
      <point x="129" y="91"/>
      <point x="129" y="278" type="curve" smooth="yes"/>
      <point x="129" y="421"/>
      <point x="186" y="535"/>
      <point x="293" y="606" type="curve" smooth="yes"/>
      <point x="377" y="662"/>
      <point x="492" y="691"/>
      <point x="628" y="691" type="curve" smooth="yes"/>
      <point x="750" y="691"/>
      <point x="856" y="677"/>
      <point x="967" y="645" type="curve"/>
      <point x="974" y="665" type="line"/>
      <point x="867" y="694"/>
      <point x="748" y="710"/>
      <point x="632" y="710" type="curve" smooth="yes"/>
      <point x="301" y="710"/>
      <point x="108" y="548"/>
      <point x="108" y="271" type="curve" smooth="yes"/>
      <point x="108" y="80"/>
      <point x="234" y="-10"/>
    </contour>
  </outline>
</glyph>
<glyph name="seven" format="2">
  <advance width="1034"/>
  <unicode hex="0037"/>
  <note>
9
</note>
  <outline>
    <contour>
      <point x="335" y="0" type="curve"/>
      <point x="358" y="0" type="line"/>
      <point x="384" y="167"/>
      <point x="470" y="248"/>
      <point x="672" y="437" type="curve" smooth="yes"/>
      <point x="934" y="682" type="line"/>
      <point x="937" y="700" type="line"/>
      <point x="160" y="700" type="line"/>
      <point x="157" y="680" type="line"/>
      <point x="907" y="680" type="line"/>
      <point x="656" y="447" type="line" smooth="yes"/>
      <point x="456" y="261"/>
      <point x="363" y="177"/>
    </contour>
  </outline>
</glyph>
<glyph name="eight" format="2">
  <advance width="1034"/>
  <unicode hex="0038"/>
  <outline>
    <contour>
      <point x="473" y="-10" type="curve" smooth="yes"/>
      <point x="720" y="-10"/>
      <point x="934" y="30"/>
      <point x="934" y="212" type="curve" smooth="yes"/>
      <point x="934" y="495"/>
      <point x="192" y="275"/>
      <point x="192" y="523" type="curve" smooth="yes"/>
      <point x="192" y="657"/>
      <point x="370" y="691"/>
      <point x="573" y="691" type="curve" smooth="yes"/>
      <point x="820" y="691"/>
      <point x="920" y="641"/>
      <point x="920" y="546" type="curve" smooth="yes"/>
      <point x="920" y="444"/>
      <point x="847" y="400"/>
      <point x="712" y="355" type="curve"/>
      <point x="739" y="351" type="line"/>
      <point x="856" y="389"/>
      <point x="939" y="439"/>
      <point x="939" y="547" type="curve" smooth="yes"/>
      <point x="939" y="653"/>
      <point x="832" y="710"/>
      <point x="573" y="710" type="curve" smooth="yes"/>
      <point x="358" y="710"/>
      <point x="173" y="673"/>
      <point x="173" y="521" type="curve" smooth="yes"/>
      <point x="173" y="250"/>
      <point x="915" y="474"/>
      <point x="915" y="211" type="curve" smooth="yes"/>
      <point x="915" y="45"/>
      <point x="711" y="9"/>
      <point x="474" y="9" type="curve" smooth="yes"/>
      <point x="205" y="9"/>
      <point x="90" y="65"/>
      <point x="90" y="181" type="curve" smooth="yes"/>
      <point x="90" y="297"/>
      <point x="189" y="361"/>
      <point x="329" y="396" type="curve"/>
      <point x="294" y="402" type="line"/>
      <point x="167" y="365"/>
      <point x="71" y="302"/>
      <point x="71" y="176" type="curve" smooth="yes"/>
      <point x="71" y="51"/>
      <point x="190" y="-10"/>
    </contour>
  </outline>
</glyph>
<glyph name="less" format="2">
  <advance width="513"/>
  <unicode hex="003C"/>
  <outline>
    <contour>
      <point x="417" y="69" type="line"/>
      <point x="420" y="90" type="line"/>
      <point x="85" y="289" type="line"/>
      <point x="483" y="488" type="line"/>
      <point x="486" y="510" type="line"/>
      <point x="67" y="299" type="line"/>
      <point x="64" y="279" type="line"/>
    </contour>
  </outline>
</glyph>
<glyph name="equal" format="2">
  <advance width="512"/>
  <unicode hex="003D"/>
  <outline>
    <contour>
      <point x="437" y="197" type="line"/>
      <point x="51" y="197" type="line"/>
      <point x="48" y="179" type="line"/>
      <point x="434" y="179" type="line"/>
    </contour>
    <contour>
      <point x="469" y="402" type="line"/>
      <point x="83" y="402" type="line"/>
      <point x="80" y="384" type="line"/>
      <point x="466" y="384" type="line"/>
    </contour>
  </outline>
</glyph>
<glyph name="at" format="2">
  <advance width="1081"/>
  <unicode hex="0040"/>
  <outline>
    <contour>
      <point x="460" y="-117" type="curve" smooth="yes"/>
      <point x="568" y="-117"/>
      <point x="685" y="-88"/>
      <point x="785" y="-37" type="curve"/>
      <point x="777" y="-21" type="line"/>
      <point x="677" y="-71"/>
      <point x="569" y="-97"/>
      <point x="463" y="-97" type="curve" smooth="yes"/>
      <point x="237" y="-97"/>
      <point x="98" y="29"/>
      <point x="98" y="233" type="curve" smooth="yes"/>
      <point x="98" y="514"/>
      <point x="312" y="729"/>
      <point x="629" y="729" type="curve" smooth="yes"/>
      <point x="861" y="729"/>
      <point x="1001" y="599"/>
      <point x="1001" y="412" type="curve" smooth="yes"/>
      <point x="1001" y="247"/>
      <point x="907" y="112"/>
      <point x="812" y="112" type="curve" smooth="yes"/>
      <point x="737" y="112"/>
      <point x="736" y="188"/>
      <point x="755" y="283" type="curve" smooth="yes"/>
      <point x="802" y="518" type="line"/>
      <point x="732" y="536"/>
      <point x="681" y="544"/>
      <point x="635" y="544" type="curve" smooth="yes"/>
      <point x="438" y="544"/>
      <point x="291" y="420"/>
      <point x="291" y="254" type="curve" smooth="yes"/>
      <point x="291" y="151"/>
      <point x="350" y="96"/>
      <point x="463" y="96" type="curve" smooth="yes"/>
      <point x="555" y="96"/>
      <point x="665" y="147"/>
      <point x="726" y="230" type="curve"/>
      <point x="714" y="132"/>
      <point x="750" y="93"/>
      <point x="816" y="93" type="curve" smooth="yes"/>
      <point x="920" y="93"/>
      <point x="1020" y="236"/>
      <point x="1020" y="410" type="curve" smooth="yes"/>
      <point x="1020" y="614"/>
      <point x="868" y="749"/>
      <point x="627" y="749" type="curve" smooth="yes"/>
      <point x="307" y="749"/>
      <point x="80" y="531"/>
      <point x="80" y="229" type="curve" smooth="yes"/>
      <point x="80" y="13"/>
      <point x="223" y="-117"/>
    </contour>
    <contour>
      <point x="468" y="116" type="curve" smooth="yes"/>
      <point x="364" y="116"/>
      <point x="310" y="164"/>
      <point x="310" y="256" type="curve" smooth="yes"/>
      <point x="310" y="408"/>
      <point x="446" y="525"/>
      <point x="623" y="525" type="curve" smooth="yes"/>
      <point x="679" y="525"/>
      <point x="721" y="519"/>
      <point x="779" y="502" type="curve"/>
      <point x="732" y="268" type="line"/>
      <point x="685" y="182"/>
      <point x="570" y="116"/>
    </contour>
  </outline>
</glyph>
<glyph name="C" format="2">
  <advance width="1002"/>
  <unicode hex="0043"/>
  <anchor x="550" y="0" name="bottom"/>
  <anchor x="646" y="700" name="top"/>
  <outline>
    <contour>
      <point x="566" y="-10" type="curve" smooth="yes"/>
      <point x="704" y="-10"/>
      <point x="820" y="7"/>
      <point x="909" y="41" type="curve"/>
      <point x="903" y="58" type="line"/>
      <point x="815" y="26"/>
      <point x="700" y="9"/>
      <point x="569" y="9" type="curve" smooth="yes"/>
      <point x="284" y="9"/>
      <point x="111" y="117"/>
      <point x="111" y="310" type="curve" smooth="yes"/>
      <point x="111" y="544"/>
      <point x="306" y="691"/>
      <point x="636" y="691" type="curve" smooth="yes"/>
      <point x="759" y="691"/>
      <point x="852" y="678"/>
      <point x="967" y="646" type="curve"/>
      <point x="973" y="664" type="line"/>
      <point x="855" y="697"/>
      <point x="762" y="710"/>
      <point x="640" y="710" type="curve" smooth="yes"/>
      <point x="293" y="710"/>
      <point x="92" y="557"/>
      <point x="92" y="310" type="curve" smooth="yes"/>
      <point x="92" y="104"/>
      <point x="271" y="-10"/>
    </contour>
  </outline>
</glyph>
<glyph name="E" format="2">
  <advance width="895"/>
  <unicode hex="0045"/>
  <anchor x="443" y="0" name="bottom"/>
  <anchor x="792" y="0" name="ogonek"/>
  <anchor x="540" y="700" name="top"/>
  <anchor x="117" y="700" name="topleft"/>
  <outline>
    <contour>
      <point x="93" y="0" type="line"/>
      <point x="792" y="0" type="line"/>
      <point x="795" y="19" type="line"/>
      <point x="115" y="19" type="line"/>
      <point x="172" y="374" type="line"/>
      <point x="795" y="374" type="line"/>
      <point x="798" y="393" type="line"/>
      <point x="174" y="393" type="line"/>
      <point x="220" y="681" type="line"/>
      <point x="873" y="681" type="line"/>
      <point x="876" y="700" type="line"/>
      <point x="204" y="700" type="line"/>
    </contour>
  </outline>
</glyph>
<glyph name="F" format="2">
  <advance width="853"/>
  <unicode hex="0046"/>
  <outline>
    <contour>
      <point x="93" y="0" type="line"/>
      <point x="112" y="0" type="line"/>
      <point x="161" y="304" type="line"/>
      <point x="747" y="304" type="line"/>
      <point x="749" y="323" type="line"/>
      <point x="163" y="323" type="line"/>
      <point x="220" y="681" type="line"/>
      <point x="873" y="681" type="line"/>
      <point x="876" y="700" type="line"/>
      <point x="204" y="700" type="line"/>
    </contour>
  </outline>
</glyph>
<glyph name="G" format="2">
  <advance width="1017"/>
  <unicode hex="0047"/>
  <anchor x="505" y="0" name="bottom"/>
  <anchor x="638" y="700" name="top"/>
  <outline>
    <contour>
      <point x="538" y="-10" type="curve" smooth="yes"/>
      <point x="684" y="-10"/>
      <point x="808" y="19"/>
      <point x="887" y="52" type="curve"/>
      <point x="928" y="309" type="line"/>
      <point x="546" y="309" type="line"/>
      <point x="543" y="290" type="line"/>
      <point x="906" y="290" type="line"/>
      <point x="870" y="65" type="line"/>
      <point x="791" y="31"/>
      <point x="676" y="9"/>
      <point x="542" y="9" type="curve" smooth="yes"/>
      <point x="309" y="9"/>
      <point x="110" y="105"/>
      <point x="110" y="310" type="curve" smooth="yes"/>
      <point x="110" y="550"/>
      <point x="313" y="691"/>
      <point x="632" y="691" type="curve" smooth="yes"/>
      <point x="750" y="691"/>
      <point x="833" y="678"/>
      <point x="946" y="645" type="curve"/>
      <point x="952" y="662" type="line"/>
      <point x="860" y="693"/>
      <point x="749" y="710"/>
      <point x="636" y="710" type="curve" smooth="yes"/>
      <point x="300" y="710"/>
      <point x="91" y="564"/>
      <point x="91" y="305" type="curve" smooth="yes"/>
      <point x="91" y="94"/>
      <point x="296" y="-10"/>
    </contour>
  </outline>
</glyph>
<glyph name="H" format="2">
  <advance width="1107"/>
  <unicode hex="0048"/>
  <anchor x="510.444" y="0" name="bottom"/>
  <anchor x="565.879" y="350" name="center"/>
  <anchor x="621.313" y="700" name="top"/>
  <anchor x="87.313" y="700" name="topleft"/>
  <outline>
    <contour>
      <point x="93" y="0" type="line"/>
      <point x="112" y="0" type="line"/>
      <point x="158" y="291" type="line"/>
      <point x="953" y="291" type="line"/>
      <point x="907" y="0" type="line"/>
      <point x="926" y="0" type="line"/>
      <point x="1037" y="700" type="line"/>
      <point x="1018" y="700" type="line"/>
      <point x="956" y="310" type="line"/>
      <point x="161" y="310" type="line"/>
      <point x="223" y="700" type="line"/>
      <point x="204" y="700" type="line"/>
    </contour>
  </outline>
</glyph>
<glyph name="K" format="2">
  <advance width="967"/>
  <unicode hex="004B"/>
  <anchor x="447" y="0" name="bottom"/>
  <anchor x="536" y="700" name="top"/>
  <outline>
    <contour>
      <point x="93" y="0" type="line"/>
      <point x="112" y="0" type="line"/>
      <point x="223" y="700" type="line"/>
      <point x="204" y="700" type="line"/>
    </contour>
    <contour>
      <point x="900" y="-10" type="curve" smooth="yes"/>
      <point x="903" y="-10"/>
      <point x="910" y="-10"/>
      <point x="915" y="-9" type="curve"/>
      <point x="916" y="9" type="line"/>
      <point x="912" y="9"/>
      <point x="908" y="9"/>
      <point x="904" y="9" type="curve" smooth="yes"/>
      <point x="833" y="9"/>
      <point x="785" y="40"/>
      <point x="678" y="114" type="curve" smooth="yes"/>
      <point x="176" y="462" type="line"/>
      <point x="173" y="442" type="line"/>
      <point x="619" y="129" type="line" smooth="yes"/>
      <point x="753" y="35"/>
      <point x="816" y="-10"/>
    </contour>
    <contour>
      <point x="347" y="329" type="line"/>
      <point x="514" y="386"/>
      <point x="821" y="519"/>
      <point x="983" y="698" type="curve"/>
      <point x="970" y="710" type="line"/>
      <point x="796" y="526"/>
      <point x="490" y="396"/>
      <point x="328" y="342" type="curve"/>
    </contour>
  </outline>
</glyph>
<glyph name="L" format="2">
  <advance width="797"/>
  <unicode hex="004C"/>
  <anchor x="415" y="0" name="bottom"/>
  <anchor x="410.879" y="350" name="center"/>
  <anchor x="213" y="700" name="top"/>
  <anchor x="610" y="700" name="topright"/>
  <outline>
    <contour>
      <point x="93" y="0" type="line"/>
      <point x="736" y="0" type="line"/>
      <point x="739" y="19" type="line"/>
      <point x="115" y="19" type="line"/>
      <point x="223" y="700" type="line"/>
      <point x="204" y="700" type="line"/>
    </contour>
  </outline>
</glyph>
<glyph name="M" format="2">
  <advance width="1263"/>
  <unicode hex="004D"/>
  <outline>
    <contour>
      <point x="93" y="0" type="line"/>
      <point x="114" y="0" type="line"/>
      <point x="221" y="676" type="line"/>
      <point x="630" y="293" type="line"/>
      <point x="638" y="293" type="line"/>
      <point x="1170" y="675" type="line"/>
      <point x="1063" y="0" type="line"/>
      <point x="1082" y="0" type="line"/>
      <point x="1193" y="700" type="line"/>
      <point x="1173" y="700" type="line"/>
      <point x="635" y="314" type="line"/>
      <point x="222" y="700" type="line"/>
      <point x="204" y="700" type="line"/>
    </contour>
  </outline>
</glyph>
<glyph name="N" format="2">
  <advance width="1109"/>
  <unicode hex="004E"/>
  <anchor x="500" y="0" name="bottom"/>
  <anchor x="624" y="700" name="top"/>
  <outline>
    <contour>
      <point x="93" y="0" type="line"/>
      <point x="113" y="0" type="line"/>
      <point x="221" y="684" type="line"/>
      <point x="908" y="-10" type="line"/>
      <point x="926" y="-10" type="line"/>
      <point x="1039" y="700" type="line"/>
      <point x="1019" y="700" type="line"/>
      <point x="911" y="15" type="line"/>
      <point x="224" y="710" type="line"/>
      <point x="206" y="710" type="line"/>
    </contour>
  </outline>
</glyph>
<glyph name="S" format="2">
  <advance width="901"/>
  <unicode hex="0053"/>
  <anchor x="405" y="0" name="bottom"/>
  <anchor x="520" y="700" name="top"/>
  <outline>
    <contour>
      <point x="832" y="661" type="line"/>
      <point x="713" y="696"/>
      <point x="639" y="710"/>
      <point x="531" y="710" type="curve" smooth="yes"/>
      <point x="260" y="710"/>
      <point x="130" y="632"/>
      <point x="130" y="511" type="curve" smooth="yes"/>
      <point x="130" y="257"/>
      <point x="797" y="416"/>
      <point x="797" y="177" type="curve" smooth="yes"/>
      <point x="797" y="76"/>
      <point x="692" y="9"/>
      <point x="432" y="9" type="curve" smooth="yes"/>
      <point x="306" y="9"/>
      <point x="141" y="39"/>
      <point x="30" y="78" type="curve"/>
      <point x="22" y="58" type="line"/>
      <point x="159" y="14"/>
      <point x="305" y="-10"/>
      <point x="430" y="-10" type="curve" smooth="yes"/>
      <point x="712" y="-10"/>
      <point x="816" y="61"/>
      <point x="816" y="180" type="curve" smooth="yes"/>
      <point x="816" y="439"/>
      <point x="149" y="279"/>
      <point x="149" y="515" type="curve" smooth="yes"/>
      <point x="149" y="623"/>
      <point x="288" y="691"/>
      <point x="527" y="691" type="curve" smooth="yes"/>
      <point x="630" y="691"/>
      <point x="728" y="674"/>
      <point x="824" y="641" type="curve"/>
    </contour>
  </outline>
</glyph>
<glyph name="U" format="2">
  <advance width="1069"/>
  <unicode hex="0055"/>
  <anchor x="491" y="0" name="bottom"/>
  <anchor x="557" y="0" name="ogonek"/>
  <anchor x="598" y="700" name="top"/>
  <anchor x="1019" y="700" name="topright"/>
  <outline>
    <contour>
      <point x="489" y="-10" type="curve" smooth="yes"/>
      <point x="768" y="-10"/>
      <point x="922" y="88"/>
      <point x="953" y="282" type="curve" smooth="yes"/>
      <point x="1019" y="700" type="line"/>
      <point x="1000" y="700" type="line"/>
      <point x="933" y="282" type="line" smooth="yes"/>
      <point x="904" y="100"/>
      <point x="756" y="9"/>
      <point x="492" y="9" type="curve" smooth="yes"/>
      <point x="242" y="9"/>
      <point x="111" y="106"/>
      <point x="139" y="285" type="curve" smooth="yes"/>
      <point x="204" y="700" type="line"/>
      <point x="185" y="700" type="line"/>
      <point x="120" y="292" type="line" smooth="yes"/>
      <point x="116" y="263"/>
      <point x="115" y="249"/>
      <point x="115" y="236" type="curve" smooth="yes"/>
      <point x="115" y="77"/>
      <point x="249" y="-10"/>
    </contour>
  </outline>
</glyph>
<glyph name="W" format="2">
  <advance width="1345"/>
  <unicode hex="0057"/>
  <anchor x="621" y="0" name="bottom"/>
  <anchor x="732" y="700" name="top"/>
  <outline>
    <contour>
      <point x="967" y="0" type="line"/>
      <point x="1312" y="539"/>
      <point x="1383" y="638"/>
      <point x="1383" y="687" type="curve" smooth="yes"/>
      <point x="1383" y="690"/>
      <point x="1383" y="695"/>
      <point x="1381" y="700" type="curve"/>
      <point x="1361" y="700" type="line"/>
      <point x="1362" y="696"/>
      <point x="1363" y="694"/>
      <point x="1363" y="686" type="curve" smooth="yes"/>
      <point x="1363" y="643"/>
      <point x="1307" y="564"/>
      <point x="960" y="24" type="curve"/>
      <point x="729" y="654" type="line"/>
      <point x="710" y="654" type="line"/>
      <point x="582" y="443"/>
      <point x="454" y="234"/>
      <point x="326" y="23" type="curve"/>
      <point x="96" y="700" type="line"/>
      <point x="75" y="700" type="line"/>
      <point x="314" y="0" type="line"/>
      <point x="333" y="0" type="line"/>
      <point x="461" y="210"/>
      <point x="589" y="421"/>
      <point x="717" y="631" type="curve"/>
      <point x="949" y="0" type="line"/>
    </contour>
  </outline>
</glyph>
<glyph name="X" format="2">
  <advance width="895"/>
  <unicode hex="0058"/>
  <outline>
    <contour>
      <point x="839" y="-8" type="line"/>
      <point x="852" y="5" type="line"/>
      <point x="473" y="375" type="line"/>
      <point x="698" y="494"/>
      <point x="844" y="568"/>
      <point x="904" y="701" type="curve"/>
      <point x="888" y="710" type="line"/>
      <point x="824" y="579"/>
      <point x="690" y="513"/>
      <point x="459" y="389" type="curve"/>
      <point x="131" y="708" type="line"/>
      <point x="115" y="694" type="line"/>
      <point x="439" y="380" type="line"/>
      <point x="204" y="256"/>
      <point x="61" y="171"/>
      <point x="23" y="0" type="curve"/>
      <point x="44" y="0" type="line"/>
      <point x="89" y="169"/>
      <point x="214" y="241"/>
      <point x="453" y="366" type="curve"/>
    </contour>
  </outline>
</glyph>
<glyph name="Z" format="2">
  <advance width="857"/>
  <unicode hex="005A"/>
  <anchor x="394" y="0" name="bottom"/>
  <anchor x="437" y="350" name="center"/>
  <anchor x="491" y="700" name="top"/>
  <outline>
    <contour>
      <point x="-3" y="0" type="line"/>
      <point x="791" y="0" type="line"/>
      <point x="794" y="19" type="line"/>
      <point x="36" y="19" type="line"/>
      <point x="855" y="685" type="line"/>
      <point x="857" y="700" type="line"/>
      <point x="146" y="700" type="line"/>
      <point x="143" y="681" type="line"/>
      <point x="819" y="681" type="line"/>
      <point x="-1" y="15" type="line"/>
    </contour>
  </outline>
</glyph>
<glyph name="bracketleft" format="2">
  <advance width="460"/>
  <unicode hex="005B"/>
  <outline>
    <contour>
      <point x="116" y="-192" type="line"/>
      <point x="261" y="723" type="line"/>
      <point x="507" y="723" type="line"/>
      <point x="510" y="740" type="line"/>
      <point x="245" y="740" type="line"/>
      <point x="94" y="-210" type="line"/>
      <point x="359" y="-210" type="line"/>
      <point x="362" y="-192" type="line"/>
    </contour>
  </outline>
</glyph>
<glyph name="backslash" format="2">
  <advance width="442"/>
  <unicode hex="005C"/>
  <outline>
    <contour>
      <point x="124" y="740" type="line"/>
      <point x="104" y="740" type="line"/>
      <point x="345" y="-210" type="line"/>
      <point x="365" y="-210" type="line"/>
    </contour>
  </outline>
</glyph>
<glyph name="bracketright" format="2">
  <advance width="460"/>
  <unicode hex="005D"/>
  <outline>
    <contour>
      <point x="-49" y="-192" type="line"/>
      <point x="-52" y="-210" type="line"/>
      <point x="212" y="-210" type="line"/>
      <point x="363" y="740" type="line"/>
      <point x="98" y="740" type="line"/>
      <point x="95" y="722" type="line"/>
      <point x="341" y="722" type="line"/>
      <point x="196" y="-192" type="line"/>
    </contour>
  </outline>
</glyph>
<glyph name="underscore" format="2">
  <advance width="1026"/>
  <unicode hex="005F"/>
  <outline>
    <contour>
      <point x="-42" y="-136" type="line"/>
      <point x="938" y="-136" type="line"/>
      <point x="941" y="-118" type="line"/>
      <point x="-39" y="-118" type="line"/>
    </contour>
  </outline>
</glyph>
<glyph name="b" format="2">
  <advance width="787"/>
  <unicode hex="0062"/>
  <note>
12
</note>
  <outline>
    <contour>
      <point x="217" y="740" type="line"/>
      <point x="198" y="740" type="line"/>
      <point x="84" y="21" type="line"/>
      <point x="153" y="5"/>
      <point x="230" y="-10"/>
      <point x="320" y="-10" type="curve" smooth="yes"/>
      <point x="532" y="-10"/>
      <point x="731" y="105"/>
      <point x="731" y="326" type="curve" smooth="yes"/>
      <point x="731" y="454"/>
      <point x="651" y="540"/>
      <point x="495" y="540" type="curve" smooth="yes"/>
      <point x="371" y="540"/>
      <point x="269" y="485"/>
      <point x="165" y="412" type="curve"/>
    </contour>
    <contour>
      <point x="490" y="521" type="curve" smooth="yes"/>
      <point x="639" y="521"/>
      <point x="712" y="441"/>
      <point x="712" y="323" type="curve" smooth="yes"/>
      <point x="712" y="118"/>
      <point x="523" y="9"/>
      <point x="322" y="9" type="curve" smooth="yes"/>
      <point x="233" y="9"/>
      <point x="156" y="25"/>
      <point x="106" y="36" type="curve"/>
      <point x="162" y="388" type="line"/>
      <point x="291" y="481"/>
      <point x="387" y="521"/>
    </contour>
  </outline>
</glyph>
<glyph name="c" format="2">
  <advance width="742"/>
  <unicode hex="0063"/>
  <note>
10
</note>
  <anchor x="391" y="0" name="bottom"/>
  <anchor x="470" y="530" name="top"/>
  <outline>
    <contour>
      <point x="385" y="-10" type="curve" smooth="yes"/>
      <point x="505" y="-10"/>
      <point x="587" y="9"/>
      <point x="658" y="31" type="curve"/>
      <point x="653" y="49" type="line"/>
      <point x="581" y="27"/>
      <point x="506" y="9"/>
      <point x="388" y="9" type="curve" smooth="yes"/>
      <point x="203" y="9"/>
      <point x="80" y="96"/>
      <point x="80" y="221" type="curve" smooth="yes"/>
      <point x="80" y="416"/>
      <point x="237" y="521"/>
      <point x="464" y="521" type="curve" smooth="yes"/>
      <point x="548" y="521"/>
      <point x="633" y="508"/>
      <point x="716" y="483" type="curve"/>
      <point x="722" y="503" type="line"/>
      <point x="638" y="528"/>
      <point x="555" y="540"/>
      <point x="467" y="540" type="curve" smooth="yes"/>
      <point x="225" y="540"/>
      <point x="61" y="430"/>
      <point x="61" y="223" type="curve" smooth="yes"/>
      <point x="61" y="83"/>
      <point x="186" y="-10"/>
    </contour>
  </outline>
</glyph>
<glyph name="f" format="2">
  <advance width="462"/>
  <unicode hex="0066"/>
  <outline>
    <contour>
      <point x="-18" y="-220" type="curve" smooth="yes"/>
      <point x="68" y="-220"/>
      <point x="107" y="-157"/>
      <point x="136" y="27" type="curve" smooth="yes"/>
      <point x="204" y="465" type="line"/>
      <point x="502" y="465" type="line"/>
      <point x="505" y="484" type="line"/>
      <point x="207" y="484" type="line"/>
      <point x="232" y="651"/>
      <point x="303" y="731"/>
      <point x="440" y="731" type="curve" smooth="yes"/>
      <point x="524" y="731"/>
      <point x="573" y="717"/>
      <point x="646" y="695" type="curve"/>
      <point x="652" y="713" type="line"/>
      <point x="575" y="739"/>
      <point x="514" y="750"/>
      <point x="445" y="750" type="curve" smooth="yes"/>
      <point x="295" y="750"/>
      <point x="219" y="671"/>
      <point x="187" y="484" type="curve"/>
      <point x="60" y="479" type="line"/>
      <point x="58" y="465" type="line"/>
      <point x="184" y="465" type="line"/>
      <point x="114" y="15" type="line" smooth="yes"/>
      <point x="88" y="-148"/>
      <point x="57" y="-203"/>
      <point x="-19" y="-203" type="curve" smooth="yes"/>
      <point x="-34" y="-203"/>
      <point x="-49" y="-200"/>
      <point x="-68" y="-193" type="curve"/>
      <point x="-74" y="-210" type="line"/>
      <point x="-53" y="-217"/>
      <point x="-35" y="-220"/>
    </contour>
  </outline>
</glyph>
<glyph name="g" format="2">
  <advance width="788"/>
  <unicode hex="0067"/>
  <note>
16
</note>
  <anchor x="288" y="-220" name="bottom"/>
  <anchor x="438" y="530" name="top"/>
  <outline>
    <contour>
      <point x="26" y="-170" type="line"/>
      <point x="110" y="-201"/>
      <point x="212" y="-220"/>
      <point x="298" y="-220" type="curve" smooth="yes"/>
      <point x="490" y="-220"/>
      <point x="601" y="-123"/>
      <point x="630" y="62" type="curve" smooth="yes"/>
      <point x="699" y="497" type="line"/>
      <point x="640" y="524"/>
      <point x="563" y="540"/>
      <point x="479" y="540" type="curve" smooth="yes"/>
      <point x="217" y="540"/>
      <point x="54" y="410"/>
      <point x="54" y="206" type="curve" smooth="yes"/>
      <point x="54" y="74"/>
      <point x="158" y="-10"/>
      <point x="323" y="-10" type="curve" smooth="yes"/>
      <point x="411" y="-10"/>
      <point x="528" y="27"/>
      <point x="613" y="81" type="curve"/>
      <point x="611" y="67" type="line" smooth="yes"/>
      <point x="586" y="-108"/>
      <point x="478" y="-202"/>
      <point x="295" y="-202" type="curve" smooth="yes"/>
      <point x="210" y="-202"/>
      <point x="109" y="-182"/>
      <point x="35" y="-150" type="curve"/>
    </contour>
    <contour>
      <point x="678" y="484" type="curve"/>
      <point x="618" y="105" type="line"/>
      <point x="539" y="52"/>
      <point x="409" y="9"/>
      <point x="325" y="9" type="curve" smooth="yes"/>
      <point x="169" y="9"/>
      <point x="74" y="86"/>
      <point x="74" y="208" type="curve" smooth="yes"/>
      <point x="74" y="396"/>
      <point x="226" y="521"/>
      <point x="474" y="521" type="curve" smooth="yes"/>
      <point x="576" y="521"/>
      <point x="631" y="501"/>
    </contour>
  </outline>
</glyph>
<glyph name="l" format="2">
  <advance width="337"/>
  <unicode hex="006C"/>
  <anchor x="205" y="0" name="bottom"/>
  <anchor x="149" y="370" name="center"/>
  <anchor x="208" y="740" name="top"/>
  <anchor x="338" y="740" name="topright"/>
  <outline>
    <contour>
      <point x="198" y="740" type="line"/>
      <point x="106" y="161" type="line" smooth="yes"/>
      <point x="104" y="148"/>
      <point x="100" y="121"/>
      <point x="100" y="97" type="curve" smooth="yes"/>
      <point x="100" y="40"/>
      <point x="130" y="-10"/>
      <point x="209" y="-10" type="curve" smooth="yes"/>
      <point x="246" y="-10"/>
      <point x="277" y="-4"/>
      <point x="304" y="3" type="curve"/>
      <point x="299" y="22" type="line"/>
      <point x="272" y="15"/>
      <point x="245" y="9"/>
      <point x="212" y="9" type="curve" smooth="yes"/>
      <point x="137" y="9"/>
      <point x="120" y="58"/>
      <point x="120" y="99" type="curve" smooth="yes"/>
      <point x="120" y="127"/>
      <point x="124" y="151"/>
      <point x="126" y="161" type="curve" smooth="yes"/>
      <point x="218" y="740" type="line"/>
    </contour>
  </outline>
</glyph>
<glyph name="m" format="2">
  <advance width="1257"/>
  <unicode hex="006D"/>
  <note>
24&gt;23 points
un point de trop dans la jointure avec 2e jambage
</note>
  <outline>
    <contour>
      <point x="1161" y="-10" type="curve" smooth="yes"/>
      <point x="1174" y="-10"/>
      <point x="1195" y="-8"/>
      <point x="1211" y="-1" type="curve"/>
      <point x="1207" y="17" type="line"/>
      <point x="1194" y="12"/>
      <point x="1176" y="9"/>
      <point x="1160" y="9" type="curve" smooth="yes"/>
      <point x="1128" y="9"/>
      <point x="1106" y="28"/>
      <point x="1106" y="68" type="curve" smooth="yes"/>
      <point x="1106" y="119"/>
      <point x="1146" y="304"/>
      <point x="1146" y="381" type="curve" smooth="yes"/>
      <point x="1146" y="482"/>
      <point x="1084" y="540"/>
      <point x="958" y="540" type="curve" smooth="yes"/>
      <point x="839" y="540"/>
      <point x="741" y="488"/>
      <point x="642" y="432" type="curve"/>
      <point x="624" y="497"/>
      <point x="571" y="540"/>
      <point x="473" y="540" type="curve" smooth="yes"/>
      <point x="365" y="540"/>
      <point x="270" y="494"/>
      <point x="170" y="436" type="curve"/>
      <point x="183" y="530" type="line"/>
      <point x="164" y="530" type="line"/>
      <point x="81" y="0" type="line"/>
      <point x="100" y="0" type="line"/>
      <point x="166" y="412" type="line"/>
      <point x="281" y="479"/>
      <point x="372" y="521"/>
      <point x="469" y="521" type="curve" smooth="yes"/>
      <point x="598" y="521"/>
      <point x="631" y="450"/>
      <point x="631" y="370" type="curve" smooth="yes"/>
      <point x="631" y="355"/>
      <point x="629" y="337"/>
      <point x="580" y="0" type="curve"/>
      <point x="599" y="0" type="line"/>
      <point x="648" y="334"/>
      <point x="650" y="357"/>
      <point x="650" y="373" type="curve" smooth="yes"/>
      <point x="650" y="386"/>
      <point x="649" y="399"/>
      <point x="647" y="412" type="curve"/>
      <point x="751" y="474"/>
      <point x="844" y="521"/>
      <point x="956" y="521" type="curve" smooth="yes"/>
      <point x="1079" y="521"/>
      <point x="1125" y="465"/>
      <point x="1125" y="376" type="curve" smooth="yes"/>
      <point x="1125" y="285"/>
      <point x="1087" y="120"/>
      <point x="1087" y="66" type="curve" smooth="yes"/>
      <point x="1087" y="15"/>
      <point x="1116" y="-10"/>
    </contour>
  </outline>
</glyph>
<glyph name="n" format="2">
  <advance width="830"/>
  <unicode hex="006E"/>
  <note>
16
</note>
  <anchor x="393" y="0" name="bottom"/>
  <anchor x="442" y="530" name="top"/>
  <outline>
    <contour>
      <point x="164" y="530" type="line"/>
      <point x="81" y="0" type="line"/>
      <point x="100" y="0" type="line"/>
      <point x="165" y="411" type="line"/>
      <point x="301" y="476"/>
      <point x="393" y="521"/>
      <point x="528" y="521" type="curve" smooth="yes"/>
      <point x="648" y="521"/>
      <point x="697" y="465"/>
      <point x="697" y="376" type="curve" smooth="yes"/>
      <point x="697" y="285"/>
      <point x="659" y="120"/>
      <point x="659" y="66" type="curve" smooth="yes"/>
      <point x="659" y="15"/>
      <point x="689" y="-10"/>
      <point x="734" y="-10" type="curve" smooth="yes"/>
      <point x="747" y="-10"/>
      <point x="768" y="-8"/>
      <point x="784" y="-1" type="curve"/>
      <point x="780" y="17" type="line"/>
      <point x="767" y="12"/>
      <point x="749" y="9"/>
      <point x="733" y="9" type="curve" smooth="yes"/>
      <point x="701" y="9"/>
      <point x="678" y="29"/>
      <point x="678" y="69" type="curve" smooth="yes"/>
      <point x="678" y="120"/>
      <point x="718" y="304"/>
      <point x="718" y="381" type="curve" smooth="yes"/>
      <point x="718" y="482"/>
      <point x="657" y="540"/>
      <point x="531" y="540" type="curve" smooth="yes"/>
      <point x="396" y="540"/>
      <point x="298" y="495"/>
      <point x="168" y="433" type="curve"/>
      <point x="183" y="530" type="line"/>
    </contour>
  </outline>
</glyph>
<glyph name="o" format="2">
  <advance width="831"/>
  <unicode hex="006F"/>
  <note>
8
</note>
  <anchor x="400" y="0" name="bottom"/>
  <anchor x="416" y="275" name="center"/>
  <anchor x="485" y="0" name="ogonek"/>
  <anchor x="437" y="530" name="top"/>
  <anchor x="552" y="530" name="topright"/>
  <outline>
    <contour>
      <point x="404" y="-10" type="curve" smooth="yes"/>
      <point x="640" y="-10"/>
      <point x="764" y="96"/>
      <point x="764" y="297" type="curve" smooth="yes"/>
      <point x="764" y="458"/>
      <point x="648" y="540"/>
      <point x="424" y="540" type="curve" smooth="yes"/>
      <point x="188" y="540"/>
      <point x="64" y="434"/>
      <point x="64" y="233" type="curve" smooth="yes"/>
      <point x="64" y="72"/>
      <point x="180" y="-10"/>
    </contour>
    <contour>
      <point x="404" y="9" type="curve" smooth="yes"/>
      <point x="194" y="9"/>
      <point x="83" y="86"/>
      <point x="83" y="233" type="curve" smooth="yes"/>
      <point x="83" y="423"/>
      <point x="198" y="521"/>
      <point x="424" y="521" type="curve" smooth="yes"/>
      <point x="634" y="521"/>
      <point x="745" y="444"/>
      <point x="745" y="297" type="curve" smooth="yes"/>
      <point x="745" y="107"/>
      <point x="630" y="9"/>
    </contour>
  </outline>
</glyph>
<glyph name="p" format="2">
  <advance width="788"/>
  <unicode hex="0070"/>
  <note>
14 point
</note>
  <outline>
    <contour>
      <point x="48" y="-210" type="line"/>
      <point x="67" y="-210" type="line"/>
      <point x="103" y="16" type="line"/>
      <point x="157" y="4"/>
      <point x="226" y="-10"/>
      <point x="313" y="-10" type="curve" smooth="yes"/>
      <point x="557" y="-10"/>
      <point x="731" y="122"/>
      <point x="731" y="323" type="curve" smooth="yes"/>
      <point x="731" y="462"/>
      <point x="644" y="540"/>
      <point x="497" y="540" type="curve" smooth="yes"/>
      <point x="371" y="540"/>
      <point x="272" y="486"/>
      <point x="165" y="413" type="curve"/>
      <point x="183" y="530" type="line"/>
      <point x="164" y="530" type="line"/>
    </contour>
    <contour>
      <point x="314" y="9" type="curve" smooth="yes"/>
      <point x="225" y="9"/>
      <point x="156" y="26"/>
      <point x="106" y="37" type="curve"/>
      <point x="161" y="387" type="line"/>
      <point x="282" y="476"/>
      <point x="384" y="521"/>
      <point x="490" y="521" type="curve" smooth="yes"/>
      <point x="632" y="521"/>
      <point x="712" y="450"/>
      <point x="712" y="319" type="curve" smooth="yes"/>
      <point x="712" y="132"/>
      <point x="544" y="9"/>
    </contour>
  </outline>
</glyph>
<glyph name="r" format="2">
  <advance width="578"/>
  <unicode hex="0072"/>
  <anchor x="90" y="0" name="bottom"/>
  <anchor x="367" y="530" name="top"/>
  <outline>
    <contour>
      <point x="182" y="530" type="line"/>
      <point x="164" y="530" type="line"/>
      <point x="81" y="0" type="line"/>
      <point x="99" y="0" type="line"/>
      <point x="159" y="379" type="line"/>
      <point x="278" y="482"/>
      <point x="381" y="521"/>
      <point x="470" y="521" type="curve" smooth="yes"/>
      <point x="509" y="521"/>
      <point x="556" y="514"/>
      <point x="589" y="504" type="curve"/>
      <point x="595" y="522" type="line"/>
      <point x="569" y="531"/>
      <point x="521" y="540"/>
      <point x="469" y="540" type="curve" smooth="yes"/>
      <point x="378" y="540"/>
      <point x="286" y="505"/>
      <point x="163" y="408" type="curve"/>
    </contour>
  </outline>
</glyph>
<glyph name="u" format="2">
  <advance width="804"/>
  <unicode hex="0075"/>
  <note>
15
</note>
  <anchor x="348" y="0" name="bottom"/>
  <anchor x="743" y="0" name="ogonek"/>
  <anchor x="426" y="530" name="top"/>
  <anchor x="708" y="530" name="topright"/>
  <outline>
    <contour>
      <point x="281" y="-10" type="curve" smooth="yes"/>
      <point x="407" y="-10"/>
      <point x="501" y="26"/>
      <point x="624" y="89" type="curve"/>
      <point x="624" y="17"/>
      <point x="651" y="-10"/>
      <point x="701" y="-10" type="curve" smooth="yes"/>
      <point x="709" y="-10"/>
      <point x="729" y="-7"/>
      <point x="743" y="0" type="curve"/>
      <point x="740" y="17" type="line"/>
      <point x="726" y="12"/>
      <point x="709" y="9"/>
      <point x="702" y="9" type="curve" smooth="yes"/>
      <point x="664" y="9"/>
      <point x="643" y="28"/>
      <point x="643" y="86" type="curve" smooth="yes"/>
      <point x="643" y="100"/>
      <point x="644" y="130"/>
      <point x="708" y="530" type="curve"/>
      <point x="688" y="530" type="line"/>
      <point x="625" y="108" type="line"/>
      <point x="500" y="45"/>
      <point x="410" y="9"/>
      <point x="285" y="9" type="curve" smooth="yes"/>
      <point x="177" y="9"/>
      <point x="125" y="60"/>
      <point x="125" y="140" type="curve" smooth="yes"/>
      <point x="125" y="154"/>
      <point x="126" y="182"/>
      <point x="181" y="530" type="curve"/>
      <point x="162" y="530" type="line"/>
      <point x="107" y="170"/>
      <point x="106" y="151"/>
      <point x="106" y="139" type="curve" smooth="yes"/>
      <point x="106" y="50"/>
      <point x="162" y="-10"/>
    </contour>
  </outline>
</glyph>
<glyph name="w" format="2">
  <advance width="1002"/>
  <unicode hex="0077"/>
  <note>
15
</note>
  <anchor x="478" y="0" name="bottom"/>
  <anchor x="525" y="530" name="top"/>
  <outline>
    <contour>
      <point x="721" y="0" type="line"/>
      <point x="980" y="406"/>
      <point x="1019" y="484"/>
      <point x="1019" y="530" type="curve"/>
      <point x="1001" y="530" type="line"/>
      <point x="1001" y="490"/>
      <point x="972" y="432"/>
      <point x="714" y="20" type="curve"/>
      <point x="538" y="530" type="line"/>
      <point x="519" y="530" type="line"/>
      <point x="431" y="361"/>
      <point x="342" y="191"/>
      <point x="254" y="22" type="curve"/>
      <point x="62" y="540" type="line"/>
      <point x="44" y="533" type="line"/>
      <point x="244" y="0" type="line"/>
      <point x="263" y="0" type="line"/>
      <point x="351" y="169"/>
      <point x="439" y="338"/>
      <point x="527" y="507" type="curve"/>
      <point x="702" y="0" type="line"/>
    </contour>
  </outline>
</glyph>
<glyph name="braceright" format="2">
  <advance width="460"/>
  <unicode hex="007D"/>
  <outline>
    <contour>
      <point x="318" y="630" type="curve" smooth="yes"/>
      <point x="318" y="689"/>
      <point x="286" y="740"/>
      <point x="173" y="740" type="curve" smooth="yes"/>
      <point x="112" y="740" type="line"/>
      <point x="109" y="720" type="line"/>
      <point x="170" y="720" type="line" smooth="yes"/>
      <point x="269" y="720"/>
      <point x="298" y="676"/>
      <point x="298" y="626" type="curve" smooth="yes"/>
      <point x="298" y="535"/>
      <point x="226" y="451"/>
      <point x="226" y="340" type="curve" smooth="yes"/>
      <point x="226" y="306"/>
      <point x="241" y="278"/>
      <point x="272" y="266" type="curve"/>
      <point x="208" y="256"/>
      <point x="189" y="183"/>
      <point x="189" y="93" type="curve" smooth="yes"/>
      <point x="189" y="52"/>
      <point x="193" y="12"/>
      <point x="193" y="-19" type="curve" smooth="yes"/>
      <point x="193" y="-88"/>
      <point x="175" y="-190"/>
      <point x="25" y="-190" type="curve" smooth="yes"/>
      <point x="-36" y="-190" type="line"/>
      <point x="-39" y="-210" type="line"/>
      <point x="22" y="-210" type="line" smooth="yes"/>
      <point x="187" y="-210"/>
      <point x="214" y="-99"/>
      <point x="214" y="-19" type="curve" smooth="yes"/>
      <point x="214" y="10"/>
      <point x="210" y="56"/>
      <point x="210" y="102" type="curve" smooth="yes"/>
      <point x="210" y="190"/>
      <point x="229" y="256"/>
      <point x="302" y="256" type="curve" smooth="yes"/>
      <point x="320" y="256" type="line"/>
      <point x="323" y="275" type="line"/>
      <point x="304" y="275" type="line" smooth="yes"/>
      <point x="263" y="275"/>
      <point x="245" y="304"/>
      <point x="245" y="338" type="curve" smooth="yes"/>
      <point x="245" y="455"/>
      <point x="318" y="532"/>
    </contour>
  </outline>
</glyph>
<glyph name="cent" format="2">
  <advance width="1034"/>
  <unicode hex="00A2"/>
  <outline>
    <contour>
      <point x="488" y="-105" type="line"/>
      <point x="506" y="-105" type="line"/>
      <point x="521" y="-9" type="line"/>
      <point x="654" y="-4"/>
      <point x="758" y="19"/>
      <point x="803" y="31" type="curve"/>
      <point x="798" y="50" type="line"/>
      <point x="747" y="37"/>
      <point x="618" y="9"/>
      <point x="519" y="9" type="curve" smooth="yes"/>
      <point x="328" y="9"/>
      <point x="225" y="85"/>
      <point x="225" y="234" type="curve" smooth="yes"/>
      <point x="225" y="401"/>
      <point x="359" y="521"/>
      <point x="609" y="521" type="curve" smooth="yes"/>
      <point x="719" y="521"/>
      <point x="803" y="501"/>
      <point x="861" y="483" type="curve"/>
      <point x="867" y="503" type="line"/>
      <point x="793" y="525"/>
      <point x="711" y="540"/>
      <point x="608" y="540" type="curve"/>
      <point x="623" y="635" type="line"/>
      <point x="605" y="635" type="line"/>
      <point x="590" y="539" type="line"/>
      <point x="335" y="531"/>
      <point x="206" y="406"/>
      <point x="206" y="236" type="curve" smooth="yes"/>
      <point x="206" y="63"/>
      <point x="331" y="-9"/>
      <point x="502" y="-9" type="curve"/>
    </contour>
  </outline>
</glyph>
<glyph name="sterling" format="2">
  <advance width="1034"/>
  <unicode hex="00A3"/>
  <outline>
    <contour>
      <point x="117" y="0" type="line"/>
      <point x="887" y="0" type="line"/>
      <point x="890" y="20" type="line"/>
      <point x="151" y="20" type="line"/>
      <point x="289" y="111"/>
      <point x="340" y="170"/>
      <point x="340" y="256" type="curve" smooth="yes"/>
      <point x="340" y="328"/>
      <point x="281" y="389"/>
      <point x="281" y="460" type="curve" smooth="yes"/>
      <point x="281" y="612"/>
      <point x="438" y="692"/>
      <point x="638" y="692" type="curve" smooth="yes"/>
      <point x="732" y="692"/>
      <point x="836" y="682"/>
      <point x="948" y="651" type="curve"/>
      <point x="954" y="668" type="line"/>
      <point x="843" y="702"/>
      <point x="719" y="710"/>
      <point x="639" y="710" type="curve" smooth="yes"/>
      <point x="425" y="710"/>
      <point x="262" y="625"/>
      <point x="262" y="456" type="curve" smooth="yes"/>
      <point x="262" y="381"/>
      <point x="321" y="326"/>
      <point x="321" y="254" type="curve" smooth="yes"/>
      <point x="321" y="163"/>
      <point x="237" y="101"/>
      <point x="120" y="20" type="curve"/>
    </contour>
    <contour>
      <point x="132" y="365" type="line"/>
      <point x="794" y="367" type="line"/>
      <point x="797" y="384" type="line"/>
      <point x="135" y="384" type="line"/>
    </contour>
  </outline>
</glyph>
<glyph name="currency" format="2">
  <advance width="416"/>
  <unicode hex="00A4"/>
  <outline>
    <contour>
      <point x="39" y="113" type="line"/>
      <point x="117" y="188" type="line"/>
      <point x="135" y="168"/>
      <point x="159" y="157"/>
      <point x="189" y="157" type="curve" smooth="yes"/>
      <point x="218" y="157"/>
      <point x="247" y="169"/>
      <point x="271" y="188" type="curve"/>
      <point x="327" y="113" type="line"/>
      <point x="341" y="127" type="line"/>
      <point x="286" y="202" type="line"/>
      <point x="312" y="231"/>
      <point x="330" y="270"/>
      <point x="330" y="314" type="curve" smooth="yes"/>
      <point x="330" y="337"/>
      <point x="324" y="359"/>
      <point x="313" y="376" type="curve"/>
      <point x="392" y="451" type="line"/>
      <point x="382" y="465" type="line"/>
      <point x="303" y="390" type="line"/>
      <point x="286" y="410"/>
      <point x="260" y="422"/>
      <point x="231" y="422" type="curve" smooth="yes"/>
      <point x="201" y="422"/>
      <point x="173" y="410"/>
      <point x="149" y="390" type="curve"/>
      <point x="94" y="465" type="line"/>
      <point x="80" y="451" type="line"/>
      <point x="134" y="376" type="line"/>
      <point x="107" y="348"/>
      <point x="90" y="309"/>
      <point x="90" y="266" type="curve" smooth="yes"/>
      <point x="90" y="241"/>
      <point x="96" y="219"/>
      <point x="107" y="201" type="curve"/>
      <point x="29" y="127" type="line"/>
    </contour>
    <contour>
      <point x="193" y="177" type="curve" smooth="yes"/>
      <point x="143" y="177"/>
      <point x="109" y="217"/>
      <point x="109" y="271" type="curve" smooth="yes"/>
      <point x="109" y="342"/>
      <point x="168" y="402"/>
      <point x="228" y="402" type="curve" smooth="yes"/>
      <point x="278" y="402"/>
      <point x="312" y="363"/>
      <point x="312" y="310" type="curve" smooth="yes"/>
      <point x="312" y="239"/>
      <point x="255" y="177"/>
    </contour>
  </outline>
</glyph>
<glyph name="brokenbar" format="2">
  <advance width="302"/>
  <unicode hex="00A6"/>
  <outline>
    <contour>
      <point x="178" y="391" type="line"/>
      <point x="242" y="790" type="line"/>
      <point x="224" y="790" type="line"/>
      <point x="160" y="391" type="line"/>
    </contour>
    <contour>
      <point x="129" y="190" type="line"/>
      <point x="65" y="-210" type="line"/>
      <point x="83" y="-210" type="line"/>
      <point x="147" y="190" type="line"/>
    </contour>
  </outline>
</glyph>
<glyph name="section" format="2">
  <advance width="650"/>
  <unicode hex="00A7"/>
  <outline>
    <contour>
      <point x="11" y="-109" type="curve"/>
      <point x="-3" y="-125" type="line"/>
      <point x="60" y="-187"/>
      <point x="125" y="-220"/>
      <point x="223" y="-220" type="curve" smooth="yes"/>
      <point x="386" y="-220"/>
      <point x="554" y="-138"/>
      <point x="554" y="77" type="curve" smooth="yes"/>
      <point x="554" y="262"/>
      <point x="391" y="426"/>
      <point x="391" y="592" type="curve" smooth="yes"/>
      <point x="391" y="665"/>
      <point x="430" y="724"/>
      <point x="524" y="724" type="curve" smooth="yes"/>
      <point x="572" y="724"/>
      <point x="606" y="710"/>
      <point x="638" y="699" type="curve"/>
      <point x="646" y="719" type="line"/>
      <point x="593" y="739"/>
      <point x="528" y="750"/>
      <point x="461" y="750" type="curve" smooth="yes"/>
      <point x="291" y="750"/>
      <point x="117" y="642"/>
      <point x="117" y="406" type="curve" smooth="yes"/>
      <point x="117" y="221"/>
      <point x="273" y="61"/>
      <point x="273" y="-59" type="curve" smooth="yes"/>
      <point x="273" y="-141"/>
      <point x="207" y="-185"/>
      <point x="149" y="-185" type="curve" smooth="yes"/>
      <point x="93" y="-185"/>
      <point x="45" y="-146"/>
    </contour>
    <contour>
      <point x="477" y="736" type="curve"/>
      <point x="406" y="718"/>
      <point x="373" y="659"/>
      <point x="373" y="589" type="curve" smooth="yes"/>
      <point x="373" y="425"/>
      <point x="536" y="249"/>
      <point x="536" y="74" type="curve" smooth="yes"/>
      <point x="536" y="-132"/>
      <point x="340" y="-226"/>
      <point x="171" y="-200" type="curve"/>
      <point x="243" y="-189"/>
      <point x="292" y="-129"/>
      <point x="292" y="-61" type="curve" smooth="yes"/>
      <point x="292" y="82"/>
      <point x="138" y="215"/>
      <point x="138" y="407" type="curve" smooth="yes"/>
      <point x="138" y="607"/>
      <point x="273" y="731"/>
    </contour>
  </outline>
</glyph>
<glyph name="copyright" format="2">
  <advance width="1002"/>
  <unicode hex="00A9"/>
  <outline>
    <contour>
      <point x="483" y="-9" type="curve" smooth="yes"/>
      <point x="759" y="-9"/>
      <point x="941" y="120"/>
      <point x="941" y="397" type="curve" smooth="yes"/>
      <point x="941" y="630"/>
      <point x="740" y="709"/>
      <point x="533" y="709" type="curve" smooth="yes"/>
      <point x="260" y="709"/>
      <point x="85" y="577"/>
      <point x="85" y="302" type="curve" smooth="yes"/>
      <point x="85" y="68"/>
      <point x="284" y="-9"/>
    </contour>
    <contour>
      <point x="502" y="186" type="curve" smooth="yes"/>
      <point x="571" y="186"/>
      <point x="620" y="197"/>
      <point x="663" y="211" type="curve"/>
      <point x="659" y="229" type="line"/>
      <point x="615" y="216"/>
      <point x="571" y="205"/>
      <point x="501" y="205" type="curve" smooth="yes"/>
      <point x="399" y="205"/>
      <point x="324" y="256"/>
      <point x="324" y="324" type="curve" smooth="yes"/>
      <point x="324" y="436"/>
      <point x="415" y="497"/>
      <point x="546" y="497" type="curve" smooth="yes"/>
      <point x="597" y="497"/>
      <point x="645" y="489"/>
      <point x="694" y="474" type="curve"/>
      <point x="701" y="493" type="line"/>
      <point x="651" y="508"/>
      <point x="601" y="516"/>
      <point x="548" y="516" type="curve" smooth="yes"/>
      <point x="403" y="516"/>
      <point x="305" y="450"/>
      <point x="305" y="326" type="curve" smooth="yes"/>
      <point x="305" y="241"/>
      <point x="381" y="186"/>
    </contour>
    <contour>
      <point x="486" y="10" type="curve" smooth="yes"/>
      <point x="293" y="10"/>
      <point x="104" y="85"/>
      <point x="104" y="306" type="curve" smooth="yes"/>
      <point x="104" y="563"/>
      <point x="270" y="690"/>
      <point x="531" y="690" type="curve" smooth="yes"/>
      <point x="729" y="690"/>
      <point x="922" y="615"/>
      <point x="922" y="391" type="curve" smooth="yes"/>
      <point x="922" y="132"/>
      <point x="749" y="10"/>
    </contour>
  </outline>
</glyph>
<glyph name="degree" format="2">
  <advance width="246"/>
  <unicode hex="00B0"/>
  <outline>
    <contour>
      <point x="162" y="520" type="curve" smooth="yes"/>
      <point x="219" y="520"/>
      <point x="272" y="568"/>
      <point x="272" y="640" type="curve" smooth="yes"/>
      <point x="272" y="689"/>
      <point x="240" y="728"/>
      <point x="194" y="728" type="curve" smooth="yes"/>
      <point x="138" y="728"/>
      <point x="84" y="675"/>
      <point x="84" y="605" type="curve" smooth="yes"/>
      <point x="84" y="557"/>
      <point x="116" y="520"/>
    </contour>
    <contour>
      <point x="165" y="540" type="curve" smooth="yes"/>
      <point x="128" y="540"/>
      <point x="103" y="570"/>
      <point x="103" y="609" type="curve" smooth="yes"/>
      <point x="103" y="667"/>
      <point x="146" y="708"/>
      <point x="191" y="708" type="curve" smooth="yes"/>
      <point x="231" y="708"/>
      <point x="254" y="677"/>
      <point x="254" y="637" type="curve" smooth="yes"/>
      <point x="254" y="582"/>
      <point x="210" y="540"/>
    </contour>
  </outline>
</glyph>
<glyph name="uni00B2" format="2">
  <advance width="619"/>
  <unicode hex="00B2"/>
  <outline>
    <contour>
      <point x="103" y="370" type="line"/>
      <point x="547" y="370" type="line"/>
      <point x="547" y="386" type="line"/>
      <point x="145" y="386" type="line"/>
      <point x="330" y="482"/>
      <point x="502" y="536"/>
      <point x="502" y="667" type="curve" smooth="yes"/>
      <point x="502" y="735"/>
      <point x="452" y="770"/>
      <point x="362" y="770" type="curve" smooth="yes"/>
      <point x="303" y="770"/>
      <point x="236" y="753"/>
      <point x="187" y="733" type="curve"/>
      <point x="192" y="716" type="line"/>
      <point x="239" y="738"/>
      <point x="304" y="754"/>
      <point x="361" y="754" type="curve" smooth="yes"/>
      <point x="441" y="754"/>
      <point x="485" y="723"/>
      <point x="485" y="665" type="curve" smooth="yes"/>
      <point x="485" y="558"/>
      <point x="334" y="499"/>
      <point x="103" y="384" type="curve"/>
    </contour>
  </outline>
</glyph>
<glyph name="ordmasculine" format="2">
  <advance width="493"/>
  <unicode hex="00BA"/>
  <outline>
    <contour>
      <point x="48" y="275" type="line"/>
      <point x="438" y="275" type="line"/>
      <point x="441" y="293" type="line"/>
      <point x="51" y="293" type="line"/>
    </contour>
    <component base="o.superior" xOffset="8"/>
  </outline>
</glyph>
<glyph name="multiply" format="2">
  <advance width="513"/>
  <unicode hex="00D7"/>
  <outline>
    <contour>
      <point x="53" y="77" type="line"/>
      <point x="258" y="273" type="line"/>
      <point x="396" y="83" type="line"/>
      <point x="409" y="97" type="line"/>
      <point x="271" y="287" type="line"/>
      <point x="478" y="483" type="line"/>
      <point x="467" y="498" type="line"/>
      <point x="260" y="302" type="line"/>
      <point x="117" y="498" type="line"/>
      <point x="104" y="484" type="line"/>
      <point x="247" y="288" type="line"/>
      <point x="42" y="92" type="line"/>
    </contour>
  </outline>
</glyph>
<glyph name="germandbls" format="2">
  <advance width="862"/>
  <unicode hex="00DF"/>
  <outline>
    <contour>
      <point x="100" y="-66" type="line"/>
      <point x="86" y="-154"/>
      <point x="57" y="-203"/>
      <point x="-4" y="-203" type="curve" smooth="yes"/>
      <point x="-19" y="-203"/>
      <point x="-41" y="-201"/>
      <point x="-67" y="-190" type="curve"/>
      <point x="-72" y="-207" type="line"/>
      <point x="-53" y="-217"/>
      <point x="-14" y="-220"/>
      <point x="-3" y="-220" type="curve" smooth="yes"/>
      <point x="68" y="-220"/>
      <point x="103" y="-166"/>
      <point x="118" y="-71" type="curve" smooth="yes"/>
      <point x="207" y="484" type="line" smooth="yes"/>
      <point x="236" y="662"/>
      <point x="320" y="734"/>
      <point x="519" y="734" type="curve" smooth="yes"/>
      <point x="659" y="734"/>
      <point x="727" y="702"/>
      <point x="727" y="637" type="curve" smooth="yes"/>
      <point x="727" y="582"/>
      <point x="681" y="550"/>
      <point x="537" y="531" type="curve" smooth="yes"/>
      <point x="371" y="509"/>
      <point x="311" y="469"/>
      <point x="311" y="389" type="curve" smooth="yes"/>
      <point x="311" y="306"/>
      <point x="376" y="276"/>
      <point x="585" y="254" type="curve" smooth="yes"/>
      <point x="752" y="236"/>
      <point x="813" y="205"/>
      <point x="813" y="138" type="curve" smooth="yes"/>
      <point x="813" y="51"/>
      <point x="705" y="9"/>
      <point x="525" y="9" type="curve" smooth="yes"/>
      <point x="439" y="9"/>
      <point x="324" y="30"/>
      <point x="238" y="62" type="curve"/>
      <point x="229" y="42" type="line"/>
      <point x="317" y="10"/>
      <point x="434" y="-11"/>
      <point x="522" y="-11" type="curve" smooth="yes"/>
      <point x="721" y="-11"/>
      <point x="832" y="35"/>
      <point x="832" y="141" type="curve" smooth="yes"/>
      <point x="832" y="213"/>
      <point x="765" y="253"/>
      <point x="575" y="273" type="curve" smooth="yes"/>
      <point x="386" y="293"/>
      <point x="330" y="319"/>
      <point x="330" y="391" type="curve" smooth="yes"/>
      <point x="330" y="459"/>
      <point x="382" y="493"/>
      <point x="536" y="514" type="curve" smooth="yes"/>
      <point x="701" y="536"/>
      <point x="746" y="571"/>
      <point x="746" y="641" type="curve" smooth="yes"/>
      <point x="746" y="714"/>
      <point x="672" y="750"/>
      <point x="513" y="750" type="curve" smooth="yes"/>
      <point x="314" y="750"/>
      <point x="222" y="675"/>
      <point x="190" y="493" type="curve" smooth="yes"/>
      <point x="189" y="484" type="line"/>
      <point x="36" y="475" type="line"/>
      <point x="33" y="464" type="line"/>
      <point x="184" y="464" type="line"/>
    </contour>
  </outline>
</glyph>
<glyph name="ae" format="2">
  <advance width="1348"/>
  <unicode hex="00E6"/>
  <anchor x="626" y="0" name="bottom"/>
  <anchor x="695" y="530" name="top"/>
  <outline>
    <contour>
      <point x="320" y="-10" type="curve" smooth="yes"/>
      <point x="431" y="-10"/>
      <point x="546" y="33"/>
      <point x="617" y="80" type="curve"/>
      <point x="604" y="0" type="line"/>
      <point x="623" y="0" type="line"/>
      <point x="647" y="155" type="line"/>
      <point x="670" y="45"/>
      <point x="764" y="-10"/>
      <point x="923" y="-10" type="curve" smooth="yes"/>
      <point x="1028" y="-10"/>
      <point x="1165" y="16"/>
      <point x="1259" y="53" type="curve"/>
      <point x="1253" y="71" type="line"/>
      <point x="1152" y="33"/>
      <point x="1022" y="9"/>
      <point x="924" y="9" type="curve" smooth="yes"/>
      <point x="754" y="9"/>
      <point x="660" y="80"/>
      <point x="660" y="207" type="curve" smooth="yes"/>
      <point x="660" y="390"/>
      <point x="816" y="521"/>
      <point x="1057" y="521" type="curve" smooth="yes"/>
      <point x="1204" y="521"/>
      <point x="1284" y="479"/>
      <point x="1284" y="401" type="curve" smooth="yes"/>
      <point x="1284" y="310"/>
      <point x="1156" y="259"/>
      <point x="928" y="259" type="curve" smooth="yes"/>
      <point x="833" y="259"/>
      <point x="734" y="269"/>
      <point x="659" y="287" type="curve"/>
      <point x="655" y="267" type="line"/>
      <point x="728" y="250"/>
      <point x="829" y="240"/>
      <point x="922" y="240" type="curve" smooth="yes"/>
      <point x="1172" y="240"/>
      <point x="1303" y="297"/>
      <point x="1303" y="405" type="curve" smooth="yes"/>
      <point x="1303" y="490"/>
      <point x="1213" y="540"/>
      <point x="1058" y="540" type="curve" smooth="yes"/>
      <point x="883" y="540"/>
      <point x="745" y="473"/>
      <point x="679" y="358" type="curve"/>
      <point x="707" y="530" type="line"/>
      <point x="688" y="530" type="line"/>
      <point x="679" y="479" type="line"/>
      <point x="615" y="518"/>
      <point x="531" y="540"/>
      <point x="450" y="540" type="curve" smooth="yes"/>
      <point x="237" y="540"/>
      <point x="55" y="431"/>
      <point x="55" y="213" type="curve" smooth="yes"/>
      <point x="55" y="72"/>
      <point x="153" y="-10"/>
    </contour>
    <contour>
      <point x="325" y="9" type="curve" smooth="yes"/>
      <point x="168" y="9"/>
      <point x="75" y="85"/>
      <point x="75" y="213" type="curve" smooth="yes"/>
      <point x="75" y="434"/>
      <point x="268" y="522"/>
      <point x="447" y="522" type="curve" smooth="yes"/>
      <point x="532" y="522"/>
      <point x="608" y="502"/>
      <point x="677" y="459" type="curve"/>
      <point x="621" y="103" type="line"/>
      <point x="538" y="47"/>
      <point x="423" y="9"/>
    </contour>
  </outline>
</glyph>
<glyph name="eth" format="2">
  <advance width="900"/>
  <unicode hex="00F0"/>
  <outline>
    <contour>
      <point x="834" y="391" type="curve"/>
      <point x="837" y="410" type="line"/>
      <point x="759" y="493"/>
      <point x="612" y="535"/>
      <point x="452" y="535" type="curve" smooth="yes"/>
      <point x="222" y="535"/>
      <point x="65" y="444"/>
      <point x="65" y="250" type="curve" smooth="yes"/>
      <point x="65" y="47"/>
      <point x="218" y="-10"/>
      <point x="414" y="-10" type="curve" smooth="yes"/>
      <point x="649" y="-10"/>
      <point x="807" y="93"/>
      <point x="842" y="318" type="curve" smooth="yes"/>
      <point x="846" y="341"/>
      <point x="847" y="363"/>
      <point x="847" y="385" type="curve" smooth="yes"/>
      <point x="847" y="591"/>
      <point x="678" y="710"/>
      <point x="387" y="710" type="curve" smooth="yes"/>
      <point x="298" y="710"/>
      <point x="240" y="700"/>
      <point x="168" y="687" type="curve"/>
      <point x="171" y="668" type="line"/>
      <point x="237" y="679"/>
      <point x="295" y="691"/>
      <point x="386" y="691" type="curve" smooth="yes"/>
      <point x="668" y="691"/>
      <point x="827" y="580"/>
      <point x="827" y="384" type="curve" smooth="yes"/>
      <point x="827" y="363"/>
      <point x="826" y="342"/>
      <point x="822" y="319" type="curve" smooth="yes"/>
      <point x="788" y="108"/>
      <point x="648" y="9"/>
      <point x="418" y="9" type="curve" smooth="yes"/>
      <point x="232" y="9"/>
      <point x="84" y="61"/>
      <point x="84" y="252" type="curve" smooth="yes"/>
      <point x="84" y="426"/>
      <point x="235" y="516"/>
      <point x="451" y="516" type="curve" smooth="yes"/>
      <point x="610" y="516"/>
      <point x="750" y="473"/>
    </contour>
    <contour>
      <point x="254" y="550" type="line"/>
      <point x="645" y="656" type="line"/>
      <point x="643" y="657" type="line"/>
      <point x="875" y="720" type="line"/>
      <point x="809" y="720" type="line"/>
      <point x="618" y="668" type="line"/>
      <point x="622" y="667" type="line"/>
      <point x="188" y="550" type="line"/>
    </contour>
  </outline>
</glyph>
<glyph name="oslash" format="2">
  <advance width="831"/>
  <unicode hex="00F8"/>
  <anchor x="437" y="530" name="top"/>
  <outline>
    <contour>
      <point x="767" y="540" type="line"/>
      <point x="674" y="471" type="line"/>
      <point x="674" y="471" type="line"/>
      <point x="139" y="72" type="line"/>
      <point x="139" y="72" type="line"/>
      <point x="29" y="-10" type="line"/>
      <point x="60" y="-10" type="line"/>
      <point x="155" y="61" type="line"/>
      <point x="155" y="61" type="line"/>
      <point x="689" y="459" type="line"/>
      <point x="689" y="459" type="line"/>
      <point x="798" y="540" type="line"/>
    </contour>
    <contour>
      <point x="404" y="-10" type="curve" smooth="yes"/>
      <point x="640" y="-10"/>
      <point x="764" y="96"/>
      <point x="764" y="297" type="curve" smooth="yes"/>
      <point x="764" y="458"/>
      <point x="648" y="540"/>
      <point x="424" y="540" type="curve" smooth="yes"/>
      <point x="188" y="540"/>
      <point x="64" y="434"/>
      <point x="64" y="233" type="curve" smooth="yes"/>
      <point x="64" y="72"/>
      <point x="180" y="-10"/>
    </contour>
    <contour>
      <point x="404" y="9" type="curve" smooth="yes"/>
      <point x="194" y="9"/>
      <point x="83" y="86"/>
      <point x="83" y="233" type="curve" smooth="yes"/>
      <point x="83" y="423"/>
      <point x="198" y="521"/>
      <point x="424" y="521" type="curve" smooth="yes"/>
      <point x="634" y="521"/>
      <point x="745" y="444"/>
      <point x="745" y="297" type="curve" smooth="yes"/>
      <point x="745" y="107"/>
      <point x="630" y="9"/>
    </contour>
  </outline>
</glyph>
<glyph name="hbar" format="2">
  <advance width="830"/>
  <unicode hex="0127"/>
  <outline>
    <contour>
      <point x="51" y="618" type="line"/>
      <point x="468" y="618" type="line"/>
      <point x="471" y="636" type="line"/>
      <point x="54" y="636" type="line"/>
    </contour>
    <component base="h"/>
  </outline>
</glyph>
<glyph name="Ldot" format="2">
  <advance width="797"/>
  <unicode hex="013F"/>
  <outline>
    <contour>
      <point x="556" y="362" type="curve" smooth="yes"/>
      <point x="555" y="353"/>
      <point x="559" y="352"/>
      <point x="569" y="352" type="curve" smooth="yes"/>
      <point x="587" y="352"/>
      <point x="588" y="353"/>
      <point x="591" y="376" type="curve" smooth="yes"/>
      <point x="592" y="385"/>
      <point x="588" y="386"/>
      <point x="578" y="386" type="curve" smooth="yes"/>
      <point x="560" y="386"/>
      <point x="559" y="385"/>
    </contour>
    <component base="L"/>
  </outline>
</glyph>
<glyph name="Lslash" format="2">
  <advance width="797"/>
  <unicode hex="0141"/>
  <outline>
    <contour>
      <point x="93" y="0" type="line"/>
      <point x="736" y="0" type="line"/>
      <point x="739" y="19" type="line"/>
      <point x="115" y="19" type="line"/>
      <point x="150" y="243" type="line"/>
      <point x="546" y="461" type="line"/>
      <point x="550" y="483" type="line"/>
      <point x="154" y="265" type="line"/>
      <point x="223" y="700" type="line"/>
      <point x="204" y="700" type="line"/>
      <point x="133" y="253" type="line"/>
      <point x="38" y="201" type="line"/>
      <point x="34" y="179" type="line"/>
      <point x="129" y="231" type="line"/>
    </contour>
  </outline>
</glyph>
<glyph name="Tbar" format="2">
  <advance width="774"/>
  <unicode hex="0166"/>
  <outline>
    <contour>
      <point x="830" y="681" type="line"/>
      <point x="833" y="700" type="line"/>
      <point x="75" y="700" type="line"/>
      <point x="72" y="681" type="line"/>
      <point x="442" y="681" type="line"/>
      <point x="396" y="390" type="line"/>
      <point x="145" y="390" type="line"/>
      <point x="142" y="372" type="line"/>
      <point x="393" y="372" type="line"/>
      <point x="334" y="0" type="line"/>
      <point x="353" y="0" type="line"/>
      <point x="412" y="372" type="line"/>
      <point x="671" y="372" type="line"/>
      <point x="674" y="390" type="line"/>
      <point x="415" y="390" type="line"/>
      <point x="461" y="681" type="line"/>
    </contour>
  </outline>
</glyph>
<glyph name="uogonek" format="2">
  <advance width="789"/>
  <unicode hex="0173"/>
  <outline>
    <contour>
      <point x="666" y="-220" type="curve" smooth="yes"/>
      <point x="689" y="-220"/>
      <point x="710" y="-217"/>
      <point x="728" y="-212" type="curve"/>
      <point x="725" y="-195" type="line"/>
      <point x="706" y="-200"/>
      <point x="690" y="-202"/>
      <point x="668" y="-202" type="curve" smooth="yes"/>
      <point x="624" y="-202"/>
      <point x="591" y="-183"/>
      <point x="591" y="-134" type="curve" smooth="yes"/>
      <point x="591" y="-80"/>
      <point x="639" y="-32"/>
      <point x="736" y="0" type="curve"/>
      <point x="733" y="17" type="line"/>
      <point x="719" y="12"/>
      <point x="702" y="9"/>
      <point x="695" y="9" type="curve" smooth="yes"/>
      <point x="657" y="9"/>
      <point x="636" y="28"/>
      <point x="636" y="86" type="curve" smooth="yes"/>
      <point x="636" y="100"/>
      <point x="637" y="130"/>
      <point x="701" y="530" type="curve"/>
      <point x="681" y="530" type="line"/>
      <point x="618" y="108" type="line"/>
      <point x="493" y="45"/>
      <point x="403" y="9"/>
      <point x="278" y="9" type="curve" smooth="yes"/>
      <point x="170" y="9"/>
      <point x="118" y="60"/>
      <point x="118" y="140" type="curve" smooth="yes"/>
      <point x="118" y="154"/>
      <point x="119" y="182"/>
      <point x="174" y="530" type="curve"/>
      <point x="155" y="530" type="line"/>
      <point x="100" y="170"/>
      <point x="99" y="151"/>
      <point x="99" y="139" type="curve" smooth="yes"/>
      <point x="99" y="50"/>
      <point x="155" y="-10"/>
      <point x="274" y="-10" type="curve" smooth="yes"/>
      <point x="400" y="-10"/>
      <point x="494" y="26"/>
      <point x="617" y="89" type="curve"/>
      <point x="617" y="24"/>
      <point x="639" y="-10"/>
      <point x="691" y="-10" type="curve" smooth="yes"/>
      <point x="699" y="-10"/>
      <point x="706" y="-3"/>
      <point x="706" y="4" type="curve"/>
      <point x="627" y="-24"/>
      <point x="572" y="-71"/>
      <point x="572" y="-134" type="curve" smooth="yes"/>
      <point x="572" y="-200"/>
      <point x="618" y="-220"/>
    </contour>
  </outline>
</glyph>
<glyph name="acutecomb" format="2">
  <unicode hex="0301"/>
  <anchor x="-387" y="530" name="_top"/>
  <anchor x="-253" y="730" name="top"/>
  <outline>
    <contour>
      <point x="-398" y="596" type="line"/>
      <point x="-373" y="596" type="line"/>
      <point x="-120" y="790" type="line"/>
      <point x="-151" y="790" type="line"/>
    </contour>
  </outline>
</glyph>
<glyph name="tildecomb" format="2">
  <unicode hex="0303"/>
  <anchor x="-387" y="530" name="_top"/>
  <anchor x="-365" y="695" name="top"/>
  <outline>
    <contour>
      <point x="-590" y="612" type="curve"/>
      <point x="-571" y="612" type="line"/>
      <point x="-571" y="616"/>
      <point x="-578" y="543"/>
      <point x="-568" y="641" type="curve" smooth="yes"/>
      <point x="-562" y="687"/>
      <point x="-527" y="718"/>
      <point x="-483" y="718" type="curve" smooth="yes"/>
      <point x="-400" y="718"/>
      <point x="-353" y="612"/>
      <point x="-251" y="612" type="curve" smooth="yes"/>
      <point x="-196" y="612"/>
      <point x="-149" y="653"/>
      <point x="-142" y="706" type="curve" smooth="yes"/>
      <point x="-138" y="734"/>
      <point x="-139" y="729"/>
      <point x="-139" y="735" type="curve"/>
      <point x="-158" y="735" type="line"/>
      <point x="-158" y="729"/>
      <point x="-157" y="734"/>
      <point x="-161" y="706" type="curve" smooth="yes"/>
      <point x="-166" y="662"/>
      <point x="-203" y="630"/>
      <point x="-248" y="630" type="curve" smooth="yes"/>
      <point x="-347" y="630"/>
      <point x="-389" y="735"/>
      <point x="-480" y="735" type="curve" smooth="yes"/>
      <point x="-538" y="735"/>
      <point x="-580" y="698"/>
      <point x="-587" y="641" type="curve" smooth="yes"/>
      <point x="-597" y="543"/>
      <point x="-590" y="616"/>
    </contour>
  </outline>
</glyph>
<glyph name="uni0304" format="2">
  <unicode hex="0304"/>
  <anchor x="-387" y="530" name="_top"/>
  <anchor x="-359" y="703" name="top"/>
  <outline>
    <contour>
      <point x="-553" y="685" type="line"/>
      <point x="-171" y="685" type="line"/>
      <point x="-168" y="703" type="line"/>
      <point x="-550" y="703" type="line"/>
    </contour>
  </outline>
</glyph>
<glyph name="uni0306" format="2">
  <unicode hex="0306"/>
  <anchor x="-387" y="530" name="_top"/>
  <anchor x="-357" y="727" name="top"/>
  <outline>
    <contour>
      <point x="-376" y="617" type="curve" smooth="yes"/>
      <point x="-244" y="617"/>
      <point x="-159" y="649"/>
      <point x="-132" y="775" type="curve"/>
      <point x="-150" y="777" type="line"/>
      <point x="-178" y="666"/>
      <point x="-247" y="635"/>
      <point x="-373" y="635" type="curve" smooth="yes"/>
      <point x="-485" y="635"/>
      <point x="-544" y="657"/>
      <point x="-550" y="747" type="curve"/>
      <point x="-550" y="756"/>
      <point x="-550" y="766"/>
      <point x="-549" y="777" type="curve"/>
      <point x="-567" y="775" type="line"/>
      <point x="-568" y="768"/>
      <point x="-568" y="761"/>
      <point x="-568" y="755" type="curve" smooth="yes"/>
      <point x="-568" y="650"/>
      <point x="-505" y="617"/>
    </contour>
  </outline>
</glyph>
<glyph name="uni0307" format="2">
  <unicode hex="0307"/>
  <anchor x="-387" y="530" name="_top"/>
  <anchor x="-365" y="662" name="top"/>
  <outline>
    <contour>
      <point x="-363" y="676" type="curve" smooth="yes"/>
      <point x="-351" y="676"/>
      <point x="-345" y="685"/>
      <point x="-345" y="700" type="curve" smooth="yes"/>
      <point x="-345" y="708"/>
      <point x="-349" y="712"/>
      <point x="-359" y="712" type="curve" smooth="yes"/>
      <point x="-372" y="712"/>
      <point x="-378" y="703"/>
      <point x="-378" y="688" type="curve" smooth="yes"/>
      <point x="-378" y="680"/>
      <point x="-374" y="676"/>
    </contour>
  </outline>
</glyph>
<glyph name="uni0308" format="2">
  <unicode hex="0308"/>
  <anchor x="-387" y="530" name="_top"/>
  <anchor x="-367" y="662" name="top"/>
  <outline>
    <contour>
      <point x="-210" y="676" type="curve" smooth="yes"/>
      <point x="-200" y="676"/>
      <point x="-193" y="683"/>
      <point x="-193" y="700" type="curve" smooth="yes"/>
      <point x="-193" y="708"/>
      <point x="-196" y="712"/>
      <point x="-205" y="712" type="curve" smooth="yes"/>
      <point x="-217" y="712"/>
      <point x="-223" y="704"/>
      <point x="-223" y="687" type="curve" smooth="yes"/>
      <point x="-223" y="680"/>
      <point x="-219" y="676"/>
    </contour>
    <contour>
      <point x="-517" y="676" type="curve" smooth="yes"/>
      <point x="-507" y="676"/>
      <point x="-500" y="683"/>
      <point x="-500" y="700" type="curve" smooth="yes"/>
      <point x="-500" y="708"/>
      <point x="-503" y="712"/>
      <point x="-512" y="712" type="curve" smooth="yes"/>
      <point x="-524" y="712"/>
      <point x="-530" y="704"/>
      <point x="-530" y="687" type="curve" smooth="yes"/>
      <point x="-530" y="680"/>
      <point x="-526" y="676"/>
    </contour>
  </outline>
</glyph>
<glyph name="hookabovecomb" format="2">
  <unicode hex="0309"/>
  <anchor x="-387" y="530" name="_top"/>
  <anchor x="-349" y="794" name="top"/>
  <outline>
    <contour>
      <point x="-380" y="602" type="line"/>
      <point x="-294" y="624"/>
      <point x="-256" y="658"/>
      <point x="-256" y="713" type="curve" smooth="yes"/>
      <point x="-256" y="764"/>
      <point x="-293" y="794"/>
      <point x="-357" y="794" type="curve" smooth="yes"/>
      <point x="-399" y="794"/>
      <point x="-437" y="779"/>
      <point x="-471" y="749" type="curve"/>
      <point x="-460" y="736" type="line"/>
      <point x="-427" y="765"/>
      <point x="-396" y="777"/>
      <point x="-357" y="777" type="curve" smooth="yes"/>
      <point x="-307" y="777"/>
      <point x="-275" y="752"/>
      <point x="-275" y="713" type="curve" smooth="yes"/>
      <point x="-275" y="666"/>
      <point x="-309" y="636"/>
      <point x="-384" y="617" type="curve"/>
    </contour>
  </outline>
</glyph>
<glyph name="uni030A" format="2">
  <unicode hex="030A"/>
  <anchor x="-387" y="530" name="_top"/>
  <anchor x="-353" y="745" name="top"/>
  <outline>
    <contour>
      <point x="-374" y="619" type="curve" smooth="yes"/>
      <point x="-300" y="619"/>
      <point x="-257" y="652"/>
      <point x="-257" y="710" type="curve" smooth="yes"/>
      <point x="-257" y="751"/>
      <point x="-290" y="775"/>
      <point x="-348" y="775" type="curve" smooth="yes"/>
      <point x="-422" y="775"/>
      <point x="-465" y="742"/>
      <point x="-465" y="684" type="curve" smooth="yes"/>
      <point x="-465" y="643"/>
      <point x="-432" y="619"/>
    </contour>
    <contour>
      <point x="-371" y="636" type="curve" smooth="yes"/>
      <point x="-421" y="636"/>
      <point x="-446" y="653"/>
      <point x="-446" y="687" type="curve" smooth="yes"/>
      <point x="-446" y="732"/>
      <point x="-412" y="758"/>
      <point x="-351" y="758" type="curve" smooth="yes"/>
      <point x="-301" y="758"/>
      <point x="-276" y="741"/>
      <point x="-276" y="707" type="curve" smooth="yes"/>
      <point x="-276" y="662"/>
      <point x="-310" y="636"/>
    </contour>
  </outline>
</glyph>
<glyph name="uni0312" format="2">
  <unicode hex="0312"/>
  <anchor x="-387" y="530" name="_top"/>
  <outline>
    <contour>
      <point x="-368" y="595" type="line"/>
      <point x="-386" y="612"/>
      <point x="-396" y="633"/>
      <point x="-396" y="656" type="curve" smooth="yes"/>
      <point x="-396" y="705"/>
      <point x="-367" y="745"/>
      <point x="-300" y="790" type="curve"/>
      <point x="-323" y="790" type="line"/>
      <point x="-387" y="746"/>
      <point x="-415" y="705"/>
      <point x="-415" y="654" type="curve" smooth="yes"/>
      <point x="-415" y="630"/>
      <point x="-406" y="607"/>
      <point x="-392" y="595" type="curve"/>
    </contour>
  </outline>
</glyph>
<glyph name="uni031B" format="2">
  <unicode hex="031B"/>
  <anchor x="-272" y="530" name="_topright"/>
  <anchor x="-47" y="693" name="topright"/>
  <outline>
    <contour>
      <point x="-272" y="513" type="line"/>
      <point x="-232" y="513" type="line" smooth="yes"/>
      <point x="-52" y="513"/>
      <point x="-43" y="613"/>
      <point x="-85" y="697" type="curve"/>
      <point x="-104" y="691" type="line"/>
      <point x="-62" y="607"/>
      <point x="-83" y="530"/>
      <point x="-230" y="530" type="curve" smooth="yes"/>
      <point x="-280" y="530" type="line"/>
    </contour>
  </outline>
</glyph>
<glyph name="uni0326" format="2">
  <unicode hex="0326"/>
  <anchor x="-424" y="0" name="_bottom"/>
  <anchor x="-480" y="-220" name="bottom"/>
  <outline>
    <contour>
      <point x="-447" y="-73" type="line"/>
      <point x="-440" y="-81"/>
      <point x="-437" y="-92"/>
      <point x="-437" y="-108" type="curve" smooth="yes"/>
      <point x="-437" y="-140"/>
      <point x="-457" y="-181"/>
      <point x="-492" y="-220" type="curve"/>
      <point x="-471" y="-220" type="line"/>
      <point x="-437" y="-182"/>
      <point x="-418" y="-141"/>
      <point x="-418" y="-105" type="curve" smooth="yes"/>
      <point x="-418" y="-96"/>
      <point x="-419" y="-88"/>
      <point x="-423" y="-73" type="curve"/>
    </contour>
  </outline>
</glyph>
<glyph name="uni0327" format="2">
  <unicode hex="0327"/>
  <anchor x="-424" y="0" name="_bottom"/>
  <anchor x="-463" y="-220" name="bottom"/>
  <outline>
    <contour>
      <point x="-594" y="-180" type="line"/>
      <point x="-551" y="-209"/>
      <point x="-511" y="-220"/>
      <point x="-454" y="-220" type="curve" smooth="yes"/>
      <point x="-373" y="-220"/>
      <point x="-322" y="-175"/>
      <point x="-322" y="-104" type="curve" smooth="yes"/>
      <point x="-322" y="-49"/>
      <point x="-357" y="-10"/>
      <point x="-416" y="0" type="curve"/>
      <point x="-447" y="0" type="line"/>
      <point x="-371" y="-22"/>
      <point x="-342" y="-51"/>
      <point x="-342" y="-106" type="curve" smooth="yes"/>
      <point x="-342" y="-166"/>
      <point x="-385" y="-202"/>
      <point x="-457" y="-202" type="curve" smooth="yes"/>
      <point x="-502" y="-202"/>
      <point x="-538" y="-191"/>
      <point x="-585" y="-163" type="curve"/>
    </contour>
  </outline>
</glyph>
<glyph name="pi" format="2">
  <advance width="931"/>
  <unicode hex="03C0"/>
  <outline>
    <contour>
      <point x="733" y="-10" type="curve" smooth="yes"/>
      <point x="746" y="-10"/>
      <point x="760" y="-8"/>
      <point x="774" y="-2" type="curve"/>
      <point x="774" y="14" type="line"/>
      <point x="761" y="10"/>
      <point x="747" y="8"/>
      <point x="737" y="8" type="curve" smooth="yes"/>
      <point x="690" y="8"/>
      <point x="676" y="32"/>
      <point x="676" y="62" type="curve" smooth="yes"/>
      <point x="676" y="118"/>
      <point x="701" y="232"/>
      <point x="742" y="512" type="curve"/>
      <point x="850" y="512" type="line"/>
      <point x="853" y="530" type="line"/>
      <point x="360" y="530" type="line" smooth="yes"/>
      <point x="318" y="530"/>
      <point x="223" y="525"/>
      <point x="157" y="493" type="curve"/>
      <point x="161" y="478" type="line"/>
      <point x="231" y="508"/>
      <point x="302" y="511"/>
      <point x="346" y="512" type="curve"/>
      <point x="277" y="341"/>
      <point x="208" y="171"/>
      <point x="139" y="0" type="curve"/>
      <point x="156" y="0" type="line"/>
      <point x="225" y="171"/>
      <point x="295" y="341"/>
      <point x="364" y="512" type="curve"/>
      <point x="724" y="512" type="line"/>
      <point x="689" y="259"/>
      <point x="658" y="105"/>
      <point x="658" y="58" type="curve" smooth="yes"/>
      <point x="658" y="21"/>
      <point x="678" y="-10"/>
    </contour>
  </outline>
</glyph>
<glyph name="endash" format="2">
  <advance width="513"/>
  <unicode hex="2013"/>
  <outline>
    <contour>
      <point x="28" y="255" type="line"/>
      <point x="478" y="255" type="line"/>
      <point x="482" y="275" type="line"/>
      <point x="32" y="275" type="line"/>
    </contour>
  </outline>
</glyph>
<glyph name="emdash" format="2">
  <advance width="1003"/>
  <unicode hex="2014"/>
  <outline>
    <contour>
      <point x="8" y="255" type="line"/>
      <point x="988" y="255" type="line"/>
      <point x="992" y="275" type="line"/>
      <point x="12" y="275" type="line"/>
    </contour>
  </outline>
</glyph>
<glyph name="uni2076" format="2">
  <advance width="546"/>
  <unicode hex="2076"/>
  <outline>
    <contour>
      <point x="320" y="364" type="curve" smooth="yes"/>
      <point x="486" y="364"/>
      <point x="561" y="415"/>
      <point x="561" y="501" type="curve" smooth="yes"/>
      <point x="561" y="581"/>
      <point x="492" y="622"/>
      <point x="357" y="622" type="curve" smooth="yes"/>
      <point x="266" y="622"/>
      <point x="153" y="597"/>
      <point x="83" y="554" type="curve"/>
      <point x="82" y="538" type="line"/>
      <point x="149" y="580"/>
      <point x="258" y="607"/>
      <point x="355" y="607" type="curve" smooth="yes"/>
      <point x="477" y="607"/>
      <point x="543" y="570"/>
      <point x="543" y="501" type="curve" smooth="yes"/>
      <point x="543" y="421"/>
      <point x="469" y="380"/>
      <point x="321" y="380" type="curve" smooth="yes"/>
      <point x="178" y="380"/>
      <point x="90" y="440"/>
      <point x="90" y="548" type="curve" smooth="yes"/>
      <point x="90" y="624"/>
      <point x="121" y="675"/>
      <point x="183" y="711" type="curve" smooth="yes"/>
      <point x="231" y="739"/>
      <point x="301" y="754"/>
      <point x="373" y="754" type="curve" smooth="yes"/>
      <point x="442" y="754"/>
      <point x="504" y="745"/>
      <point x="565" y="726" type="curve"/>
      <point x="569" y="743" type="line"/>
      <point x="511" y="761"/>
      <point x="441" y="770"/>
      <point x="375" y="770" type="curve" smooth="yes"/>
      <point x="189" y="770"/>
      <point x="72" y="687"/>
      <point x="73" y="545" type="curve" smooth="yes"/>
      <point x="74" y="420"/>
      <point x="181" y="364"/>
    </contour>
  </outline>
</glyph>
<glyph name="uni2077" format="2">
  <advance width="467"/>
  <unicode hex="2077"/>
  <outline>
    <contour>
      <point x="182" y="370" type="curve"/>
      <point x="202" y="370" type="line"/>
      <point x="215" y="451"/>
      <point x="254" y="502"/>
      <point x="373" y="610" type="curve" smooth="yes"/>
      <point x="529" y="752" type="line"/>
      <point x="531" y="768" type="line"/>
      <point x="82" y="768" type="line"/>
      <point x="80" y="751" type="line"/>
      <point x="504" y="751" type="line"/>
      <point x="357" y="618" type="line" smooth="yes"/>
      <point x="238" y="511"/>
      <point x="195" y="449"/>
    </contour>
  </outline>
</glyph>
<glyph name="uni2078" format="2">
  <advance width="561"/>
  <unicode hex="2078"/>
  <outline>
    <contour>
      <point x="306" y="364" type="curve" smooth="yes"/>
      <point x="437" y="364"/>
      <point x="561" y="385"/>
      <point x="561" y="483" type="curve" smooth="yes"/>
      <point x="561" y="652"/>
      <point x="139" y="531"/>
      <point x="139" y="669" type="curve" smooth="yes"/>
      <point x="139" y="724"/>
      <point x="213" y="754"/>
      <point x="355" y="754" type="curve" smooth="yes"/>
      <point x="494" y="754"/>
      <point x="549" y="726"/>
      <point x="549" y="676" type="curve" smooth="yes"/>
      <point x="549" y="618"/>
      <point x="503" y="598"/>
      <point x="427" y="573" type="curve"/>
      <point x="449" y="568" type="line"/>
      <point x="516" y="589"/>
      <point x="565" y="615"/>
      <point x="565" y="676" type="curve" smooth="yes"/>
      <point x="565" y="736"/>
      <point x="501" y="770"/>
      <point x="355" y="770" type="curve" smooth="yes"/>
      <point x="234" y="770"/>
      <point x="123" y="751"/>
      <point x="123" y="665" type="curve" smooth="yes"/>
      <point x="123" y="513"/>
      <point x="545" y="636"/>
      <point x="545" y="482" type="curve" smooth="yes"/>
      <point x="545" y="398"/>
      <point x="429" y="380"/>
      <point x="306" y="380" type="curve" smooth="yes"/>
      <point x="168" y="380"/>
      <point x="82" y="410"/>
      <point x="82" y="482" type="curve" smooth="yes"/>
      <point x="82" y="538"/>
      <point x="141" y="569"/>
      <point x="231" y="593" type="curve"/>
      <point x="207" y="600" type="line"/>
      <point x="125" y="575"/>
      <point x="66" y="541"/>
      <point x="66" y="480" type="curve" smooth="yes"/>
      <point x="66" y="399"/>
      <point x="158" y="364"/>
    </contour>
  </outline>
</glyph>
<glyph name="uni2079" format="2">
  <advance width="546"/>
  <unicode hex="2079"/>
  <outline>
    <contour>
      <point x="317" y="770" type="curve" smooth="yes"/>
      <point x="162" y="770"/>
      <point x="77" y="719"/>
      <point x="77" y="631" type="curve" smooth="yes"/>
      <point x="77" y="553"/>
      <point x="146" y="512"/>
      <point x="283" y="512" type="curve" smooth="yes"/>
      <point x="374" y="512"/>
      <point x="485" y="529"/>
      <point x="555" y="559" type="curve"/>
      <point x="556" y="576" type="line"/>
      <point x="489" y="546"/>
      <point x="382" y="527"/>
      <point x="285" y="527" type="curve" smooth="yes"/>
      <point x="156" y="527"/>
      <point x="95" y="566"/>
      <point x="95" y="632" type="curve" smooth="yes"/>
      <point x="95" y="711"/>
      <point x="179" y="754"/>
      <point x="316" y="754" type="curve" smooth="yes"/>
      <point x="462" y="754"/>
      <point x="548" y="704"/>
      <point x="548" y="587" type="curve" smooth="yes"/>
      <point x="548" y="506"/>
      <point x="516" y="456"/>
      <point x="456" y="421" type="curve" smooth="yes"/>
      <point x="408" y="393"/>
      <point x="338" y="380"/>
      <point x="266" y="380" type="curve" smooth="yes"/>
      <point x="197" y="380"/>
      <point x="134" y="389"/>
      <point x="73" y="408" type="curve"/>
      <point x="69" y="391" type="line"/>
      <point x="127" y="373"/>
      <point x="197" y="364"/>
      <point x="263" y="364" type="curve" smooth="yes"/>
      <point x="449" y="364"/>
      <point x="566" y="440"/>
      <point x="565" y="591" type="curve" smooth="yes"/>
      <point x="564" y="718"/>
      <point x="467" y="770"/>
    </contour>
  </outline>
</glyph>
<glyph name="uni207C" format="2">
  <advance width="478"/>
  <unicode hex="207C"/>
  <outline>
    <contour>
      <point x="386" y="486" type="line"/>
      <point x="159" y="486" type="line"/>
      <point x="157" y="468" type="line"/>
      <point x="383" y="468" type="line"/>
    </contour>
    <contour>
      <point x="404" y="603" type="line"/>
      <point x="177" y="603" type="line"/>
      <point x="175" y="585" type="line"/>
      <point x="401" y="585" type="line"/>
    </contour>
  </outline>
</glyph>
<glyph name="uni207D" format="2">
  <advance width="266"/>
  <unicode hex="207D"/>
  <outline>
    <contour>
      <point x="112" y="480" type="curve" smooth="yes"/>
      <point x="112" y="383"/>
      <point x="146" y="300"/>
      <point x="231" y="281" type="curve"/>
      <point x="233" y="298" type="line"/>
      <point x="165" y="313"/>
      <point x="129" y="385"/>
      <point x="129" y="484" type="curve" smooth="yes"/>
      <point x="129" y="649"/>
      <point x="207" y="804"/>
      <point x="317" y="824" type="curve"/>
      <point x="319" y="841" type="line"/>
      <point x="164" y="810"/>
      <point x="112" y="613"/>
    </contour>
  </outline>
</glyph>
<glyph name="uni207E" format="2">
  <advance width="269"/>
  <unicode hex="207E"/>
  <outline>
    <contour>
      <point x="247" y="641" type="curve" smooth="yes"/>
      <point x="247" y="740"/>
      <point x="212" y="822"/>
      <point x="126" y="841" type="curve"/>
      <point x="124" y="823" type="line"/>
      <point x="197" y="807"/>
      <point x="230" y="731"/>
      <point x="230" y="637" type="curve" smooth="yes"/>
      <point x="230" y="485"/>
      <point x="157" y="324"/>
      <point x="41" y="298" type="curve"/>
      <point x="39" y="281" type="line"/>
      <point x="172" y="308"/>
      <point x="247" y="479"/>
    </contour>
  </outline>
</glyph>
<glyph name="n.superior" format="2">
  <advance width="506"/>
  <unicode hex="207F"/>
  <outline>
    <contour>
      <point x="468" y="364" type="curve" smooth="yes"/>
      <point x="475" y="364"/>
      <point x="488" y="365"/>
      <point x="499" y="370" type="curve"/>
      <point x="497" y="387" type="line"/>
      <point x="487" y="383"/>
      <point x="476" y="381"/>
      <point x="467" y="381" type="curve" smooth="yes"/>
      <point x="451" y="381"/>
      <point x="439" y="391"/>
      <point x="439" y="411" type="curve" smooth="yes"/>
      <point x="439" y="445"/>
      <point x="461" y="546"/>
      <point x="461" y="584" type="curve" smooth="yes"/>
      <point x="461" y="641"/>
      <point x="426" y="678"/>
      <point x="352" y="678" type="curve" smooth="yes"/>
      <point x="275" y="678"/>
      <point x="221" y="652"/>
      <point x="148" y="617" type="curve"/>
      <point x="156" y="670" type="line"/>
      <point x="140" y="670" type="line"/>
      <point x="92" y="370" type="line"/>
      <point x="109" y="370" type="line"/>
      <point x="146" y="598" type="line"/>
      <point x="228" y="637"/>
      <point x="278" y="661"/>
      <point x="350" y="661" type="curve" smooth="yes"/>
      <point x="417" y="661"/>
      <point x="443" y="628"/>
      <point x="443" y="581" type="curve" smooth="yes"/>
      <point x="443" y="547"/>
      <point x="422" y="442"/>
      <point x="422" y="410" type="curve" smooth="yes"/>
      <point x="422" y="380"/>
      <point x="440" y="364"/>
    </contour>
  </outline>
</glyph>
<glyph name="dong" format="2">
  <advance width="1034"/>
  <unicode hex="20AB"/>
  <outline>
    <contour>
      <point x="154" y="0" type="line"/>
      <point x="873" y="0" type="line"/>
      <point x="877" y="20" type="line"/>
      <point x="158" y="20" type="line"/>
    </contour>
    <contour>
      <point x="576" y="625" type="line"/>
      <point x="970" y="625" type="line"/>
      <point x="973" y="643" type="line"/>
      <point x="579" y="643" type="line"/>
    </contour>
    <contour>
      <point x="857" y="88" type="curve" smooth="yes"/>
      <point x="867" y="88"/>
      <point x="880" y="90"/>
      <point x="895" y="95" type="curve"/>
      <point x="890" y="112" type="line"/>
      <point x="881" y="108"/>
      <point x="869" y="106"/>
      <point x="856" y="106" type="curve" smooth="yes"/>
      <point x="822" y="106"/>
      <point x="803" y="129"/>
      <point x="803" y="174" type="curve" smooth="yes"/>
      <point x="803" y="180"/>
      <point x="892" y="740"/>
      <point x="892" y="740" type="curve"/>
      <point x="873" y="740" type="line"/>
      <point x="837" y="514" type="line"/>
      <point x="783" y="526"/>
      <point x="709" y="540"/>
      <point x="607" y="540" type="curve" smooth="yes"/>
      <point x="391" y="540"/>
      <point x="194" y="482"/>
      <point x="194" y="283" type="curve" smooth="yes"/>
      <point x="194" y="144"/>
      <point x="319" y="88"/>
      <point x="492" y="88" type="curve" smooth="yes"/>
      <point x="596" y="88"/>
      <point x="719" y="125"/>
      <point x="785" y="170" type="curve"/>
      <point x="782" y="118"/>
      <point x="811" y="88"/>
    </contour>
    <contour>
      <point x="495" y="107" type="curve" smooth="yes"/>
      <point x="332" y="107"/>
      <point x="214" y="158"/>
      <point x="214" y="288" type="curve" smooth="yes"/>
      <point x="214" y="450"/>
      <point x="372" y="522"/>
      <point x="600" y="522" type="curve" smooth="yes"/>
      <point x="709" y="522"/>
      <point x="783" y="506"/>
      <point x="834" y="495" type="curve"/>
      <point x="786" y="190" type="line"/>
      <point x="709" y="141"/>
      <point x="599" y="107"/>
    </contour>
  </outline>
</glyph>
<glyph name="uni20AD" format="2">
  <advance width="1034"/>
  <unicode hex="20AD"/>
  <outline>
    <contour>
      <point x="938" y="-10" type="curve" smooth="yes"/>
      <point x="942" y="-10"/>
      <point x="949" y="-10"/>
      <point x="955" y="-9" type="curve"/>
      <point x="955" y="9" type="line"/>
      <point x="951" y="9"/>
      <point x="945" y="9"/>
      <point x="939" y="9" type="curve" smooth="yes"/>
      <point x="859" y="9"/>
      <point x="798" y="34"/>
      <point x="640" y="124" type="curve" smooth="yes"/>
      <point x="256" y="342" type="line"/>
      <point x="965" y="342" type="line"/>
      <point x="968" y="362" type="line"/>
      <point x="276" y="362" type="line"/>
      <point x="575" y="447"/>
      <point x="811" y="562"/>
      <point x="1023" y="694" type="curve"/>
      <point x="1009" y="706" type="line"/>
      <point x="783" y="566"/>
      <point x="527" y="448"/>
      <point x="221" y="364" type="curve"/>
      <point x="273" y="700" type="line"/>
      <point x="254" y="700" type="line"/>
      <point x="200" y="362" type="line"/>
      <point x="59" y="362" type="line"/>
      <point x="56" y="342" type="line"/>
      <point x="197" y="342" type="line"/>
      <point x="143" y="0" type="line"/>
      <point x="162" y="0" type="line"/>
      <point x="217" y="342" type="line"/>
      <point x="632" y="105" type="line" smooth="yes"/>
      <point x="784" y="18"/>
      <point x="847" y="-10"/>
    </contour>
  </outline>
</glyph>
<glyph name="uni20B1" format="2">
  <advance width="1034"/>
  <unicode hex="20B1"/>
  <outline>
    <contour>
      <point x="123" y="0" type="line"/>
      <point x="142" y="0" type="line"/>
      <point x="182" y="250" type="line"/>
      <point x="291" y="246"/>
      <point x="371" y="243"/>
      <point x="497" y="243" type="curve" smooth="yes"/>
      <point x="779" y="243"/>
      <point x="897" y="327"/>
      <point x="900" y="517" type="curve" smooth="yes"/>
      <point x="902" y="660"/>
      <point x="793" y="710"/>
      <point x="548" y="710" type="curve" smooth="yes"/>
      <point x="493" y="710"/>
      <point x="433" y="708"/>
      <point x="234" y="700" type="curve"/>
    </contour>
    <contour>
      <point x="250" y="681" type="line"/>
      <point x="389" y="688"/>
      <point x="475" y="691"/>
      <point x="545" y="691" type="curve" smooth="yes"/>
      <point x="787" y="691"/>
      <point x="881" y="652"/>
      <point x="881" y="512" type="curve" smooth="yes"/>
      <point x="881" y="339"/>
      <point x="769" y="262"/>
      <point x="505" y="262" type="curve" smooth="yes"/>
      <point x="387" y="262"/>
      <point x="298" y="266"/>
      <point x="185" y="269" type="curve"/>
    </contour>
    <contour>
      <point x="76" y="535" type="line"/>
      <point x="215" y="535" type="line"/>
      <point x="218" y="555" type="line"/>
      <point x="79" y="555" type="line"/>
    </contour>
    <contour>
      <point x="890" y="535" type="line"/>
      <point x="1055" y="535" type="line"/>
      <point x="1058" y="555" type="line"/>
      <point x="893" y="555" type="line"/>
    </contour>
    <contour>
      <point x="55" y="404" type="line"/>
      <point x="194" y="404" type="line"/>
      <point x="197" y="424" type="line"/>
      <point x="58" y="424" type="line"/>
    </contour>
    <contour>
      <point x="879" y="404" type="line"/>
      <point x="1034" y="404" type="line"/>
      <point x="1037" y="424" type="line"/>
      <point x="882" y="424" type="line"/>
    </contour>
  </outline>
</glyph>
<glyph name="uni20B9" format="2">
  <advance width="1034"/>
  <unicode hex="20B9"/>
  <outline>
    <contour>
      <point x="851" y="0" type="line"/>
      <point x="901" y="0" type="line"/>
      <point x="167" y="335" type="line"/>
      <point x="167" y="335" type="line"/>
      <point x="671" y="335" type="line" smooth="yes"/>
      <point x="828" y="335"/>
      <point x="891" y="411"/>
      <point x="891" y="523" type="curve" smooth="yes"/>
      <point x="891" y="599"/>
      <point x="855" y="660"/>
      <point x="785" y="680" type="curve"/>
      <point x="1027" y="680" type="line"/>
      <point x="1030" y="700" type="line"/>
      <point x="175" y="700" type="line"/>
      <point x="172" y="680" type="line"/>
      <point x="684" y="680" type="line" smooth="yes"/>
      <point x="812" y="680"/>
      <point x="872" y="615"/>
      <point x="872" y="522" type="curve" smooth="yes"/>
      <point x="872" y="416"/>
      <point x="812" y="355"/>
      <point x="669" y="355" type="curve" smooth="yes"/>
      <point x="121" y="355" type="line"/>
      <point x="118" y="335" type="line"/>
    </contour>
    <contour>
      <point x="145" y="509" type="line"/>
      <point x="1000" y="509" type="line"/>
      <point x="1003" y="529" type="line"/>
      <point x="148" y="529" type="line"/>
    </contour>
  </outline>
</glyph>
<glyph name="uni20BA" format="2">
  <advance width="1034"/>
  <unicode hex="20BA"/>
  <outline>
    <contour>
      <point x="157" y="0" type="line"/>
      <point x="462" y="0" type="line" smooth="yes"/>
      <point x="725" y="0"/>
      <point x="891" y="139"/>
      <point x="931" y="393" type="curve"/>
      <point x="911" y="393" type="line"/>
      <point x="872" y="149"/>
      <point x="714" y="19"/>
      <point x="463" y="19" type="curve" smooth="yes"/>
      <point x="179" y="19" type="line"/>
      <point x="287" y="700" type="line"/>
      <point x="268" y="700" type="line"/>
    </contour>
    <contour>
      <point x="81" y="328" type="line"/>
      <point x="532" y="561" type="line"/>
      <point x="535" y="583" type="line"/>
      <point x="84" y="350" type="line"/>
    </contour>
    <contour>
      <point x="55" y="166" type="line"/>
      <point x="506" y="399" type="line"/>
      <point x="509" y="421" type="line"/>
      <point x="58" y="188" type="line"/>
    </contour>
  </outline>
</glyph>
<glyph name="uni20BC" format="2">
  <advance width="1034"/>
  <unicode hex="20BC"/>
  <outline>
    <contour>
      <point x="13" y="0" type="curve"/>
      <point x="31" y="0" type="line"/>
      <point x="68" y="273"/>
      <point x="199" y="610"/>
      <point x="558" y="610" type="curve" smooth="yes"/>
      <point x="757" y="610"/>
      <point x="935" y="513"/>
      <point x="935" y="167" type="curve" smooth="yes"/>
      <point x="935" y="98"/>
      <point x="929" y="51"/>
      <point x="920" y="0" type="curve"/>
      <point x="938" y="0" type="line"/>
      <point x="948" y="51"/>
      <point x="953" y="96"/>
      <point x="953" y="169" type="curve" smooth="yes"/>
      <point x="953" y="524"/>
      <point x="768" y="629"/>
      <point x="561" y="629" type="curve" smooth="yes"/>
      <point x="191" y="629"/>
      <point x="52" y="291"/>
    </contour>
    <contour>
      <point x="476" y="75" type="line"/>
      <point x="494" y="75" type="line"/>
      <point x="595" y="710" type="line"/>
      <point x="577" y="710" type="line"/>
    </contour>
  </outline>
</glyph>
<glyph name="uni20BD" format="2">
  <advance width="1034"/>
  <unicode hex="20BD"/>
  <outline>
    <contour>
      <point x="192" y="0" type="line"/>
      <point x="211" y="0" type="line"/>
      <point x="236" y="158" type="line"/>
      <point x="696" y="158" type="line"/>
      <point x="699" y="177" type="line"/>
      <point x="239" y="177" type="line"/>
      <point x="257" y="288" type="line"/>
      <point x="556" y="288" type="line" smooth="yes"/>
      <point x="848" y="288"/>
      <point x="966" y="358"/>
      <point x="969" y="517" type="curve" smooth="yes"/>
      <point x="972" y="660"/>
      <point x="862" y="710"/>
      <point x="617" y="710" type="curve" smooth="yes"/>
      <point x="562" y="710"/>
      <point x="502" y="708"/>
      <point x="303" y="700" type="curve"/>
      <point x="241" y="307" type="line"/>
      <point x="91" y="307" type="line"/>
      <point x="88" y="288" type="line"/>
      <point x="238" y="288" type="line"/>
      <point x="220" y="177" type="line"/>
      <point x="70" y="177" type="line"/>
      <point x="67" y="158" type="line"/>
      <point x="217" y="158" type="line"/>
    </contour>
    <contour>
      <point x="260" y="307" type="line"/>
      <point x="319" y="681" type="line"/>
      <point x="458" y="688"/>
      <point x="544" y="691"/>
      <point x="614" y="691" type="curve" smooth="yes"/>
      <point x="856" y="691"/>
      <point x="950" y="652"/>
      <point x="950" y="512" type="curve" smooth="yes"/>
      <point x="950" y="370"/>
      <point x="838" y="307"/>
      <point x="564" y="307" type="curve" smooth="yes"/>
    </contour>
  </outline>
</glyph>
<glyph name="trademark" format="2">
  <advance width="950"/>
  <unicode hex="2122"/>
  <outline>
    <contour>
      <point x="397" y="683" type="line"/>
      <point x="400" y="700" type="line"/>
      <point x="62" y="700" type="line"/>
      <point x="59" y="683" type="line"/>
      <point x="218" y="683" type="line"/>
      <point x="171" y="381" type="line"/>
      <point x="190" y="381" type="line"/>
      <point x="237" y="683" type="line"/>
    </contour>
    <contour>
      <point x="430" y="381" type="line"/>
      <point x="448" y="381" type="line"/>
      <point x="495" y="677" type="line"/>
      <point x="679" y="504" type="line"/>
      <point x="685" y="504" type="line"/>
      <point x="924" y="675" type="line"/>
      <point x="878" y="381" type="line"/>
      <point x="896" y="381" type="line"/>
      <point x="946" y="700" type="line"/>
      <point x="928" y="700" type="line"/>
      <point x="685" y="525" type="line"/>
      <point x="496" y="700" type="line"/>
      <point x="480" y="700" type="line"/>
    </contour>
  </outline>
</glyph>
<glyph name="uni2126" format="2">
  <advance width="1157"/>
  <unicode hex="2126"/>
  <outline>
    <contour>
      <point x="678" y="15" type="curve"/>
      <point x="676" y="0" type="line"/>
      <point x="1013" y="0" type="line"/>
      <point x="1016" y="20" type="line"/>
      <point x="769" y="20" type="line"/>
      <point x="966" y="76"/>
      <point x="1074" y="218"/>
      <point x="1074" y="421" type="curve" smooth="yes"/>
      <point x="1074" y="605"/>
      <point x="919" y="710"/>
      <point x="646" y="710" type="curve" smooth="yes"/>
      <point x="315" y="710"/>
      <point x="108" y="547"/>
      <point x="108" y="286" type="curve" smooth="yes"/>
      <point x="108" y="156"/>
      <point x="181" y="64"/>
      <point x="319" y="20" type="curve"/>
      <point x="59" y="20" type="line"/>
      <point x="56" y="0" type="line"/>
      <point x="404" y="0" type="line"/>
      <point x="406" y="15" type="line"/>
      <point x="226" y="44"/>
      <point x="126" y="142"/>
      <point x="126" y="289" type="curve" smooth="yes"/>
      <point x="126" y="536"/>
      <point x="325" y="690"/>
      <point x="643" y="690" type="curve" smooth="yes"/>
      <point x="908" y="690"/>
      <point x="1054" y="592"/>
      <point x="1054" y="415" type="curve" smooth="yes"/>
      <point x="1054" y="202"/>
      <point x="912" y="51"/>
    </contour>
  </outline>
</glyph>
<glyph name="arrowleft" format="2">
  <advance width="700"/>
  <unicode hex="2190"/>
  <outline>
    <contour>
      <point x="670" y="299" type="line"/>
      <point x="71" y="299" type="line"/>
      <point x="262" y="480" type="line"/>
      <point x="247" y="495" type="line"/>
      <point x="30" y="289" type="line"/>
      <point x="247" y="83" type="line"/>
      <point x="262" y="98" type="line"/>
      <point x="71" y="279" type="line"/>
      <point x="670" y="279" type="line"/>
    </contour>
  </outline>
</glyph>
<glyph name="partialdiff" format="2">
  <advance width="959"/>
  <unicode hex="2202"/>
  <outline>
    <contour>
      <point x="417" y="-10" type="curve" smooth="yes"/>
      <point x="708" y="-10"/>
      <point x="897" y="159"/>
      <point x="897" y="419" type="curve" smooth="yes"/>
      <point x="897" y="601"/>
      <point x="752" y="710"/>
      <point x="512" y="710" type="curve" smooth="yes"/>
      <point x="420" y="710"/>
      <point x="283" y="696"/>
      <point x="191" y="677" type="curve"/>
      <point x="192" y="657" type="line"/>
      <point x="278" y="674"/>
      <point x="428" y="690"/>
      <point x="508" y="690" type="curve" smooth="yes"/>
      <point x="740" y="690"/>
      <point x="876" y="585"/>
      <point x="876" y="407" type="curve" smooth="yes"/>
      <point x="876" y="172"/>
      <point x="688" y="10"/>
      <point x="416" y="10" type="curve" smooth="yes"/>
      <point x="188" y="10"/>
      <point x="41" y="81"/>
      <point x="41" y="192" type="curve" smooth="yes"/>
      <point x="41" y="332"/>
      <point x="179" y="420"/>
      <point x="452" y="420" type="curve" smooth="yes"/>
      <point x="600" y="420"/>
      <point x="777" y="372"/>
      <point x="868" y="307" type="curve"/>
      <point x="872" y="330" type="line"/>
      <point x="768" y="397"/>
      <point x="603" y="440"/>
      <point x="455" y="440" type="curve" smooth="yes"/>
      <point x="164" y="440"/>
      <point x="22" y="346"/>
      <point x="22" y="188" type="curve" smooth="yes"/>
      <point x="22" y="66"/>
      <point x="173" y="-10"/>
    </contour>
  </outline>
</glyph>
<glyph name="uni2206" format="2">
  <advance width="897"/>
  <unicode hex="2206"/>
  <outline>
    <contour>
      <point x="2" y="0" type="line"/>
      <point x="809" y="0" type="line"/>
      <point x="812" y="23" type="line"/>
      <point x="522" y="710" type="line"/>
      <point x="511" y="710" type="line"/>
      <point x="4" y="23" type="line"/>
    </contour>
    <contour>
      <point x="28" y="20" type="line"/>
      <point x="514" y="683" type="line"/>
      <point x="792" y="20" type="line"/>
    </contour>
  </outline>
</glyph>
<glyph name="product" format="2">
  <advance width="1105"/>
  <unicode hex="220F"/>
  <outline>
    <contour>
      <point x="73" y="-210" type="line"/>
      <point x="91" y="-210" type="line"/>
      <point x="232" y="682" type="line"/>
      <point x="1002" y="682" type="line"/>
      <point x="861" y="-210" type="line"/>
      <point x="878" y="-210" type="line"/>
      <point x="1022" y="700" type="line"/>
      <point x="217" y="700" type="line"/>
    </contour>
  </outline>
</glyph>
<glyph name="summation" format="2">
  <advance width="710"/>
  <unicode hex="2211"/>
  <outline>
    <contour>
      <point x="-59" y="-210" type="line"/>
      <point x="617" y="-210" type="line"/>
      <point x="620" y="-192" type="line"/>
      <point x="-27" y="-192" type="line"/>
      <point x="642" y="276" type="line"/>
      <point x="646" y="296" type="line"/>
      <point x="115" y="682" type="line"/>
      <point x="731" y="682" type="line"/>
      <point x="735" y="700" type="line"/>
      <point x="85" y="700" type="line"/>
      <point x="81" y="682" type="line"/>
      <point x="625" y="288" type="line"/>
      <point x="-56" y="-190" type="line"/>
    </contour>
  </outline>
</glyph>
<glyph name="minus" format="2">
  <advance width="512"/>
  <unicode hex="2212"/>
  <outline>
    <contour>
      <point x="64" y="280" type="line"/>
      <point x="450" y="280" type="line"/>
      <point x="453" y="298" type="line"/>
      <point x="67" y="298" type="line"/>
    </contour>
  </outline>
</glyph>
<glyph name="infinity" format="2">
  <advance width="725"/>
  <unicode hex="221E"/>
  <outline>
    <contour>
      <point x="153" y="208" type="curve" smooth="yes"/>
      <point x="241" y="208"/>
      <point x="307" y="270"/>
      <point x="371" y="335" type="curve"/>
      <point x="417" y="272"/>
      <point x="469" y="208"/>
      <point x="541" y="208" type="curve" smooth="yes"/>
      <point x="629" y="208"/>
      <point x="698" y="280"/>
      <point x="698" y="386" type="curve" smooth="yes"/>
      <point x="698" y="458"/>
      <point x="653" y="497"/>
      <point x="597" y="497" type="curve" smooth="yes"/>
      <point x="508" y="497"/>
      <point x="440" y="431"/>
      <point x="375" y="365" type="curve"/>
      <point x="331" y="428"/>
      <point x="282" y="498"/>
      <point x="209" y="498" type="curve" smooth="yes"/>
      <point x="122" y="498"/>
      <point x="53" y="423"/>
      <point x="53" y="326" type="curve" smooth="yes"/>
      <point x="53" y="248"/>
      <point x="97" y="208"/>
    </contour>
    <contour>
      <point x="156" y="228" type="curve" smooth="yes"/>
      <point x="109" y="228"/>
      <point x="71" y="260"/>
      <point x="71" y="327" type="curve" smooth="yes"/>
      <point x="71" y="403"/>
      <point x="131" y="478"/>
      <point x="206" y="478" type="curve" smooth="yes"/>
      <point x="267" y="478"/>
      <point x="308" y="423"/>
      <point x="360" y="350" type="curve"/>
      <point x="298" y="287"/>
      <point x="235" y="228"/>
    </contour>
    <contour>
      <point x="594" y="477" type="curve" smooth="yes"/>
      <point x="641" y="477"/>
      <point x="678" y="443"/>
      <point x="678" y="381" type="curve" smooth="yes"/>
      <point x="678" y="301"/>
      <point x="618" y="228"/>
      <point x="544" y="228" type="curve" smooth="yes"/>
      <point x="484" y="228"/>
      <point x="436" y="280"/>
      <point x="385" y="349" type="curve"/>
      <point x="449" y="414"/>
      <point x="511" y="477"/>
    </contour>
  </outline>
</glyph>
<glyph name="notequal" format="2">
  <advance width="512"/>
  <unicode hex="2260"/>
  <outline>
    <contour>
      <point x="143" y="97" type="line"/>
      <point x="198" y="179" type="line"/>
      <point x="434" y="179" type="line"/>
      <point x="437" y="197" type="line"/>
      <point x="210" y="197" type="line"/>
      <point x="334" y="384" type="line"/>
      <point x="466" y="384" type="line"/>
      <point x="469" y="402" type="line"/>
      <point x="346" y="402" type="line"/>
      <point x="394" y="473" type="line"/>
      <point x="380" y="483" type="line"/>
      <point x="325" y="402" type="line"/>
      <point x="83" y="402" type="line"/>
      <point x="80" y="384" type="line"/>
      <point x="313" y="384" type="line"/>
      <point x="188" y="197" type="line"/>
      <point x="51" y="197" type="line"/>
      <point x="48" y="179" type="line"/>
      <point x="176" y="179" type="line"/>
      <point x="128" y="107" type="line"/>
    </contour>
  </outline>
</glyph>
<glyph name="greaterequal" format="2">
  <advance width="513"/>
  <unicode hex="2265"/>
  <outline>
    <contour>
      <point x="453" y="298" type="line"/>
      <point x="456" y="318" type="line"/>
      <point x="101" y="509" type="line"/>
      <point x="97" y="488" type="line"/>
      <point x="436" y="308" type="line"/>
      <point x="40" y="129" type="line"/>
      <point x="37" y="108" type="line"/>
    </contour>
    <contour>
      <point x="421" y="92" type="line"/>
      <point x="35" y="92" type="line"/>
      <point x="32" y="74" type="line"/>
      <point x="418" y="74" type="line"/>
    </contour>
  </outline>
</glyph>
<glyph name="filledbox" format="2">
  <advance width="694"/>
  <unicode hex="25A0"/>
  <outline>
    <contour>
      <point x="147" y="117" type="line"/>
      <point x="564" y="117" type="line"/>
      <point x="564" y="534" type="line"/>
      <point x="147" y="534" type="line"/>
    </contour>
  </outline>
</glyph>
<glyph name="uni25B3" format="2">
  <advance width="694"/>
  <unicode hex="25B3"/>
  <outline>
    <contour>
      <point x="121" y="42" type="line"/>
      <point x="590" y="42" type="line"/>
      <point x="356" y="556" type="line"/>
    </contour>
    <contour>
      <point x="152" y="62" type="line"/>
      <point x="356" y="509" type="line"/>
      <point x="559" y="62" type="line"/>
    </contour>
  </outline>
</glyph>
<glyph name="uni25B6" format="2">
  <advance width="694"/>
  <unicode hex="25B6"/>
  <outline>
    <contour>
      <point x="128" y="65" type="line"/>
      <point x="642" y="299" type="line"/>
      <point x="128" y="534" type="line"/>
    </contour>
  </outline>
</glyph>
<glyph name="uni25B7" format="2">
  <advance width="694"/>
  <unicode hex="25B7"/>
  <outline>
    <contour>
      <point x="128" y="65" type="line"/>
      <point x="642" y="299" type="line"/>
      <point x="128" y="534" type="line"/>
    </contour>
    <contour>
      <point x="148" y="96" type="line"/>
      <point x="148" y="503" type="line"/>
      <point x="595" y="299" type="line"/>
    </contour>
  </outline>
</glyph>
<glyph name="triagdn" format="2">
  <advance width="694"/>
  <unicode hex="25BC"/>
  <outline>
    <contour>
      <point x="356" y="42" type="line"/>
      <point x="590" y="556" type="line"/>
      <point x="121" y="556" type="line"/>
    </contour>
  </outline>
</glyph>
<glyph name="uni25C1" format="2">
  <advance width="694"/>
  <unicode hex="25C1"/>
  <outline>
    <contour>
      <point x="68" y="299" type="line"/>
      <point x="582" y="65" type="line"/>
      <point x="582" y="534" type="line"/>
    </contour>
    <contour>
      <point x="115" y="299" type="line"/>
      <point x="562" y="503" type="line"/>
      <point x="562" y="96" type="line"/>
    </contour>
  </outline>
</glyph>
<glyph name="uni25C6" format="2">
  <advance width="694"/>
  <unicode hex="25C6"/>
  <outline>
    <contour>
      <point x="60" y="326" type="line"/>
      <point x="355" y="31" type="line"/>
      <point x="650" y="326" type="line"/>
      <point x="355" y="621" type="line"/>
    </contour>
  </outline>
</glyph>
<glyph name="lozenge" format="2">
  <advance width="500"/>
  <unicode hex="25CA"/>
  <outline>
    <contour>
      <point x="258" y="688" type="line"/>
      <point x="458" y="350" type="line"/>
      <point x="258" y="12" type="line"/>
      <point x="58" y="350" type="line"/>
    </contour>
    <contour>
      <point x="268" y="710" type="line"/>
      <point x="248" y="710" type="line"/>
      <point x="37" y="350" type="line"/>
      <point x="248" y="-10" type="line"/>
      <point x="268" y="-10" type="line"/>
      <point x="479" y="350" type="line"/>
    </contour>
  </outline>
</glyph>
<glyph name="circle" format="2">
  <advance width="694"/>
  <unicode hex="25CB"/>
  <outline>
    <contour>
      <point x="115" y="320" type="curve" smooth="yes"/>
      <point x="115" y="188"/>
      <point x="222" y="81"/>
      <point x="354" y="81" type="curve" smooth="yes"/>
      <point x="486" y="81"/>
      <point x="594" y="188"/>
      <point x="594" y="320" type="curve" smooth="yes"/>
      <point x="594" y="452"/>
      <point x="486" y="560"/>
      <point x="354" y="560" type="curve" smooth="yes"/>
      <point x="222" y="560"/>
      <point x="115" y="452"/>
    </contour>
    <contour>
      <point x="135" y="320" type="curve" smooth="yes"/>
      <point x="135" y="441"/>
      <point x="233" y="540"/>
      <point x="354" y="540" type="curve" smooth="yes"/>
      <point x="475" y="540"/>
      <point x="574" y="441"/>
      <point x="574" y="320" type="curve" smooth="yes"/>
      <point x="574" y="199"/>
      <point x="475" y="101"/>
      <point x="354" y="101" type="curve" smooth="yes"/>
      <point x="233" y="101"/>
      <point x="135" y="199"/>
    </contour>
  </outline>
</glyph>
<glyph name="uni2661" format="2">
  <advance width="800"/>
  <unicode hex="2661"/>
  <outline>
    <contour>
      <point x="425" y="0" type="curve"/>
      <point x="435" y="0" type="line"/>
      <point x="496" y="187"/>
      <point x="777" y="242"/>
      <point x="777" y="463" type="curve" smooth="yes"/>
      <point x="777" y="587"/>
      <point x="694" y="650"/>
      <point x="598" y="650" type="curve" smooth="yes"/>
      <point x="529" y="650"/>
      <point x="463" y="617"/>
      <point x="430" y="531" type="curve"/>
      <point x="397" y="617"/>
      <point x="331" y="650"/>
      <point x="262" y="650" type="curve" smooth="yes"/>
      <point x="166" y="650"/>
      <point x="83" y="587"/>
      <point x="83" y="463" type="curve" smooth="yes"/>
      <point x="83" y="242"/>
      <point x="364" y="187"/>
    </contour>
    <contour>
      <point x="430" y="39" type="curve"/>
      <point x="350" y="207"/>
      <point x="103" y="265"/>
      <point x="103" y="463" type="curve" smooth="yes"/>
      <point x="103" y="575"/>
      <point x="177" y="632"/>
      <point x="262" y="632" type="curve" smooth="yes"/>
      <point x="329" y="632"/>
      <point x="394" y="594"/>
      <point x="424" y="491" type="curve"/>
      <point x="436" y="491" type="line"/>
      <point x="466" y="594"/>
      <point x="531" y="632"/>
      <point x="598" y="632" type="curve" smooth="yes"/>
      <point x="683" y="632"/>
      <point x="757" y="575"/>
      <point x="757" y="463" type="curve" smooth="yes"/>
      <point x="757" y="265"/>
      <point x="510" y="207"/>
    </contour>
  </outline>
</glyph>
<glyph name="uni2784" format="2">
  <advance width="1112"/>
  <unicode hex="2784"/>
  <outline>
    <contour>
      <point x="303" y="209" type="line"/>
      <point x="371" y="176"/>
      <point x="448" y="157"/>
      <point x="560" y="157" type="curve" smooth="yes"/>
      <point x="703" y="157"/>
      <point x="828" y="195"/>
      <point x="828" y="281" type="curve" smooth="yes"/>
      <point x="828" y="355"/>
      <point x="768" y="398"/>
      <point x="600" y="398" type="curve" smooth="yes"/>
      <point x="359" y="398" type="line"/>
      <point x="387" y="537" type="line"/>
      <point x="786" y="537" type="line"/>
      <point x="786" y="558" type="line"/>
      <point x="370" y="558" type="line"/>
      <point x="335" y="386" type="line"/>
      <point x="343" y="377" type="line"/>
      <point x="586" y="377" type="line" smooth="yes"/>
      <point x="749" y="377"/>
      <point x="804" y="345"/>
      <point x="804" y="282" type="curve" smooth="yes"/>
      <point x="804" y="217"/>
      <point x="713" y="177"/>
      <point x="560" y="177" type="curve" smooth="yes"/>
      <point x="453" y="177"/>
      <point x="376" y="197"/>
      <point x="312" y="229" type="curve"/>
    </contour>
    <contour>
      <point x="84" y="350" type="curve" smooth="yes"/>
      <point x="84" y="69"/>
      <point x="313" y="-10"/>
      <point x="568" y="-10" type="curve" smooth="yes"/>
      <point x="823" y="-10"/>
      <point x="1052" y="69"/>
      <point x="1052" y="350" type="curve" smooth="yes"/>
      <point x="1052" y="631"/>
      <point x="823" y="710"/>
      <point x="568" y="710" type="curve" smooth="yes"/>
      <point x="313" y="710"/>
      <point x="84" y="631"/>
    </contour>
    <contour>
      <point x="104" y="350" type="curve" smooth="yes"/>
      <point x="104" y="615"/>
      <point x="323" y="690"/>
      <point x="568" y="690" type="curve" smooth="yes"/>
      <point x="813" y="690"/>
      <point x="1032" y="615"/>
      <point x="1032" y="350" type="curve" smooth="yes"/>
      <point x="1032" y="85"/>
      <point x="813" y="10"/>
      <point x="568" y="10" type="curve" smooth="yes"/>
      <point x="323" y="10"/>
      <point x="104" y="85"/>
    </contour>
  </outline>
</glyph>
<glyph name="uni2786" format="2">
  <advance width="1112"/>
  <unicode hex="2786"/>
  <outline>
    <contour>
      <point x="510" y="164" type="curve"/>
      <point x="531" y="164" type="line"/>
      <point x="531" y="240"/>
      <point x="560" y="292"/>
      <point x="656" y="386" type="curve" smooth="yes"/>
      <point x="813" y="539" type="line"/>
      <point x="813" y="555" type="line"/>
      <point x="334" y="555" type="line"/>
      <point x="334" y="535" type="line"/>
      <point x="781" y="535" type="line"/>
      <point x="652" y="408" type="line" smooth="yes"/>
      <point x="541" y="300"/>
      <point x="510" y="247"/>
    </contour>
    <contour>
      <point x="568" y="-10" type="curve" smooth="yes"/>
      <point x="823" y="-10"/>
      <point x="1052" y="69"/>
      <point x="1052" y="350" type="curve" smooth="yes"/>
      <point x="1052" y="631"/>
      <point x="823" y="710"/>
      <point x="568" y="710" type="curve" smooth="yes"/>
      <point x="313" y="710"/>
      <point x="84" y="631"/>
      <point x="84" y="350" type="curve" smooth="yes"/>
      <point x="84" y="69"/>
      <point x="313" y="-10"/>
    </contour>
    <contour>
      <point x="568" y="690" type="curve" smooth="yes"/>
      <point x="813" y="690"/>
      <point x="1032" y="615"/>
      <point x="1032" y="350" type="curve" smooth="yes"/>
      <point x="1032" y="85"/>
      <point x="813" y="10"/>
      <point x="568" y="10" type="curve" smooth="yes"/>
      <point x="323" y="10"/>
      <point x="104" y="85"/>
      <point x="104" y="350" type="curve" smooth="yes"/>
      <point x="104" y="615"/>
      <point x="323" y="690"/>
    </contour>
  </outline>
</glyph>
<glyph name="uni2788" format="2">
  <advance width="1112"/>
  <unicode hex="2788"/>
  <outline>
    <contour>
      <point x="824" y="365" type="curve"/>
      <point x="822" y="226"/>
      <point x="710" y="178"/>
      <point x="556" y="178" type="curve" smooth="yes"/>
      <point x="465" y="178"/>
      <point x="343" y="203"/>
      <point x="339" y="204" type="curve"/>
      <point x="337" y="184" type="line"/>
      <point x="339" y="182"/>
      <point x="460" y="157"/>
      <point x="564" y="157" type="curve" smooth="yes"/>
      <point x="711" y="157"/>
      <point x="847" y="202"/>
      <point x="847" y="370" type="curve" smooth="yes"/>
      <point x="847" y="512"/>
      <point x="728" y="568"/>
      <point x="583" y="568" type="curve" smooth="yes"/>
      <point x="456" y="568"/>
      <point x="306" y="542"/>
      <point x="306" y="434" type="curve" smooth="yes"/>
      <point x="306" y="343"/>
      <point x="418" y="309"/>
      <point x="539" y="309" type="curve" smooth="yes"/>
      <point x="648" y="309"/>
      <point x="763" y="333"/>
    </contour>
    <contour>
      <point x="542" y="330" type="curve" smooth="yes"/>
      <point x="431" y="330"/>
      <point x="329" y="356"/>
      <point x="329" y="434" type="curve" smooth="yes"/>
      <point x="329" y="525"/>
      <point x="467" y="547"/>
      <point x="580" y="547" type="curve" smooth="yes"/>
      <point x="705" y="547"/>
      <point x="811" y="502"/>
      <point x="823" y="386" type="curve"/>
      <point x="767" y="353"/>
      <point x="651" y="330"/>
    </contour>
    <contour>
      <point x="568" y="-10" type="curve" smooth="yes"/>
      <point x="823" y="-10"/>
      <point x="1052" y="69"/>
      <point x="1052" y="350" type="curve" smooth="yes"/>
      <point x="1052" y="631"/>
      <point x="823" y="710"/>
      <point x="568" y="710" type="curve" smooth="yes"/>
      <point x="313" y="710"/>
      <point x="84" y="631"/>
      <point x="84" y="350" type="curve" smooth="yes"/>
      <point x="84" y="69"/>
      <point x="313" y="-10"/>
    </contour>
    <contour>
      <point x="568" y="690" type="curve" smooth="yes"/>
      <point x="813" y="690"/>
      <point x="1032" y="615"/>
      <point x="1032" y="350" type="curve" smooth="yes"/>
      <point x="1032" y="85"/>
      <point x="813" y="10"/>
      <point x="568" y="10" type="curve" smooth="yes"/>
      <point x="323" y="10"/>
      <point x="104" y="85"/>
      <point x="104" y="350" type="curve" smooth="yes"/>
      <point x="104" y="615"/>
      <point x="323" y="690"/>
    </contour>
  </outline>
</glyph>
<glyph name="uni2789" format="2">
  <advance width="1112"/>
  <unicode hex="2789"/>
  <outline>
    <contour>
      <point x="215" y="164" type="line"/>
      <point x="545" y="164" type="line"/>
      <point x="545" y="184" type="line"/>
      <point x="398" y="184" type="line"/>
      <point x="398" y="563" type="line"/>
      <point x="384" y="563" type="line"/>
      <point x="183" y="475" type="line"/>
      <point x="191" y="456" type="line"/>
      <point x="375" y="535" type="line"/>
      <point x="375" y="184" type="line"/>
      <point x="215" y="184" type="line"/>
    </contour>
    <contour>
      <point x="533" y="363" type="curve" smooth="yes"/>
      <point x="533" y="507"/>
      <point x="626" y="549"/>
      <point x="732" y="549" type="curve" smooth="yes"/>
      <point x="836" y="549"/>
      <point x="929" y="507"/>
      <point x="929" y="363" type="curve" smooth="yes"/>
      <point x="929" y="219"/>
      <point x="836" y="178"/>
      <point x="732" y="178" type="curve" smooth="yes"/>
      <point x="626" y="178"/>
      <point x="533" y="219"/>
    </contour>
    <contour>
      <point x="509" y="363" type="curve" smooth="yes"/>
      <point x="509" y="202"/>
      <point x="614" y="158"/>
      <point x="732" y="158" type="curve" smooth="yes"/>
      <point x="848" y="158"/>
      <point x="953" y="202"/>
      <point x="953" y="363" type="curve" smooth="yes"/>
      <point x="953" y="525"/>
      <point x="848" y="570"/>
      <point x="732" y="570" type="curve" smooth="yes"/>
      <point x="614" y="570"/>
      <point x="509" y="525"/>
    </contour>
    <contour>
      <point x="568" y="-10" type="curve" smooth="yes"/>
      <point x="823" y="-10"/>
      <point x="1052" y="69"/>
      <point x="1052" y="350" type="curve" smooth="yes"/>
      <point x="1052" y="631"/>
      <point x="823" y="710"/>
      <point x="568" y="710" type="curve" smooth="yes"/>
      <point x="313" y="710"/>
      <point x="84" y="631"/>
      <point x="84" y="350" type="curve" smooth="yes"/>
      <point x="84" y="69"/>
      <point x="313" y="-10"/>
    </contour>
    <contour>
      <point x="568" y="690" type="curve" smooth="yes"/>
      <point x="813" y="690"/>
      <point x="1032" y="615"/>
      <point x="1032" y="350" type="curve" smooth="yes"/>
      <point x="1032" y="85"/>
      <point x="813" y="10"/>
      <point x="568" y="10" type="curve" smooth="yes"/>
      <point x="323" y="10"/>
      <point x="104" y="85"/>
      <point x="104" y="350" type="curve" smooth="yes"/>
      <point x="104" y="615"/>
      <point x="323" y="690"/>
    </contour>
  </outline>
</glyph>
<glyph name="uni278B" format="2">
  <advance width="1112"/>
  <unicode hex="278B"/>
  <outline>
    <contour>
      <point x="568" y="-10" type="curve" smooth="yes"/>
      <point x="823" y="-10"/>
      <point x="1052" y="69"/>
      <point x="1052" y="350" type="curve" smooth="yes"/>
      <point x="1052" y="631"/>
      <point x="823" y="710"/>
      <point x="568" y="710" type="curve" smooth="yes"/>
      <point x="313" y="710"/>
      <point x="84" y="631"/>
      <point x="84" y="350" type="curve" smooth="yes"/>
      <point x="84" y="69"/>
      <point x="313" y="-10"/>
    </contour>
    <contour>
      <point x="330" y="164" type="line"/>
      <point x="327" y="180" type="line"/>
      <point x="629" y="319"/>
      <point x="691" y="363"/>
      <point x="691" y="444" type="curve" smooth="yes"/>
      <point x="691" y="506"/>
      <point x="636" y="542"/>
      <point x="539" y="542" type="curve" smooth="yes"/>
      <point x="482" y="542"/>
      <point x="414" y="528"/>
      <point x="365" y="507" type="curve"/>
      <point x="357" y="526" type="line"/>
      <point x="405" y="550"/>
      <point x="478" y="565"/>
      <point x="541" y="565" type="curve" smooth="yes"/>
      <point x="652" y="565"/>
      <point x="715" y="521"/>
      <point x="715" y="446" type="curve" smooth="yes"/>
      <point x="715" y="356"/>
      <point x="641" y="300"/>
      <point x="382" y="184" type="curve"/>
      <point x="811" y="184" type="line"/>
      <point x="811" y="164" type="line"/>
    </contour>
  </outline>
</glyph>
<glyph name="uni278C" format="2">
  <advance width="1112"/>
  <unicode hex="278C"/>
  <outline>
    <contour>
      <point x="568" y="-10" type="curve" smooth="yes"/>
      <point x="823" y="-10"/>
      <point x="1052" y="69"/>
      <point x="1052" y="350" type="curve" smooth="yes"/>
      <point x="1052" y="631"/>
      <point x="823" y="710"/>
      <point x="568" y="710" type="curve" smooth="yes"/>
      <point x="313" y="710"/>
      <point x="84" y="631"/>
      <point x="84" y="350" type="curve" smooth="yes"/>
      <point x="84" y="69"/>
      <point x="313" y="-10"/>
    </contour>
    <contour>
      <point x="571" y="157" type="curve" smooth="yes"/>
      <point x="445" y="157"/>
      <point x="366" y="173"/>
      <point x="291" y="210" type="curve"/>
      <point x="299" y="230" type="line"/>
      <point x="370" y="193"/>
      <point x="448" y="177"/>
      <point x="571" y="177" type="curve" smooth="yes"/>
      <point x="709" y="177"/>
      <point x="800" y="215"/>
      <point x="800" y="282" type="curve" smooth="yes"/>
      <point x="800" y="340"/>
      <point x="731" y="363"/>
      <point x="550" y="363" type="curve" smooth="yes"/>
      <point x="439" y="363" type="line"/>
      <point x="439" y="382" type="line"/>
      <point x="589" y="382" type="line" smooth="yes"/>
      <point x="699" y="382"/>
      <point x="758" y="412"/>
      <point x="758" y="462" type="curve" smooth="yes"/>
      <point x="758" y="516"/>
      <point x="679" y="548"/>
      <point x="546" y="548" type="curve" smooth="yes"/>
      <point x="498" y="548"/>
      <point x="367" y="532"/>
      <point x="338" y="523" type="curve"/>
      <point x="335" y="545" type="line"/>
      <point x="351" y="553"/>
      <point x="495" y="570"/>
      <point x="547" y="570" type="curve" smooth="yes"/>
      <point x="694" y="570"/>
      <point x="781" y="531"/>
      <point x="781" y="464" type="curve" smooth="yes"/>
      <point x="781" y="419"/>
      <point x="744" y="385"/>
      <point x="686" y="374" type="curve"/>
      <point x="773" y="367"/>
      <point x="824" y="333"/>
      <point x="824" y="283" type="curve" smooth="yes"/>
      <point x="824" y="204"/>
      <point x="722" y="157"/>
    </contour>
  </outline>
</glyph>
<glyph name="uni278F" format="2">
  <advance width="1112"/>
  <unicode hex="278F"/>
  <outline>
    <contour>
      <point x="568" y="-10" type="curve" smooth="yes"/>
      <point x="823" y="-10"/>
      <point x="1052" y="69"/>
      <point x="1052" y="350" type="curve" smooth="yes"/>
      <point x="1052" y="631"/>
      <point x="823" y="710"/>
      <point x="568" y="710" type="curve" smooth="yes"/>
      <point x="313" y="710"/>
      <point x="84" y="631"/>
      <point x="84" y="350" type="curve" smooth="yes"/>
      <point x="84" y="69"/>
      <point x="313" y="-10"/>
    </contour>
    <contour>
      <point x="564" y="177" type="curve" smooth="yes"/>
      <point x="714" y="177"/>
      <point x="808" y="220"/>
      <point x="808" y="288" type="curve" smooth="yes"/>
      <point x="808" y="369"/>
      <point x="708" y="395"/>
      <point x="597" y="395" type="curve" smooth="yes"/>
      <point x="487" y="395"/>
      <point x="371" y="369"/>
      <point x="316" y="336" type="curve"/>
      <point x="328" y="233"/>
      <point x="418" y="177"/>
    </contour>
    <contour>
      <point x="557" y="157" type="curve" smooth="yes"/>
      <point x="392" y="157"/>
      <point x="291" y="229"/>
      <point x="291" y="361" type="curve" smooth="yes"/>
      <point x="291" y="494"/>
      <point x="402" y="568"/>
      <point x="601" y="568" type="curve" smooth="yes"/>
      <point x="678" y="568"/>
      <point x="728" y="560"/>
      <point x="802" y="544" type="curve"/>
      <point x="798" y="524" type="line"/>
      <point x="733" y="538"/>
      <point x="677" y="547"/>
      <point x="602" y="547" type="curve" smooth="yes"/>
      <point x="413" y="547"/>
      <point x="317" y="484"/>
      <point x="315" y="357" type="curve"/>
      <point x="375" y="389"/>
      <point x="490" y="415"/>
      <point x="599" y="415" type="curve" smooth="yes"/>
      <point x="723" y="415"/>
      <point x="831" y="381"/>
      <point x="831" y="287" type="curve" smooth="yes"/>
      <point x="831" y="205"/>
      <point x="729" y="157"/>
    </contour>
  </outline>
</glyph>
<glyph name="uni2790" format="2">
  <advance width="1112"/>
  <unicode hex="2790"/>
  <outline>
    <contour>
      <point x="568" y="-10" type="curve" smooth="yes"/>
      <point x="823" y="-10"/>
      <point x="1052" y="69"/>
      <point x="1052" y="350" type="curve" smooth="yes"/>
      <point x="1052" y="631"/>
      <point x="823" y="710"/>
      <point x="568" y="710" type="curve" smooth="yes"/>
      <point x="313" y="710"/>
      <point x="84" y="631"/>
      <point x="84" y="350" type="curve" smooth="yes"/>
      <point x="84" y="69"/>
      <point x="313" y="-10"/>
    </contour>
    <contour>
      <point x="510" y="164" type="line"/>
      <point x="510" y="247"/>
      <point x="541" y="300"/>
      <point x="652" y="408" type="curve" smooth="yes"/>
      <point x="781" y="535" type="line"/>
      <point x="334" y="535" type="line"/>
      <point x="334" y="555" type="line"/>
      <point x="813" y="555" type="line"/>
      <point x="813" y="539" type="line"/>
      <point x="656" y="386" type="line" smooth="yes"/>
      <point x="560" y="292"/>
      <point x="531" y="240"/>
      <point x="531" y="164" type="curve"/>
    </contour>
  </outline>
</glyph>
<glyph name="uni2792" format="2">
  <advance width="1112"/>
  <unicode hex="2792"/>
  <outline>
    <contour>
      <point x="568" y="-10" type="curve" smooth="yes"/>
      <point x="823" y="-10"/>
      <point x="1052" y="69"/>
      <point x="1052" y="350" type="curve" smooth="yes"/>
      <point x="1052" y="631"/>
      <point x="823" y="710"/>
      <point x="568" y="710" type="curve" smooth="yes"/>
      <point x="313" y="710"/>
      <point x="84" y="631"/>
      <point x="84" y="350" type="curve" smooth="yes"/>
      <point x="84" y="69"/>
      <point x="313" y="-10"/>
    </contour>
    <contour>
      <point x="564" y="157" type="curve" smooth="yes"/>
      <point x="460" y="157"/>
      <point x="339" y="182"/>
      <point x="337" y="184" type="curve"/>
      <point x="339" y="204" type="line"/>
      <point x="343" y="203"/>
      <point x="465" y="178"/>
      <point x="556" y="178" type="curve" smooth="yes"/>
      <point x="710" y="178"/>
      <point x="822" y="226"/>
      <point x="824" y="365" type="curve"/>
      <point x="763" y="333"/>
      <point x="648" y="309"/>
      <point x="539" y="309" type="curve" smooth="yes"/>
      <point x="418" y="309"/>
      <point x="306" y="343"/>
      <point x="306" y="434" type="curve" smooth="yes"/>
      <point x="306" y="542"/>
      <point x="456" y="568"/>
      <point x="583" y="568" type="curve" smooth="yes"/>
      <point x="728" y="568"/>
      <point x="847" y="512"/>
      <point x="847" y="370" type="curve" smooth="yes"/>
      <point x="847" y="202"/>
      <point x="711" y="157"/>
    </contour>
    <contour>
      <point x="542" y="330" type="curve" smooth="yes"/>
      <point x="651" y="330"/>
      <point x="767" y="353"/>
      <point x="823" y="386" type="curve"/>
      <point x="811" y="502"/>
      <point x="705" y="547"/>
      <point x="580" y="547" type="curve" smooth="yes"/>
      <point x="467" y="547"/>
      <point x="329" y="525"/>
      <point x="329" y="434" type="curve" smooth="yes"/>
      <point x="329" y="356"/>
      <point x="431" y="330"/>
    </contour>
  </outline>
</glyph>
<glyph name="uni27E8" format="2">
  <advance width="600"/>
  <unicode hex="27E8"/>
  <outline>
    <contour>
      <point x="168" y="349" type="line"/>
      <point x="419" y="-5" type="line"/>
      <point x="434" y="6" type="line"/>
      <point x="190" y="352" type="line"/>
      <point x="544" y="698" type="line"/>
      <point x="532" y="709" type="line"/>
      <point x="168" y="355" type="line"/>
    </contour>
  </outline>
</glyph>
<glyph name="fl" format="2">
  <advance width="777"/>
  <unicode hex="FB02"/>
  <outline>
    <contour>
      <point x="-18" y="-220" type="curve" smooth="yes"/>
      <point x="82" y="-220"/>
      <point x="112" y="-129"/>
      <point x="140" y="53" type="curve" smooth="yes"/>
      <point x="204" y="465" type="line"/>
      <point x="467" y="465" type="line"/>
      <point x="470" y="484" type="line"/>
      <point x="207" y="484" type="line"/>
      <point x="233" y="655"/>
      <point x="309" y="731"/>
      <point x="435" y="731" type="curve" smooth="yes"/>
      <point x="509" y="731"/>
      <point x="561" y="720"/>
      <point x="626" y="701" type="curve"/>
      <point x="541" y="161" type="line" smooth="yes"/>
      <point x="539" y="148"/>
      <point x="535" y="121"/>
      <point x="535" y="97" type="curve" smooth="yes"/>
      <point x="535" y="40"/>
      <point x="568" y="-10"/>
      <point x="647" y="-10" type="curve" smooth="yes"/>
      <point x="682" y="-10"/>
      <point x="717" y="-2"/>
      <point x="744" y="5" type="curve"/>
      <point x="739" y="24" type="line"/>
      <point x="712" y="17"/>
      <point x="681" y="9"/>
      <point x="650" y="9" type="curve" smooth="yes"/>
      <point x="575" y="9"/>
      <point x="555" y="58"/>
      <point x="555" y="99" type="curve" smooth="yes"/>
      <point x="555" y="127"/>
      <point x="559" y="151"/>
      <point x="561" y="161" type="curve" smooth="yes"/>
      <point x="648" y="714" type="line"/>
      <point x="571" y="740"/>
      <point x="514" y="750"/>
      <point x="445" y="750" type="curve" smooth="yes"/>
      <point x="314" y="750"/>
      <point x="223" y="695"/>
      <point x="187" y="484" type="curve"/>
      <point x="60" y="479" type="line"/>
      <point x="58" y="465" type="line"/>
      <point x="184" y="465" type="line"/>
      <point x="119" y="47" type="line" smooth="yes"/>
      <point x="94" y="-111"/>
      <point x="73" y="-203"/>
      <point x="-18" y="-203" type="curve" smooth="yes"/>
      <point x="-33" y="-203"/>
      <point x="-49" y="-200"/>
      <point x="-68" y="-193" type="curve"/>
      <point x="-74" y="-210" type="line"/>
      <point x="-53" y="-217"/>
      <point x="-35" y="-220"/>
    </contour>
  </outline>
</glyph>
<glyph name=".notdef" format="2">
  <advance width="611"/>
  <outline>
    <contour>
      <point x="67" y="0" type="line"/>
      <point x="567" y="0" type="line"/>
      <point x="567" y="700" type="line"/>
      <point x="67" y="700" type="line"/>
    </contour>
    <contour>
      <point x="317" y="395" type="line"/>
      <point x="147" y="650" type="line"/>
      <point x="487" y="650" type="line"/>
    </contour>
    <contour>
      <point x="517" y="95" type="line"/>
      <point x="347" y="350" type="line"/>
      <point x="517" y="605" type="line"/>
    </contour>
    <contour>
      <point x="117" y="95" type="line"/>
      <point x="117" y="605" type="line"/>
      <point x="287" y="350" type="line"/>
    </contour>
    <contour>
      <point x="147" y="50" type="line"/>
      <point x="317" y="305" type="line"/>
      <point x="487" y="50" type="line"/>
    </contour>
  </outline>
</glyph>
<glyph name="a.superior" format="2">
  <advance width="479"/>
  <outline>
    <contour>
      <point x="448" y="652" type="curve"/>
      <point x="412" y="669"/>
      <point x="364" y="678"/>
      <point x="318" y="678" type="curve" smooth="yes"/>
      <point x="188" y="678"/>
      <point x="72" y="616"/>
      <point x="72" y="491" type="curve" smooth="yes"/>
      <point x="72" y="404"/>
      <point x="138" y="364"/>
      <point x="226" y="364" type="curve" smooth="yes"/>
      <point x="290" y="364"/>
      <point x="354" y="388"/>
      <point x="395" y="414" type="curve"/>
      <point x="397" y="381"/>
      <point x="415" y="364"/>
      <point x="440" y="364" type="curve" smooth="yes"/>
      <point x="449" y="364"/>
      <point x="458" y="365"/>
      <point x="467" y="369" type="curve"/>
      <point x="466" y="385" type="line"/>
      <point x="453" y="381"/>
      <point x="447" y="380"/>
      <point x="442" y="380" type="curve" smooth="yes"/>
      <point x="420" y="380"/>
      <point x="411" y="394"/>
      <point x="411" y="420" type="curve" smooth="yes"/>
      <point x="411" y="428"/>
      <point x="448" y="652"/>
    </contour>
    <contour>
      <point x="90" y="491" type="curve" smooth="yes"/>
      <point x="90" y="613"/>
      <point x="209" y="662"/>
      <point x="311" y="662" type="curve" smooth="yes"/>
      <point x="365" y="662"/>
      <point x="404" y="653"/>
      <point x="429" y="641" type="curve"/>
      <point x="395" y="433" type="line"/>
      <point x="349" y="402"/>
      <point x="283" y="381"/>
      <point x="229" y="381" type="curve" smooth="yes"/>
      <point x="149" y="381"/>
      <point x="90" y="417"/>
    </contour>
  </outline>
</glyph>
<glyph name="ae.sc" format="2">
  <advance width="1235"/>
  <anchor x="574.444" y="0" name="bottom"/>
  <anchor x="642" y="615" name="top"/>
  <outline>
    <contour>
      <point x="525" y="0" type="line"/>
      <point x="1143" y="0" type="line"/>
      <point x="1145" y="17" type="line"/>
      <point x="546" y="17" type="line"/>
      <point x="596" y="329" type="line"/>
      <point x="1145" y="329" type="line"/>
      <point x="1148" y="346" type="line"/>
      <point x="599" y="346" type="line"/>
      <point x="639" y="598" type="line"/>
      <point x="1214" y="598" type="line"/>
      <point x="1217" y="615" type="line"/>
      <point x="612" y="615" type="line"/>
      <point x="-5" y="0" type="line"/>
      <point x="21" y="0" type="line"/>
      <point x="201" y="180" type="line"/>
      <point x="553" y="180" type="line"/>
    </contour>
    <contour>
      <point x="620" y="597" type="line"/>
      <point x="556" y="199" type="line"/>
      <point x="220" y="199" type="line"/>
    </contour>
  </outline>
</glyph>
<glyph name="ampersand.sc" format="2">
  <advance width="898"/>
  <outline>
    <contour>
      <point x="332.253" y="-9.811" type="curve" smooth="yes"/>
      <point x="502.306" y="-9.811"/>
      <point x="661.786" y="41.293"/>
      <point x="729.631" y="244.828" type="curve"/>
      <point x="713.771" y="250.996" type="line"/>
      <point x="649" y="58"/>
      <point x="496" y="8"/>
      <point x="332" y="8" type="curve" smooth="yes"/>
      <point x="154" y="8"/>
      <point x="62" y="73"/>
      <point x="62" y="151" type="curve" smooth="yes"/>
      <point x="62" y="283"/>
      <point x="246" y="307"/>
      <point x="402.741" y="307.387" type="curve" smooth="yes"/>
      <point x="408.028" y="307.387" type="line"/>
      <point x="408.028" y="325.009" type="line"/>
      <point x="403.623" y="325.009" type="line" smooth="yes"/>
      <point x="268" y="325"/>
      <point x="165" y="376"/>
      <point x="165" y="469" type="curve" smooth="yes"/>
      <point x="165" y="534"/>
      <point x="228" y="609"/>
      <point x="370" y="609" type="curve" smooth="yes"/>
      <point x="454" y="609"/>
      <point x="544" y="575"/>
      <point x="589" y="528" type="curve"/>
      <point x="601.871" y="539.998" type="line"/>
      <point x="556.054" y="589.34"/>
      <point x="458.251" y="624.584"/>
      <point x="369.259" y="624.584" type="curve" smooth="yes"/>
      <point x="215" y="625"/>
      <point x="148" y="542"/>
      <point x="148" y="469" type="curve" smooth="yes"/>
      <point x="148" y="381"/>
      <point x="231" y="324"/>
      <point x="334.896" y="317.96" type="curve"/>
      <point x="173" y="314"/>
      <point x="44" y="268"/>
      <point x="44" y="151" type="curve" smooth="yes"/>
      <point x="44" y="63"/>
      <point x="134" y="-10"/>
    </contour>
    <contour>
      <point x="494.376" y="188.438" type="line"/>
      <point x="497.02" y="249.234"/>
      <point x="543" y="279"/>
      <point x="588" y="279" type="curve" smooth="yes"/>
      <point x="679" y="279"/>
      <point x="706" y="227"/>
      <point x="797" y="227" type="curve" smooth="yes"/>
      <point x="869" y="227"/>
      <point x="914.663" y="280.954"/>
      <point x="914.663" y="346.155" type="curve"/>
      <point x="897.922" y="346.155" type="line"/>
      <point x="897.922" y="289.765"/>
      <point x="859" y="244"/>
      <point x="798" y="244" type="curve" smooth="yes"/>
      <point x="712" y="244"/>
      <point x="680" y="298"/>
      <point x="589" y="298" type="curve" smooth="yes"/>
      <point x="536" y="298"/>
      <point x="482.922" y="258.926"/>
      <point x="480.279" y="195.486" type="curve"/>
    </contour>
  </outline>
</glyph>
<glyph name="b.superior" format="2">
  <advance width="459"/>
  <outline>
    <contour>
      <point x="86" y="383" type="line"/>
      <point x="127" y="373"/>
      <point x="177" y="364"/>
      <point x="227" y="364" type="curve" smooth="yes"/>
      <point x="357" y="364"/>
      <point x="467" y="430"/>
      <point x="467" y="561" type="curve" smooth="yes"/>
      <point x="467" y="630"/>
      <point x="416" y="678"/>
      <point x="327" y="678" type="curve" smooth="yes"/>
      <point x="258" y="678"/>
      <point x="199" y="647"/>
      <point x="140" y="609" type="curve"/>
      <point x="168" y="789" type="line"/>
      <point x="151" y="789" type="line"/>
    </contour>
    <contour>
      <point x="136" y="588" type="line"/>
      <point x="211" y="636"/>
      <point x="268" y="661"/>
      <point x="325" y="661" type="curve" smooth="yes"/>
      <point x="399" y="661"/>
      <point x="450" y="622"/>
      <point x="450" y="558" type="curve" smooth="yes"/>
      <point x="450" y="441"/>
      <point x="345" y="381"/>
      <point x="229" y="381" type="curve" smooth="yes"/>
      <point x="181" y="381"/>
      <point x="133" y="388"/>
      <point x="105" y="395" type="curve"/>
    </contour>
  </outline>
</glyph>
<glyph name="braceright.sc" format="2">
  <advance width="400"/>
  <outline>
    <contour>
      <point x="276" y="637" type="curve" smooth="yes"/>
      <point x="276" y="690"/>
      <point x="247" y="737"/>
      <point x="145" y="737" type="curve" smooth="yes"/>
      <point x="107" y="737" type="line"/>
      <point x="105" y="719" type="line"/>
      <point x="142" y="719" type="line" smooth="yes"/>
      <point x="231" y="719"/>
      <point x="258" y="679"/>
      <point x="258" y="633" type="curve" smooth="yes"/>
      <point x="258" y="550"/>
      <point x="193" y="475"/>
      <point x="193" y="374" type="curve" smooth="yes"/>
      <point x="193" y="342"/>
      <point x="206" y="318"/>
      <point x="234" y="308" type="curve"/>
      <point x="179" y="296"/>
      <point x="159" y="230"/>
      <point x="159" y="148" type="curve" smooth="yes"/>
      <point x="159" y="111"/>
      <point x="162" y="75"/>
      <point x="162" y="46" type="curve" smooth="yes"/>
      <point x="162" y="-16"/>
      <point x="146" y="-109"/>
      <point x="11" y="-109" type="curve" smooth="yes"/>
      <point x="-27" y="-109" type="line"/>
      <point x="-29" y="-127" type="line"/>
      <point x="7" y="-127" type="line" smooth="yes"/>
      <point x="157" y="-127"/>
      <point x="182" y="-26"/>
      <point x="182" y="46" type="curve" smooth="yes"/>
      <point x="182" y="73"/>
      <point x="179" y="115"/>
      <point x="179" y="157" type="curve" smooth="yes"/>
      <point x="179" y="236"/>
      <point x="196" y="297"/>
      <point x="262" y="297" type="curve" smooth="yes"/>
      <point x="276" y="297" type="line"/>
      <point x="280" y="317" type="line"/>
      <point x="263" y="317" type="line" smooth="yes"/>
      <point x="232" y="317"/>
      <point x="211" y="338"/>
      <point x="211" y="379" type="curve" smooth="yes"/>
      <point x="211" y="476"/>
      <point x="276" y="548"/>
    </contour>
  </outline>
</glyph>
<glyph name="bracketleft.sc" format="2">
  <advance width="400"/>
  <outline>
    <contour>
      <point x="69" y="-125" type="line"/>
      <point x="334" y="-125" type="line"/>
      <point x="337" y="-107" type="line"/>
      <point x="91" y="-107" type="line"/>
      <point x="222" y="722" type="line"/>
      <point x="468" y="722" type="line"/>
      <point x="471" y="740" type="line"/>
      <point x="206" y="740" type="line"/>
    </contour>
  </outline>
</glyph>
<glyph name="c.sc" format="2">
  <advance width="911"/>
  <anchor x="474" y="0" name="bottom"/>
  <anchor x="562" y="615" name="top"/>
  <outline>
    <contour>
      <point x="86" y="275" type="curve" smooth="yes"/>
      <point x="86" y="84"/>
      <point x="243" y="-10"/>
      <point x="482" y="-10" type="curve" smooth="yes"/>
      <point x="635" y="-10"/>
      <point x="742" y="19"/>
      <point x="803" y="39" type="curve"/>
      <point x="799" y="57" type="line"/>
      <point x="738" y="38"/>
      <point x="635" y="9"/>
      <point x="482" y="9" type="curve" smooth="yes"/>
      <point x="255" y="9"/>
      <point x="106" y="96"/>
      <point x="106" y="274" type="curve" smooth="yes"/>
      <point x="106" y="494"/>
      <point x="323" y="606"/>
      <point x="564" y="606" type="curve" smooth="yes"/>
      <point x="674" y="606"/>
      <point x="750" y="596"/>
      <point x="838" y="569" type="curve"/>
      <point x="843" y="587" type="line"/>
      <point x="755" y="613"/>
      <point x="679" y="625"/>
      <point x="568" y="625" type="curve" smooth="yes"/>
      <point x="311" y="625"/>
      <point x="86" y="510"/>
    </contour>
  </outline>
</glyph>
<glyph name="commasuperior" format="2">
  <advance width="240"/>
  <outline>
    <contour>
      <point x="136" y="388" type="line"/>
      <point x="138" y="378"/>
      <point x="141" y="367"/>
      <point x="141" y="361" type="curve" smooth="yes"/>
      <point x="141" y="327"/>
      <point x="114" y="282"/>
      <point x="73" y="268" type="curve"/>
      <point x="78" y="252" type="line"/>
      <point x="129" y="268"/>
      <point x="159" y="325"/>
      <point x="159" y="365" type="curve" smooth="yes"/>
      <point x="159" y="376"/>
      <point x="157" y="387"/>
      <point x="153" y="395" type="curve"/>
    </contour>
  </outline>
</glyph>
<glyph name="d.sc" format="2">
  <advance width="968"/>
  <anchor x="420" y="0" name="bottom"/>
  <anchor x="484" y="308" name="center"/>
  <anchor x="510" y="615" name="top"/>
  <outline>
    <contour>
      <point x="93" y="0" type="line"/>
      <point x="204" y="-8"/>
      <point x="332" y="-10"/>
      <point x="407" y="-10" type="curve" smooth="yes"/>
      <point x="706" y="-10"/>
      <point x="892" y="106"/>
      <point x="892" y="346" type="curve" smooth="yes"/>
      <point x="892" y="596"/>
      <point x="667" y="625"/>
      <point x="483" y="625" type="curve" smooth="yes"/>
      <point x="415" y="625"/>
      <point x="347" y="622"/>
      <point x="191" y="616" type="curve"/>
    </contour>
    <contour>
      <point x="207" y="596" type="line"/>
      <point x="330" y="603"/>
      <point x="406" y="606"/>
      <point x="473" y="606" type="curve" smooth="yes"/>
      <point x="660" y="606"/>
      <point x="872" y="577"/>
      <point x="872" y="343" type="curve" smooth="yes"/>
      <point x="872" y="129"/>
      <point x="707" y="9"/>
      <point x="402" y="9" type="curve" smooth="yes"/>
      <point x="365" y="9"/>
      <point x="169" y="13"/>
      <point x="115" y="18" type="curve"/>
    </contour>
  </outline>
</glyph>
<glyph name="d.superior" format="2">
  <advance width="488"/>
  <outline>
    <contour>
      <point x="445" y="364" type="curve" smooth="yes"/>
      <point x="450" y="364"/>
      <point x="460" y="365"/>
      <point x="469" y="369" type="curve"/>
      <point x="467" y="385" type="line"/>
      <point x="456" y="381"/>
      <point x="449" y="381"/>
      <point x="443" y="381" type="curve" smooth="yes"/>
      <point x="420" y="381"/>
      <point x="411" y="395"/>
      <point x="411" y="415" type="curve" smooth="yes"/>
      <point x="411" y="419"/>
      <point x="412" y="423"/>
      <point x="471" y="789" type="curve"/>
      <point x="454" y="789" type="line"/>
      <point x="434" y="664" type="line"/>
      <point x="403" y="671"/>
      <point x="358" y="678"/>
      <point x="310" y="678" type="curve" smooth="yes"/>
      <point x="173" y="678"/>
      <point x="71" y="609"/>
      <point x="71" y="484" type="curve" smooth="yes"/>
      <point x="71" y="409"/>
      <point x="129" y="364"/>
      <point x="219" y="364" type="curve" smooth="yes"/>
      <point x="277" y="364"/>
      <point x="355" y="385"/>
      <point x="395" y="407" type="curve"/>
      <point x="399" y="378"/>
      <point x="420" y="364"/>
    </contour>
    <contour>
      <point x="88" y="486" type="curve" smooth="yes"/>
      <point x="88" y="595"/>
      <point x="186" y="661"/>
      <point x="307" y="661" type="curve" smooth="yes"/>
      <point x="355" y="661"/>
      <point x="403" y="653"/>
      <point x="432" y="647" type="curve"/>
      <point x="396" y="427" type="line"/>
      <point x="340" y="396"/>
      <point x="264" y="381"/>
      <point x="221" y="381" type="curve" smooth="yes"/>
      <point x="146" y="381"/>
      <point x="88" y="417"/>
    </contour>
  </outline>
</glyph>
<glyph name="dollar.tosf" format="2">
  <advance width="1034"/>
  <outline>
    <contour>
      <point x="577" y="540" type="curve"/>
      <point x="593" y="635" type="line"/>
      <point x="575" y="635" type="line"/>
      <point x="559" y="540" type="line"/>
      <point x="344" y="536"/>
      <point x="200" y="498"/>
      <point x="200" y="392" type="curve" smooth="yes"/>
      <point x="200" y="196"/>
      <point x="840" y="310"/>
      <point x="840" y="151" type="curve" smooth="yes"/>
      <point x="840" y="20"/>
      <point x="588" y="9"/>
      <point x="481" y="9" type="curve" smooth="yes"/>
      <point x="362" y="9"/>
      <point x="159" y="50"/>
      <point x="127" y="62" type="curve"/>
      <point x="118" y="42" type="line"/>
      <point x="150" y="30"/>
      <point x="352" y="-9"/>
      <point x="473" y="-10" type="curve"/>
      <point x="458" y="-105" type="line"/>
      <point x="476" y="-105" type="line"/>
      <point x="491" y="-10" type="line"/>
      <point x="637" y="-8"/>
      <point x="859" y="13"/>
      <point x="859" y="154" type="curve" smooth="yes"/>
      <point x="859" y="338"/>
      <point x="219" y="218"/>
      <point x="219" y="396" type="curve" smooth="yes"/>
      <point x="219" y="490"/>
      <point x="367" y="521"/>
      <point x="571" y="521" type="curve" smooth="yes"/>
      <point x="678" y="521"/>
      <point x="800" y="499"/>
      <point x="862" y="483" type="curve"/>
      <point x="869" y="503" type="line"/>
      <point x="809" y="518"/>
      <point x="688" y="539"/>
    </contour>
  </outline>
</glyph>
<glyph name="dollarsuperior" format="2">
  <advance width="540"/>
  <outline>
    <contour>
      <point x="277" y="307" type="line"/>
      <point x="293" y="307" type="line"/>
      <point x="303" y="361" type="line"/>
      <point x="445" y="363"/>
      <point x="525" y="407"/>
      <point x="525" y="483" type="curve" smooth="yes"/>
      <point x="525" y="622"/>
      <point x="145" y="533"/>
      <point x="145" y="658" type="curve" smooth="yes"/>
      <point x="145" y="720"/>
      <point x="230" y="761"/>
      <point x="357" y="761" type="curve" smooth="yes"/>
      <point x="428" y="761"/>
      <point x="480" y="749"/>
      <point x="528" y="731" type="curve"/>
      <point x="535" y="748" type="line"/>
      <point x="500" y="760"/>
      <point x="442" y="777"/>
      <point x="369" y="778" type="curve"/>
      <point x="379" y="832" type="line"/>
      <point x="362" y="832" type="line"/>
      <point x="354" y="778" type="line"/>
      <point x="210" y="776"/>
      <point x="128" y="732"/>
      <point x="128" y="656" type="curve" smooth="yes"/>
      <point x="128" y="515"/>
      <point x="508" y="602"/>
      <point x="508" y="481" type="curve" smooth="yes"/>
      <point x="508" y="416"/>
      <point x="428" y="378"/>
      <point x="290" y="378" type="curve" smooth="yes"/>
      <point x="204" y="378"/>
      <point x="97" y="410"/>
      <point x="72" y="418" type="curve"/>
      <point x="65" y="401" type="line"/>
      <point x="103" y="390"/>
      <point x="193" y="364"/>
      <point x="286" y="361" type="curve"/>
    </contour>
  </outline>
</glyph>
<glyph name="exclamdown.case" format="2">
  <advance width="325"/>
  <outline>
    <contour>
      <point x="204" y="476" type="line"/>
      <point x="186" y="476" type="line"/>
      <point x="111" y="0" type="line"/>
      <point x="129" y="0" type="line"/>
    </contour>
    <contour>
      <point x="245" y="690" type="curve" smooth="yes"/>
      <point x="246" y="699"/>
      <point x="242" y="700"/>
      <point x="232" y="700" type="curve" smooth="yes"/>
      <point x="214" y="700"/>
      <point x="213" y="699"/>
      <point x="210" y="676" type="curve" smooth="yes"/>
      <point x="209" y="667"/>
      <point x="213" y="666"/>
      <point x="223" y="666" type="curve" smooth="yes"/>
      <point x="241" y="666"/>
      <point x="242" y="667"/>
    </contour>
  </outline>
</glyph>
<glyph name="f.sc" format="2">
  <advance width="804"/>
  <outline>
    <contour>
      <point x="93" y="0" type="line"/>
      <point x="112" y="0" type="line"/>
      <point x="155" y="268" type="line"/>
      <point x="671" y="268" type="line"/>
      <point x="673" y="284" type="line"/>
      <point x="157" y="284" type="line"/>
      <point x="207" y="598" type="line"/>
      <point x="782" y="598" type="line"/>
      <point x="785" y="615" type="line"/>
      <point x="191" y="615" type="line"/>
    </contour>
  </outline>
</glyph>
<glyph name="f.superior" format="2">
  <advance width="289"/>
  <outline>
    <contour>
      <point x="161" y="626" type="line"/>
      <point x="331" y="626" type="line"/>
      <point x="332" y="643" type="line"/>
      <point x="163" y="643" type="line"/>
      <point x="177" y="735"/>
      <point x="220" y="775"/>
      <point x="290" y="775" type="curve" smooth="yes"/>
      <point x="334" y="775"/>
      <point x="368" y="767"/>
      <point x="412" y="754" type="curve"/>
      <point x="417" y="769" type="line"/>
      <point x="371" y="785"/>
      <point x="336" y="791"/>
      <point x="295" y="791" type="curve" smooth="yes"/>
      <point x="220" y="791"/>
      <point x="166" y="761"/>
      <point x="145" y="643" type="curve"/>
      <point x="73" y="640" type="line"/>
      <point x="72" y="626" type="line"/>
      <point x="143" y="626" type="line"/>
      <point x="106" y="396" type="line" smooth="yes"/>
      <point x="92" y="310"/>
      <point x="80" y="260"/>
      <point x="31" y="260" type="curve" smooth="yes"/>
      <point x="24" y="260"/>
      <point x="14" y="261"/>
      <point x="1" y="266" type="curve"/>
      <point x="-5" y="250" type="line"/>
      <point x="9" y="245"/>
      <point x="21" y="244"/>
      <point x="31" y="244" type="curve" smooth="yes"/>
      <point x="90" y="244"/>
      <point x="108" y="298"/>
      <point x="124" y="399" type="curve" smooth="yes"/>
    </contour>
  </outline>
</glyph>
<glyph name="f_b.liga" format="2">
  <advance width="1225"/>
  <outline>
    <contour>
      <point x="-18" y="-220" type="curve" smooth="yes"/>
      <point x="82" y="-220"/>
      <point x="112" y="-129"/>
      <point x="140" y="53" type="curve" smooth="yes"/>
      <point x="204" y="465" type="line"/>
      <point x="502" y="465" type="line"/>
      <point x="505" y="484" type="line"/>
      <point x="207" y="484" type="line"/>
      <point x="233" y="655"/>
      <point x="309" y="731"/>
      <point x="435" y="731" type="curve" smooth="yes"/>
      <point x="509" y="731"/>
      <point x="564" y="719"/>
      <point x="630" y="700" type="curve"/>
      <point x="522" y="21" type="line"/>
      <point x="591" y="5"/>
      <point x="668" y="-10"/>
      <point x="758" y="-10" type="curve" smooth="yes"/>
      <point x="970" y="-10"/>
      <point x="1169" y="105"/>
      <point x="1169" y="326" type="curve" smooth="yes"/>
      <point x="1169" y="454"/>
      <point x="1089" y="540"/>
      <point x="933" y="540" type="curve" smooth="yes"/>
      <point x="809" y="540"/>
      <point x="707" y="485"/>
      <point x="603" y="412" type="curve"/>
      <point x="651" y="712" type="line"/>
      <point x="575" y="739"/>
      <point x="514" y="750"/>
      <point x="445" y="750" type="curve" smooth="yes"/>
      <point x="314" y="750"/>
      <point x="223" y="695"/>
      <point x="187" y="484" type="curve"/>
      <point x="60" y="479" type="line"/>
      <point x="58" y="465" type="line"/>
      <point x="184" y="465" type="line"/>
      <point x="119" y="47" type="line" smooth="yes"/>
      <point x="94" y="-111"/>
      <point x="73" y="-203"/>
      <point x="-18" y="-203" type="curve" smooth="yes"/>
      <point x="-33" y="-203"/>
      <point x="-49" y="-200"/>
      <point x="-68" y="-193" type="curve"/>
      <point x="-74" y="-210" type="line"/>
      <point x="-53" y="-217"/>
      <point x="-35" y="-220"/>
    </contour>
    <contour>
      <point x="760" y="9" type="curve" smooth="yes"/>
      <point x="671" y="9"/>
      <point x="594" y="25"/>
      <point x="544" y="36" type="curve"/>
      <point x="600" y="388" type="line"/>
      <point x="729" y="481"/>
      <point x="825" y="521"/>
      <point x="928" y="521" type="curve" smooth="yes"/>
      <point x="1077" y="521"/>
      <point x="1150" y="441"/>
      <point x="1150" y="323" type="curve" smooth="yes"/>
      <point x="1150" y="118"/>
      <point x="961" y="9"/>
    </contour>
  </outline>
</glyph>
<glyph name="f_f_b.liga" format="2">
  <advance width="1580"/>
  <outline>
    <contour>
      <point x="-18" y="-220" type="curve" smooth="yes"/>
      <point x="82" y="-220"/>
      <point x="112" y="-129"/>
      <point x="140" y="53" type="curve" smooth="yes"/>
      <point x="204" y="465" type="line"/>
      <point x="530" y="465" type="line"/>
      <point x="465" y="47" type="line" smooth="yes"/>
      <point x="440" y="-111"/>
      <point x="419" y="-203"/>
      <point x="328" y="-203" type="curve" smooth="yes"/>
      <point x="313" y="-203"/>
      <point x="297" y="-200"/>
      <point x="278" y="-193" type="curve"/>
      <point x="272" y="-210" type="line"/>
      <point x="293" y="-217"/>
      <point x="311" y="-220"/>
      <point x="328" y="-220" type="curve" smooth="yes"/>
      <point x="428" y="-220"/>
      <point x="458" y="-129"/>
      <point x="486" y="53" type="curve" smooth="yes"/>
      <point x="550" y="465" type="line"/>
      <point x="848" y="465" type="line"/>
      <point x="851" y="484" type="line"/>
      <point x="553" y="484" type="line"/>
      <point x="579" y="655"/>
      <point x="655" y="731"/>
      <point x="781" y="731" type="curve" smooth="yes"/>
      <point x="855" y="731"/>
      <point x="910" y="719"/>
      <point x="976" y="700" type="curve"/>
      <point x="868" y="21" type="line"/>
      <point x="937" y="5"/>
      <point x="1020" y="-10"/>
      <point x="1110" y="-10" type="curve" smooth="yes"/>
      <point x="1335" y="-10"/>
      <point x="1525" y="105"/>
      <point x="1525" y="336" type="curve" smooth="yes"/>
      <point x="1525" y="456"/>
      <point x="1439" y="540"/>
      <point x="1285" y="540" type="curve" smooth="yes"/>
      <point x="1161" y="540"/>
      <point x="1057" y="485"/>
      <point x="950" y="412" type="curve"/>
      <point x="998" y="712" type="line"/>
      <point x="921" y="739"/>
      <point x="860" y="750"/>
      <point x="791" y="750" type="curve" smooth="yes"/>
      <point x="736" y="750"/>
      <point x="689" y="740"/>
      <point x="649" y="714" type="curve"/>
      <point x="573" y="739"/>
      <point x="513" y="750"/>
      <point x="445" y="750" type="curve" smooth="yes"/>
      <point x="314" y="750"/>
      <point x="223" y="695"/>
      <point x="187" y="484" type="curve"/>
      <point x="60" y="479" type="line"/>
      <point x="58" y="465" type="line"/>
      <point x="184" y="465" type="line"/>
      <point x="119" y="47" type="line" smooth="yes"/>
      <point x="94" y="-111"/>
      <point x="73" y="-203"/>
      <point x="-18" y="-203" type="curve" smooth="yes"/>
      <point x="-33" y="-203"/>
      <point x="-49" y="-200"/>
      <point x="-68" y="-193" type="curve"/>
      <point x="-74" y="-210" type="line"/>
      <point x="-53" y="-217"/>
      <point x="-35" y="-220"/>
    </contour>
    <contour>
      <point x="207" y="484" type="line"/>
      <point x="233" y="655"/>
      <point x="309" y="731"/>
      <point x="435" y="731" type="curve" smooth="yes"/>
      <point x="509" y="731"/>
      <point x="564" y="719"/>
      <point x="630" y="700" type="curve"/>
      <point x="584" y="660"/>
      <point x="551" y="593"/>
      <point x="533" y="484" type="curve"/>
    </contour>
    <contour>
      <point x="1113" y="9" type="curve" smooth="yes"/>
      <point x="1024" y="9"/>
      <point x="940" y="25"/>
      <point x="890" y="36" type="curve"/>
      <point x="946" y="387" type="line"/>
      <point x="1083" y="481"/>
      <point x="1178" y="521"/>
      <point x="1282" y="521" type="curve" smooth="yes"/>
      <point x="1416" y="521"/>
      <point x="1506" y="449"/>
      <point x="1506" y="332" type="curve" smooth="yes"/>
      <point x="1506" y="120"/>
      <point x="1320" y="9"/>
    </contour>
  </outline>
</glyph>
<glyph name="f_f_h.liga" format="2">
  <advance width="1619"/>
  <outline>
    <contour>
      <point x="-18" y="-220" type="curve" smooth="yes"/>
      <point x="82" y="-220"/>
      <point x="112" y="-129"/>
      <point x="140" y="53" type="curve" smooth="yes"/>
      <point x="204" y="465" type="line"/>
      <point x="533" y="465" type="line"/>
      <point x="468" y="47" type="line" smooth="yes"/>
      <point x="443" y="-111"/>
      <point x="422" y="-203"/>
      <point x="331" y="-203" type="curve" smooth="yes"/>
      <point x="316" y="-203"/>
      <point x="300" y="-200"/>
      <point x="281" y="-193" type="curve"/>
      <point x="275" y="-210" type="line"/>
      <point x="296" y="-217"/>
      <point x="314" y="-220"/>
      <point x="331" y="-220" type="curve" smooth="yes"/>
      <point x="431" y="-220"/>
      <point x="461" y="-129"/>
      <point x="489" y="53" type="curve" smooth="yes"/>
      <point x="553" y="465" type="line"/>
      <point x="851" y="465" type="line"/>
      <point x="854" y="484" type="line"/>
      <point x="556" y="484" type="line"/>
      <point x="582" y="655"/>
      <point x="658" y="731"/>
      <point x="784" y="731" type="curve" smooth="yes"/>
      <point x="858" y="731"/>
      <point x="914" y="719"/>
      <point x="980" y="699" type="curve"/>
      <point x="870" y="0" type="line"/>
      <point x="889" y="0" type="line"/>
      <point x="954" y="411" type="line"/>
      <point x="1084" y="473"/>
      <point x="1182" y="521"/>
      <point x="1317" y="521" type="curve" smooth="yes"/>
      <point x="1438" y="521"/>
      <point x="1487" y="466"/>
      <point x="1487" y="382" type="curve" smooth="yes"/>
      <point x="1487" y="286"/>
      <point x="1448" y="120"/>
      <point x="1448" y="66" type="curve" smooth="yes"/>
      <point x="1448" y="15"/>
      <point x="1478" y="-10"/>
      <point x="1523" y="-10" type="curve" smooth="yes"/>
      <point x="1536" y="-10"/>
      <point x="1557" y="-8"/>
      <point x="1573" y="-1" type="curve"/>
      <point x="1569" y="17" type="line"/>
      <point x="1556" y="12"/>
      <point x="1538" y="9"/>
      <point x="1522" y="9" type="curve" smooth="yes"/>
      <point x="1490" y="9"/>
      <point x="1467" y="29"/>
      <point x="1467" y="69" type="curve" smooth="yes"/>
      <point x="1467" y="120"/>
      <point x="1507" y="304"/>
      <point x="1507" y="381" type="curve" smooth="yes"/>
      <point x="1507" y="482"/>
      <point x="1446" y="540"/>
      <point x="1320" y="540" type="curve" smooth="yes"/>
      <point x="1185" y="540"/>
      <point x="1079" y="490"/>
      <point x="957" y="434" type="curve"/>
      <point x="1001" y="712" type="line"/>
      <point x="924" y="739"/>
      <point x="863" y="750"/>
      <point x="794" y="750" type="curve" smooth="yes"/>
      <point x="739" y="750"/>
      <point x="691" y="740"/>
      <point x="651" y="713" type="curve"/>
      <point x="574" y="739"/>
      <point x="513" y="750"/>
      <point x="445" y="750" type="curve" smooth="yes"/>
      <point x="314" y="750"/>
      <point x="223" y="695"/>
      <point x="187" y="484" type="curve"/>
      <point x="60" y="479" type="line"/>
      <point x="58" y="465" type="line"/>
      <point x="184" y="465" type="line"/>
      <point x="119" y="47" type="line" smooth="yes"/>
      <point x="94" y="-111"/>
      <point x="73" y="-203"/>
      <point x="-18" y="-203" type="curve" smooth="yes"/>
      <point x="-33" y="-203"/>
      <point x="-49" y="-200"/>
      <point x="-68" y="-193" type="curve"/>
      <point x="-74" y="-210" type="line"/>
      <point x="-53" y="-217"/>
      <point x="-35" y="-220"/>
    </contour>
    <contour>
      <point x="207" y="484" type="line"/>
      <point x="233" y="655"/>
      <point x="309" y="731"/>
      <point x="435" y="731" type="curve" smooth="yes"/>
      <point x="510" y="731"/>
      <point x="566" y="718"/>
      <point x="633" y="699" type="curve"/>
      <point x="587" y="659"/>
      <point x="554" y="592"/>
      <point x="536" y="484" type="curve"/>
    </contour>
  </outline>
</glyph>
<glyph name="f_f_j.liga" format="2">
  <advance width="1030"/>
  <outline>
    <contour>
      <point x="-18" y="-220" type="curve" smooth="yes"/>
      <point x="82" y="-220"/>
      <point x="112" y="-129"/>
      <point x="140" y="53" type="curve" smooth="yes"/>
      <point x="204" y="465" type="line"/>
      <point x="530" y="465" type="line"/>
      <point x="465" y="47" type="line" smooth="yes"/>
      <point x="440" y="-111"/>
      <point x="419" y="-203"/>
      <point x="328" y="-203" type="curve" smooth="yes"/>
      <point x="313" y="-203"/>
      <point x="297" y="-200"/>
      <point x="278" y="-193" type="curve"/>
      <point x="272" y="-210" type="line"/>
      <point x="293" y="-217"/>
      <point x="311" y="-220"/>
      <point x="328" y="-220" type="curve" smooth="yes"/>
      <point x="428" y="-220"/>
      <point x="458" y="-129"/>
      <point x="486" y="53" type="curve" smooth="yes"/>
      <point x="550" y="465" type="line"/>
      <point x="909" y="465" type="line"/>
      <point x="823" y="-66" type="line" smooth="yes"/>
      <point x="809" y="-154"/>
      <point x="780" y="-203"/>
      <point x="719" y="-203" type="curve" smooth="yes"/>
      <point x="704" y="-203"/>
      <point x="682" y="-201"/>
      <point x="656" y="-190" type="curve"/>
      <point x="651" y="-207" type="line"/>
      <point x="670" y="-217"/>
      <point x="709" y="-220"/>
      <point x="720" y="-220" type="curve" smooth="yes"/>
      <point x="791" y="-220"/>
      <point x="826" y="-166"/>
      <point x="841" y="-71" type="curve" smooth="yes"/>
      <point x="931" y="484" type="line"/>
      <point x="553" y="484" type="line"/>
      <point x="579" y="655"/>
      <point x="655" y="731"/>
      <point x="781" y="731" type="curve" smooth="yes"/>
      <point x="853" y="731"/>
      <point x="906" y="717"/>
      <point x="972" y="695" type="curve"/>
      <point x="978" y="713" type="line"/>
      <point x="908" y="739"/>
      <point x="853" y="750"/>
      <point x="791" y="750" type="curve" smooth="yes"/>
      <point x="736" y="750"/>
      <point x="689" y="740"/>
      <point x="649" y="714" type="curve"/>
      <point x="573" y="739"/>
      <point x="513" y="750"/>
      <point x="445" y="750" type="curve" smooth="yes"/>
      <point x="314" y="750"/>
      <point x="223" y="695"/>
      <point x="187" y="484" type="curve"/>
      <point x="60" y="479" type="line"/>
      <point x="58" y="465" type="line"/>
      <point x="184" y="465" type="line"/>
      <point x="119" y="47" type="line" smooth="yes"/>
      <point x="94" y="-111"/>
      <point x="73" y="-203"/>
      <point x="-18" y="-203" type="curve" smooth="yes"/>
      <point x="-33" y="-203"/>
      <point x="-49" y="-200"/>
      <point x="-68" y="-193" type="curve"/>
      <point x="-74" y="-210" type="line"/>
      <point x="-53" y="-217"/>
      <point x="-35" y="-220"/>
    </contour>
    <contour>
      <point x="207" y="484" type="line"/>
      <point x="233" y="655"/>
      <point x="309" y="731"/>
      <point x="435" y="731" type="curve" smooth="yes"/>
      <point x="509" y="731"/>
      <point x="564" y="719"/>
      <point x="630" y="700" type="curve"/>
      <point x="584" y="660"/>
      <point x="551" y="593"/>
      <point x="533" y="484" type="curve"/>
    </contour>
  </outline>
</glyph>
<glyph name="f_f_k.liga" format="2">
  <advance width="1501"/>
  <outline>
    <contour>
      <point x="-18" y="-220" type="curve" smooth="yes"/>
      <point x="82" y="-220"/>
      <point x="112" y="-129"/>
      <point x="140" y="53" type="curve" smooth="yes"/>
      <point x="204" y="465" type="line"/>
      <point x="530" y="465" type="line"/>
      <point x="465" y="47" type="line" smooth="yes"/>
      <point x="440" y="-111"/>
      <point x="419" y="-203"/>
      <point x="328" y="-203" type="curve" smooth="yes"/>
      <point x="313" y="-203"/>
      <point x="297" y="-200"/>
      <point x="278" y="-193" type="curve"/>
      <point x="272" y="-210" type="line"/>
      <point x="293" y="-217"/>
      <point x="311" y="-220"/>
      <point x="328" y="-220" type="curve" smooth="yes"/>
      <point x="428" y="-220"/>
      <point x="458" y="-129"/>
      <point x="486" y="53" type="curve" smooth="yes"/>
      <point x="550" y="465" type="line"/>
      <point x="848" y="465" type="line"/>
      <point x="851" y="484" type="line"/>
      <point x="553" y="484" type="line"/>
      <point x="579" y="655"/>
      <point x="655" y="731"/>
      <point x="781" y="731" type="curve" smooth="yes"/>
      <point x="855" y="731"/>
      <point x="911" y="719"/>
      <point x="977" y="699" type="curve"/>
      <point x="866" y="0" type="line"/>
      <point x="886" y="0" type="line"/>
      <point x="999" y="712" type="line"/>
      <point x="921" y="739"/>
      <point x="860" y="750"/>
      <point x="791" y="750" type="curve" smooth="yes"/>
      <point x="736" y="750"/>
      <point x="689" y="740"/>
      <point x="649" y="714" type="curve"/>
      <point x="573" y="739"/>
      <point x="513" y="750"/>
      <point x="445" y="750" type="curve" smooth="yes"/>
      <point x="314" y="750"/>
      <point x="223" y="695"/>
      <point x="187" y="484" type="curve"/>
      <point x="60" y="479" type="line"/>
      <point x="58" y="465" type="line"/>
      <point x="184" y="465" type="line"/>
      <point x="119" y="47" type="line" smooth="yes"/>
      <point x="94" y="-111"/>
      <point x="73" y="-203"/>
      <point x="-18" y="-203" type="curve" smooth="yes"/>
      <point x="-33" y="-203"/>
      <point x="-49" y="-200"/>
      <point x="-68" y="-193" type="curve"/>
      <point x="-74" y="-210" type="line"/>
      <point x="-53" y="-217"/>
      <point x="-35" y="-220"/>
    </contour>
    <contour>
      <point x="207" y="484" type="line"/>
      <point x="233" y="655"/>
      <point x="309" y="731"/>
      <point x="435" y="731" type="curve" smooth="yes"/>
      <point x="509" y="731"/>
      <point x="564" y="719"/>
      <point x="630" y="700" type="curve"/>
      <point x="584" y="660"/>
      <point x="551" y="593"/>
      <point x="533" y="484" type="curve"/>
    </contour>
    <contour>
      <point x="1441" y="-10" type="curve" smooth="yes"/>
      <point x="1450" y="-10"/>
      <point x="1462" y="-7"/>
      <point x="1468" y="-3" type="curve"/>
      <point x="1462" y="11" type="line"/>
      <point x="1456" y="8"/>
      <point x="1447" y="7"/>
      <point x="1441" y="7" type="curve" smooth="yes"/>
      <point x="1405" y="7"/>
      <point x="1353" y="45"/>
      <point x="1195" y="179" type="curve" smooth="yes"/>
      <point x="936" y="399" type="line"/>
      <point x="933" y="376" type="line"/>
      <point x="1193" y="155" type="line" smooth="yes"/>
      <point x="1346" y="26"/>
      <point x="1392" y="-10"/>
    </contour>
    <contour>
      <point x="1074" y="264" type="line"/>
      <point x="1265" y="333"/>
      <point x="1413" y="427"/>
      <point x="1491" y="528" type="curve"/>
      <point x="1478" y="540" type="line"/>
      <point x="1380" y="427"/>
      <point x="1288" y="367"/>
      <point x="1058" y="276" type="curve"/>
    </contour>
  </outline>
</glyph>
<glyph name="f_h.liga" format="2">
  <advance width="1270"/>
  <outline>
    <contour>
      <point x="-18" y="-220" type="curve" smooth="yes"/>
      <point x="82" y="-220"/>
      <point x="112" y="-129"/>
      <point x="140" y="53" type="curve" smooth="yes"/>
      <point x="204" y="465" type="line"/>
      <point x="502" y="465" type="line"/>
      <point x="505" y="484" type="line"/>
      <point x="207" y="484" type="line"/>
      <point x="233" y="655"/>
      <point x="309" y="731"/>
      <point x="435" y="731" type="curve" smooth="yes"/>
      <point x="509" y="731"/>
      <point x="565" y="719"/>
      <point x="631" y="699" type="curve"/>
      <point x="521" y="0" type="line"/>
      <point x="540" y="0" type="line"/>
      <point x="605" y="411" type="line"/>
      <point x="735" y="473"/>
      <point x="833" y="521"/>
      <point x="968" y="521" type="curve" smooth="yes"/>
      <point x="1089" y="521"/>
      <point x="1138" y="466"/>
      <point x="1138" y="382" type="curve" smooth="yes"/>
      <point x="1138" y="286"/>
      <point x="1099" y="120"/>
      <point x="1099" y="66" type="curve" smooth="yes"/>
      <point x="1099" y="15"/>
      <point x="1129" y="-10"/>
      <point x="1174" y="-10" type="curve" smooth="yes"/>
      <point x="1187" y="-10"/>
      <point x="1208" y="-8"/>
      <point x="1224" y="-1" type="curve"/>
      <point x="1220" y="17" type="line"/>
      <point x="1207" y="12"/>
      <point x="1189" y="9"/>
      <point x="1173" y="9" type="curve" smooth="yes"/>
      <point x="1141" y="9"/>
      <point x="1118" y="29"/>
      <point x="1118" y="69" type="curve" smooth="yes"/>
      <point x="1118" y="120"/>
      <point x="1158" y="304"/>
      <point x="1158" y="381" type="curve" smooth="yes"/>
      <point x="1158" y="482"/>
      <point x="1097" y="540"/>
      <point x="971" y="540" type="curve" smooth="yes"/>
      <point x="836" y="540"/>
      <point x="730" y="490"/>
      <point x="608" y="434" type="curve"/>
      <point x="652" y="713" type="line"/>
      <point x="575" y="740"/>
      <point x="514" y="750"/>
      <point x="445" y="750" type="curve" smooth="yes"/>
      <point x="314" y="750"/>
      <point x="223" y="695"/>
      <point x="187" y="484" type="curve"/>
      <point x="60" y="479" type="line"/>
      <point x="58" y="465" type="line"/>
      <point x="184" y="465" type="line"/>
      <point x="119" y="47" type="line" smooth="yes"/>
      <point x="94" y="-111"/>
      <point x="73" y="-203"/>
      <point x="-18" y="-203" type="curve" smooth="yes"/>
      <point x="-33" y="-203"/>
      <point x="-49" y="-200"/>
      <point x="-68" y="-193" type="curve"/>
      <point x="-74" y="-210" type="line"/>
      <point x="-53" y="-217"/>
      <point x="-35" y="-220"/>
    </contour>
  </outline>
</glyph>
<glyph name="f_j.liga" format="2">
  <advance width="676"/>
  <outline>
    <contour>
      <point x="-18" y="-220" type="curve" smooth="yes"/>
      <point x="82" y="-220"/>
      <point x="111" y="-134"/>
      <point x="140" y="53" type="curve" smooth="yes"/>
      <point x="204" y="465" type="line"/>
      <point x="563" y="465" type="line"/>
      <point x="477" y="-66" type="line" smooth="yes"/>
      <point x="463" y="-154"/>
      <point x="434" y="-203"/>
      <point x="373" y="-203" type="curve" smooth="yes"/>
      <point x="358" y="-203"/>
      <point x="336" y="-201"/>
      <point x="310" y="-190" type="curve"/>
      <point x="305" y="-207" type="line"/>
      <point x="324" y="-217"/>
      <point x="363" y="-220"/>
      <point x="374" y="-220" type="curve" smooth="yes"/>
      <point x="445" y="-220"/>
      <point x="480" y="-166"/>
      <point x="495" y="-71" type="curve" smooth="yes"/>
      <point x="585" y="484" type="line"/>
      <point x="207" y="484" type="line"/>
      <point x="235" y="652"/>
      <point x="309" y="731"/>
      <point x="439" y="731" type="curve" smooth="yes"/>
      <point x="512" y="731"/>
      <point x="552" y="718"/>
      <point x="618" y="695" type="curve"/>
      <point x="624" y="713" type="line"/>
      <point x="555" y="739"/>
      <point x="507" y="750"/>
      <point x="449" y="750" type="curve" smooth="yes"/>
      <point x="320" y="750"/>
      <point x="218" y="689"/>
      <point x="187" y="484" type="curve"/>
      <point x="60" y="479" type="line"/>
      <point x="58" y="465" type="line"/>
      <point x="184" y="465" type="line"/>
      <point x="119" y="47" type="line" smooth="yes"/>
      <point x="97" y="-96"/>
      <point x="73" y="-203"/>
      <point x="-18" y="-203" type="curve" smooth="yes"/>
      <point x="-33" y="-203"/>
      <point x="-49" y="-200"/>
      <point x="-68" y="-193" type="curve"/>
      <point x="-74" y="-210" type="line"/>
      <point x="-53" y="-217"/>
      <point x="-35" y="-220"/>
    </contour>
  </outline>
</glyph>
<glyph name="f_k.liga" format="2">
  <advance width="1155"/>
  <outline>
    <contour>
      <point x="-18" y="-220" type="curve" smooth="yes"/>
      <point x="82" y="-220"/>
      <point x="112" y="-129"/>
      <point x="140" y="53" type="curve" smooth="yes"/>
      <point x="204" y="465" type="line"/>
      <point x="502" y="465" type="line"/>
      <point x="505" y="484" type="line"/>
      <point x="207" y="484" type="line"/>
      <point x="233" y="655"/>
      <point x="309" y="731"/>
      <point x="435" y="731" type="curve" smooth="yes"/>
      <point x="509" y="731"/>
      <point x="564" y="719"/>
      <point x="630" y="700" type="curve"/>
      <point x="519" y="0" type="line"/>
      <point x="539" y="0" type="line"/>
      <point x="652" y="712" type="line"/>
      <point x="575" y="739"/>
      <point x="514" y="750"/>
      <point x="445" y="750" type="curve" smooth="yes"/>
      <point x="314" y="750"/>
      <point x="223" y="695"/>
      <point x="187" y="484" type="curve"/>
      <point x="60" y="479" type="line"/>
      <point x="58" y="465" type="line"/>
      <point x="184" y="465" type="line"/>
      <point x="119" y="47" type="line" smooth="yes"/>
      <point x="94" y="-111"/>
      <point x="73" y="-203"/>
      <point x="-18" y="-203" type="curve" smooth="yes"/>
      <point x="-33" y="-203"/>
      <point x="-49" y="-200"/>
      <point x="-68" y="-193" type="curve"/>
      <point x="-74" y="-210" type="line"/>
      <point x="-53" y="-217"/>
      <point x="-35" y="-220"/>
    </contour>
    <contour>
      <point x="1095" y="-10" type="curve" smooth="yes"/>
      <point x="1104" y="-10"/>
      <point x="1116" y="-7"/>
      <point x="1122" y="-3" type="curve"/>
      <point x="1116" y="11" type="line"/>
      <point x="1110" y="8"/>
      <point x="1101" y="7"/>
      <point x="1095" y="7" type="curve" smooth="yes"/>
      <point x="1059" y="7"/>
      <point x="1007" y="45"/>
      <point x="849" y="179" type="curve" smooth="yes"/>
      <point x="590" y="399" type="line"/>
      <point x="587" y="376" type="line"/>
      <point x="847" y="155" type="line" smooth="yes"/>
      <point x="1000" y="26"/>
      <point x="1046" y="-10"/>
    </contour>
    <contour>
      <point x="728" y="264" type="line"/>
      <point x="919" y="333"/>
      <point x="1067" y="427"/>
      <point x="1145" y="528" type="curve"/>
      <point x="1132" y="540" type="line"/>
      <point x="1034" y="427"/>
      <point x="942" y="367"/>
      <point x="712" y="276" type="curve"/>
    </contour>
  </outline>
</glyph>
<glyph name="hbar.sc" format="2">
  <advance width="1006"/>
  <outline>
    <contour>
      <point x="102" y="460" type="line"/>
      <point x="99" y="442" type="line"/>
      <point x="163" y="442" type="line"/>
      <point x="93" y="0" type="line"/>
      <point x="112" y="0" type="line"/>
      <point x="152" y="255" type="line"/>
      <point x="847" y="255" type="line"/>
      <point x="807" y="0" type="line"/>
      <point x="826" y="0" type="line"/>
      <point x="896" y="442" type="line"/>
      <point x="959" y="442" type="line"/>
      <point x="962" y="460" type="line"/>
      <point x="899" y="460" type="line"/>
      <point x="924" y="615" type="line"/>
      <point x="905" y="615" type="line"/>
      <point x="880" y="460" type="line"/>
      <point x="185" y="460" type="line"/>
      <point x="210" y="615" type="line"/>
      <point x="191" y="615" type="line"/>
      <point x="166" y="460" type="line"/>
    </contour>
    <contour>
      <point x="155" y="274" type="line"/>
      <point x="182" y="442" type="line"/>
      <point x="877" y="442" type="line"/>
      <point x="850" y="274" type="line"/>
    </contour>
  </outline>
</glyph>
